{
.appVersion = "3221";
.formatVersion = 3;
axes = (
{
name = Weight;
tag = wght;
},
{
name = Italic;
tag = ital;
}
);
classes = (
{
automatic = 1;
code = "A Aacute Abreve Acircumflex Adieresis Agrave Amacron Aogonek Aring Atilde AE B C Cacute Ccaron Ccedilla Ccircumflex Cdotaccent D Dcaron Dcroat Eth E Eacute Ebreve Ecaron Ecircumflex Edieresis Edotaccent Egrave Emacron Eogonek Schwa F G Gbreve Gcircumflex Gcommaaccent Gdotaccent H Hbar I IJ Iacute Ibreve Icircumflex Idieresis Idotaccent Igrave Imacron Iogonek Itilde J K Kcommaaccent L Lacute Lcaron Lcommaaccent Ldot Lslash M N Nacute Ncaron Ncommaaccent Ntilde Eng O Oacute Obreve Ocircumflex Odieresis Ograve Ohungarumlaut Omacron Oslash Otilde OE P Thorn Q R Racute Rcaron Rcommaaccent S Sacute Scaron Scedilla Scircumflex Scommaaccent Germandbls T Tbar Tcaron Tcedilla Tcommaaccent U Uacute Ubreve Ucircumflex Udieresis Ugrave Uhungarumlaut Umacron Uogonek Uring Utilde V W X Y Yacute Ycircumflex Ydieresis Z Zacute Zcaron Zdotaccent G.ss01 IJ.ss01";
name = Uppercase;
}
);
customParameters = (
{
name = "Use Typo Metrics";
value = 1;
},
{
name = fsType;
value = (
);
},
{
name = unicodeRanges;
value = (
0,
1,
2
);
},
{
name = "Write lastChange";
value = 0;
},
{
name = "Write DisplayStrings";
value = 0;
}
);
date = "2023-03-31 10:00:41 +0000";
familyName = Ronzino;
featurePrefixes = (
{
automatic = 1;
code = "languagesystem DFLT dflt;

languagesystem latn dflt;
languagesystem latn AZE;
languagesystem latn CRT;
languagesystem latn KAZ;
languagesystem latn TAT;
languagesystem latn TRK;
languagesystem latn ROM;
languagesystem latn MOL;
languagesystem latn CAT;
";
name = Languagesystems;
},
{
code = "";
name = unnamed;
}
);
features = (
{
automatic = 1;
code = "feature locl;
feature subs;
feature sinf;
feature sups;
feature frac;
feature numr;
feature dnom;
feature ordn;
feature lnum;
feature onum;
feature case;
feature vert;
feature vrt2;
feature ss01;
";
tag = aalt;
},
{
automatic = 1;
code = "lookup ccmp_Other_1 {

glyphs = (
{
glyphname = A;
layers = (
{
anchors = (
{
name = ogonek;
pos = (644,12);
},
{
name = top;
pos = (328,732);
}
);
layerId = m01;
shapes = (
{
closed = 1;
nodes = (
(106,0,l),
(330,644,l),
(322,644,l),
(548,0,l),
(656,0,l),
(382,732,l),
(278,732,l),
(8,0,l)
);
},
{
closed = 1;
nodes = (
(487,204,l),
(487,282,l),
(167,282,l),
(167,204,l)
);
}
);
width = 668;
},
{
anchors = (
{
name = ogonek;
pos = (692,12);
},
{
name = top;
pos = (350,744);
}
);
layerId = "E9FB66CC-5D7A-47B2-9A25-A0E8EEF5BB81";
shapes = (
{
closed = 1;
nodes = (
(152,0,l),
(348,596,l),
(340,596,l),
(540,0,l),
(704,0,l),
(432,744,l),
(272,744,l),
(4,0,l)
);
},
{
closed = 1;
nodes = (
(488,180,l),
(488,288,l),
(202,288,l),
(202,180,l)
);
}
);
width = 710;
}
);
unicode = 65;
userData = {
KernOnName = A;
};
},
{
glyphname = AE;
layers = (
{
layerId = m01;
shapes = (
{
closed = 1;
nodes = (
(106,0,l),
(438,653,l),
(480,653,l),
(480,0,l),
(958,0,l),
(958,78,l),
(572,78,l),
(580,70,l),
(580,661,l),
(572,653,l),
(950,653,l),
(950,732,l),
(396,732,l),
(6,0,l)
);
},
{
closed = 1;
nodes = (
(488,202,l),
(488,280,l),
(202,280,l),
(202,202,l)
);
},
{
closed = 1;
nodes = (
(916,338,l),
(916,416,l),
(572,416,l),
(572,338,l)
);
}
);
width = 992;
},
{
layerId = "E9FB66CC-5D7A-47B2-9A25-A0E8EEF5BB81";
shapes = (
{
closed = 1;
nodes = (
(136,0,l),
(414,628,l),
(468,628,l),
(468,0,l),
(956,0,l),
(956,116,l),
(612,116,l),
(620,108,l),
(620,637,l),
(612,629,l),
(950,629,l),
(950,744,l),
(344,744,l),
(-8,0,l)
);
},
{
closed = 1;
nodes = (
(476,182,l),
(476,286,l),
(208,286,l),
(208,182,l)
);
},
{
closed = 1;
nodes = (
(918,326,l),
(918,440,l),
(612,440,l),
(612,326,l)
);
}
);
width = 996;
}
);
metricRight = E;
unicode = 198;
},
{
glyphname = B;
layers = (
{
layerId = m01;
shapes = (
{
closed = 1;
nodes = (
(400,0,ls),
(538,0,o),
(632,80,o),
(632,198,cs),
(632,309,o),
(552,386,o),
(436,388,c),
(436,380,l),
(536,387,o),
(604,455,o),
(604,548,cs),
(604,657,o),
(515,732,o),
(385,732,cs),
(88,732,l),
(88,0,l)
);
},
{
closed = 1;
nodes = (
(188,661,l),
(181,653,l),
(373,653,ls),
(453,653,o),
(500,610,o),
(500,536,cs),
(500,461,o),
(452,416,o),
(371,416,cs),
(181,416,l),
(181,338,l),
(394,338,ls),
(476,338,o),
(524,290,o),
(524,208,cs),
(524,128,o),
(474,80,o),
(390,80,cs),
(181,80,l),
(188,72,l)
);
}
);
width = 676;
},
{
layerId = "E9FB66CC-5D7A-47B2-9A25-A0E8EEF5BB81";
shapes = (
{
closed = 1;
nodes = (
(419,0,ls),
(556,0,o),
(650,83,o),
(650,205,cs),
(650,322,o),
(570,396,o),
(444,396,c),
(444,388,l),
(552,396,o),
(620,463,o),
(620,560,cs),
(620,669,o),
(532,744,o),
(404,744,cs),
(80,744,l),
(80,0,l)
);
},
{
closed = 1;
nodes = (
(232,637,l),
(224,629,l),
(372,629,ls),
(428,629,o),
(464,593,o),
(464,536,cs),
(464,477,o),
(428,440,o),
(372,440,cs),
(224,440,l),
(224,326,l),
(388,326,ls),
(449,326,o),
(488,285,o),
(488,220,cs),
(488,156,o),
(448,116,o),
(386,116,cs),
(224,116,l),
(232,108,l)
);
}
);
width = 686;
}
);
metricLeft = H;
unicode = 66;
userData = {
KernOnName = B;
};
},
{
glyphname = C;
layers = (
{
anchors = (
{
name = bottom;
pos = (387,0);
},
{
name = top;
pos = (376,732);
}
);
layerId = m01;
shapes = (
{
closed = 1;
nodes = (
(534,-14,o),
(661,87,o),
(688,234,c),
(586,264,l),
(569,144,o),
(488,68,o),
(378,68,cs),
(240,68,o),
(152,185,o),
(152,370,cs),
(152,552,o),
(240,666,o),
(376,666,cs),
(480,666,o),
(553,598,o),
(573,490,c),
(672,516,l),
(644,653,o),
(523,746,o),
(372,746,cs),
(177,746,o),
(44,593,o),
(44,368,cs),
(44,141,o),
(179,-14,o),
(376,-14,cs)
);
}
);
width = 716;
},
{
anchors = (
{
name = bottom;
pos = (392,0);
},
{
name = top;
pos = (378,744);
}
);
layerId = "E9FB66CC-5D7A-47B2-9A25-A0E8EEF5BB81";
shapes = (
{
closed = 1;
nodes = (
(546,-16,o),
(679,89,o),
(704,244,c),
(550,300,l),
(538,176,o),
(472,102,o),
(380,102,cs),
(270,102,o),
(198,208,o),
(198,374,cs),
(198,539,o),
(270,644,o),
(380,644,cs),
(464,644,o),
(526,582,o),
(540,482,c),
(692,524,l),
(660,666,o),
(536,760,o),
(378,760,cs),
(174,760,o),
(36,604,o),
(36,376,cs),
(36,143,o),
(174,-16,o),
(376,-16,cs)
);
}
);
width = 726;
}
);
metricLeft = O;
unicode = 67;
},
{
glyphname = D;
layers = (
{
anchors = (
{
name = top;
pos = (348,732);
}
);
layerId = m01;
shapes = (
{
closed = 1;
nodes = (
(348,0,ls),
(562,0,o),
(698,144,o),
(698,370,cs),
(698,591,o),
(564,732,o),
(352,732,cs),
(88,732,l),
(88,0,l)
);
},
{
closed = 1;
nodes = (
(188,662,l),
(180,654,l),
(338,654,ls),
(496,654,o),
(590,548,o),
(590,368,cs),
(590,187,o),
(497,80,o),
(340,80,cs),
(180,80,l),
(188,72,l)
);
}
);
width = 742;
},
{
anchors = (
{
name = top;
pos = (352,744);
}
);
layerId = "E9FB66CC-5D7A-47B2-9A25-A0E8EEF5BB81";
shapes = (
{
closed = 1;
nodes = (
(359,0,ls),
(569,0,o),
(712,153,o),
(712,376,cs),
(712,595,o),
(570,744,o),
(363,744,cs),
(80,744,l),
(80,0,l)
);
},
{
closed = 1;
nodes = (
(232,632,l),
(224,624,l),
(354,624,ls),
(474,624,o),
(550,526,o),
(550,372,cs),
(550,215,o),
(473,116,o),
(352,116,cs),
(224,116,l),
(232,108,l)
);
}
);
width = 748;
}
);
metricLeft = H;
metricRight = O;
unicode = 68;
},
{
glyphname = Eth;
layers = (
{
layerId = m01;
shapes = (
{
closed = 1;
nodes = (
(362,351,l),
(362,423,l),
(22,423,l),
(22,351,l)
);
},
{
pos = (8,0);
ref = D;
}
);
width = 750;
},
{
layerId = "E9FB66CC-5D7A-47B2-9A25-A0E8EEF5BB81";
shapes = (
{
closed = 1;
nodes = (
(396,332,l),
(396,444,l),
(16,444,l),
(16,332,l)
);
},
{
pos = (16,0);
ref = D;
}
);
width = 764;
}
);
metricRight = O;
unicode = 208;
},
{
glyphname = E;
layers = (
{
anchors = (
{
name = ogonek;
pos = (572,12);
},
{
name = top;
pos = (336,732);
}
);
layerId = m01;
shapes = (
{
closed = 1;
nodes = (
(584,0,l),
(584,80,l),
(180,80,l),
(188,72,l),
(188,661,l),
(180,653,l),
(576,653,l),
(576,732,l),
(88,732,l),
(88,0,l)
);
},
{
closed = 1;
nodes = (
(540,338,l),
(540,416,l),
(180,416,l),
(180,338,l)
);
}
);
width = 618;
},
{
anchors = (
{
name = ogonek;
pos = (584,12);
},
{
name = top;
pos = (336,744);
}
);
layerId = "E9FB66CC-5D7A-47B2-9A25-A0E8EEF5BB81";
shapes = (
{
closed = 1;
nodes = (
(596,0,l),
(596,116,l),
(224,116,l),
(232,108,l),
(232,637,l),
(224,629,l),
(590,629,l),
(590,744,l),
(80,744,l),
(80,0,l)
);
},
{
closed = 1;
nodes = (
(558,326,l),
(558,440,l),
(224,440,l),
(224,326,l)
);
}
);
width = 636;
}
);
metricLeft = H;
unicode = 69;
userData = {
KernOnName = E;
};
},
{
glyphname = Schwa;
layers = (
{
layerId = "E9FB66CC-5D7A-47B2-9A25-A0E8EEF5BB81";
width = 720;
},
{
layerId = m01;
shapes = (
{
closed = 1;
nodes = (
(569,-14,o),
(704,149,o),
(704,374,cs),
(704,601,o),
(568,746,o),
(368,746,cs),
(212,746,o),
(84,653,o),
(52,516,c),
(155,488,l),
(175,597,o),
(255,666,o),
(364,666,cs),
(506,666,o),
(601,547,o),
(601,364,cs),
(601,182,o),
(507,68,o),
(366,68,cs),
(235,68,o),
(155,164,o),
(153,318,c),
(145,310,l),
(604,310,l),
(604,386,l),
(47,386,l),
(31,147,o),
(162,-14,o),
(372,-14,cs)
);
}
);
width = 748;
},
{
associatedMasterId = m01;
layerId = "388F8219-09A1-43BF-AC98-A3A8DDD8F18F";
name = "6 mag 23, 11:01";
shapes = (
{
closed = 1;
nodes = (
(565,-14,o),
(700,142,o),
(700,364,cs),
(700,590,o),
(561,746,o),
(362,746,cs),
(211,746,o),
(86,658,o),
(52,524,c),
(156,494,l),
(179,598,o),
(260,666,o),
(364,666,cs),
(504,666,o),
(592,547,o),
(592,360,cs),
(592,180,o),
(506,68,o),
(366,68,cs),
(232,68,o),
(150,169,o),
(148,320,c),
(140,312,l),
(600,312,l),
(600,388,l),
(47,388,l),
(30,141,o),
(163,-14,o),
(364,-14,cs)
);
}
);
width = 744;
},
{
associatedMasterId = m01;
layerId = "111B428A-73D3-44F1-BB97-41676A2B7025";
name = "15 apr 23, 20:17";
shapes = (
{
closed = 1;
nodes = (
(568,-13,o),
(702,138,o),
(702,364,cs),
(702,592,o),
(566,745,o),
(363,745,cs),
(208,745,o),
(89,657,o),
(55,523,c),
(160,498,l),
(183,601,o),
(262,665,o),
(365,665,cs),
(507,665,o),
(595,551,o),
(595,364,cs),
(595,181,o),
(509,69,o),
(370,69,cs),
(238,69,o),
(156,158,o),
(154,317,c),
(138,303,l),
(608,303,l),
(608,383,l),
(47,383,l),
(39,145,o),
(167,-13,o),
(368,-13,cs)
);
}
);
width = 748;
}
);
metricRight = O;
unicode = 399;
},
{
glyphname = F;
layers = (
{
layerId = m01;
shapes = (
{
closed = 1;
nodes = (
(188,0,l),
(188,660,l),
(180,652,l),
(564,652,l),
(564,732,l),
(88,732,l),
(88,0,l)
);
},
{
closed = 1;
nodes = (
(502,334,l),
(502,414,l),
(180,414,l),
(180,334,l)
);
}
);
width = 580;
},
{
layerId = "E9FB66CC-5D7A-47B2-9A25-A0E8EEF5BB81";
shapes = (
{
closed = 1;
nodes = (
(232,0,l),
(232,636,l),
(224,628,l),
(584,628,l),
(584,744,l),
(80,744,l),
(80,0,l)
);
},
{
closed = 1;
nodes = (
(528,318,l),
(528,434,l),
(224,434,l),
(224,318,l)
);
}
);
width = 596;
}
);
metricLeft = H;
unicode = 70;
},
{
glyphname = G;
layers = (
{
anchors = (
{
name = bottom;
pos = (392,0);
},
{
name = top;
pos = (384,744);
}
);
layerId = "E9FB66CC-5D7A-47B2-9A25-A0E8EEF5BB81";
shapes = (
{
closed = 1;
nodes = (
(513,-16,o),
(625,21,o),
(692,80,c),
(692,408,l),
(368,408,l),
(368,300,l),
(568,300,l),
(568,136,l),
(535,116,o),
(484,104,o),
(436,104,cs),
(289,104,o),
(196,214,o),
(196,388,cs),
(196,546,o),
(267,646,o),
(378,646,cs),
(461,646,o),
(524,588,o),
(540,496,c),
(694,536,l),
(664,669,o),
(537,760,o),
(380,760,cs),
(176,760,o),
(36,603,o),
(36,374,cs),
(36,142,o),
(185,-16,o),
(404,-16,cs)
);
}
);
width = 746;
},
{
anchors = (
{
name = bottom;
pos = (408,0);
},
{
name = top;
pos = (380,732);
}
);
layerId = m01;
shapes = (
{
closed = 1;
nodes = (
(516,-14,o),
(614,22,o),
(676,84,c),
(676,384,l),
(368,384,l),
(368,304,l),
(584,304,l),
(584,112,l),
(547,85,o),
(485,68,o),
(424,68,cs),
(258,68,o),
(152,188,o),
(152,378,cs),
(152,554,o),
(241,666,o),
(382,666,cs),
(486,666,o),
(555,604,o),
(571,508,c),
(672,532,l),
(644,660,o),
(530,746,o),
(382,746,cs),
(181,746,o),
(44,593,o),
(44,368,cs),
(44,141,o),
(192,-14,o),
(410,-14,cs)
);
}
);
width = 738;
},
{
anchors = (
{
name = bottom;
pos = (380,0);
},
{
name = top;
pos = (376,732);
}
);
associatedMasterId = m01;
layerId = "A05A0C6D-B89F-452D-B225-53014C68BD15";
name = "15 apr 23, 16:59";
shapes = (
{
closed = 1;
nodes = (
(516,-13,o),
(629,25,o),
(679,92,c),
(679,383,l),
(371,383,l),
(371,303,l),
(591,303,l),
(591,126,l),
(559,91,o),
(494,69,o),
(424,69,cs),
(258,69,o),
(154,187,o),
(154,377,cs),
(154,554,o),
(241,665,o),
(380,665,cs),
(478,665,o),
(555,607,o),
(576,506,c),
(673,531,l),
(643,662,o),
(525,745,o),
(382,745,cs),
(184,745,o),
(47,587,o),
(47,368,cs),
(47,142,o),
(194,-13,o),
(403,-13,cs)
);
}
);
width = 745;
}
);
metricLeft = O;
note = "Versione senza gamba?";
unicode = 71;
},
{
glyphname = H;
layers = (
{
layerId = m01;
shapes = (
{
closed = 1;
nodes = (
(656,0,l),
(656,732,l),
(556,732,l),
(556,0,l)
);
},
{
closed = 1;
nodes = (
(188,0,l),
(188,732,l),
(88,732,l),
(88,0,l)
);
},
{
closed = 1;
nodes = (
(564,345,l),
(564,425,l),
(180,425,l),
(180,345,l)
);
}
);
width = 744;
},
{
layerId = "E9FB66CC-5D7A-47B2-9A25-A0E8EEF5BB81";
shapes = (
{
closed = 1;
nodes = (
(682,0,l),
(682,744,l),
(530,744,l),
(530,0,l)
);
},
{
closed = 1;
nodes = (
(232,0,l),
(232,744,l),
(80,744,l),
(80,0,l)
);
},
{
closed = 1;
nodes = (
(538,328,l),
(538,444,l),
(224,444,l),
(224,328,l)
);
}
);
width = 762;
}
);
metricRight = "=|";
unicode = 72;
userData = {
KernOnName = H;
KernOnSpecialSpacing = {
};
};
},
{
glyphname = Hbar;
layers = (
{
layerId = m01;
shapes = (
{
closed = 1;
nodes = (
(708,563,l),
(708,632,l),
(48,632,l),
(48,563,l)
);
},
{
pos = (6,0);
ref = H;
}
);
width = 756;
},
{
layerId = "E9FB66CC-5D7A-47B2-9A25-A0E8EEF5BB81";
shapes = (
{
closed = 1;
nodes = (
(746,536,l),
(746,640,l),
(16,640,l),
(16,536,l)
);
},
{
ref = H;
}
);
width = 762;
}
);
metricRight = "=|";
unicode = 294;
},
{
glyphname = I;
layers = (
{
anchors = (
{
name = ogonek;
pos = (176,12);
},
{
name = top;
pos = (138,732);
}
);
layerId = m01;
shapes = (
{
closed = 1;
nodes = (
(188,0,l),
(188,732,l),
(88,732,l),
(88,0,l)
);
}
);
width = 276;
},
{
anchors = (
{
name = ogonek;
pos = (220,12);
},
{
name = top;
pos = (156,744);
}
);
layerId = "E9FB66CC-5D7A-47B2-9A25-A0E8EEF5BB81";
shapes = (
{
closed = 1;
nodes = (
(232,0,l),
(232,744,l),
(80,744,l),
(80,0,l)
);
}
);
width = 312;
}
);
metricLeft = H;
metricRight = H;
unicode = 73;
},
{
glyphname = J;
layers = (
{
layerId = m01;
shapes = (
{
closed = 1;
nodes = (
(389,-14,o),
(478,74,o),
(478,213,cs),
(478,732,l),
(378,732,l),
(378,210,ls),
(378,123,o),
(332,71,o),
(254,71,cs),
(166,71,o),
(116,138,o),
(120,251,c),
(20,238,l),
(16,84,o),
(105,-14,o),
(250,-14,cs)
);
}
);
width = 556;
},
{
layerId = "E9FB66CC-5D7A-47B2-9A25-A0E8EEF5BB81";
shapes = (
{
closed = 1;
nodes = (
(425,-16,o),
(522,77,o),
(522,224,cs),
(522,744,l),
(370,744,l),
(370,228,ls),
(370,154,o),
(333,110,o),
(270,110,cs),
(194,110,o),
(154,173,o),
(162,280,c),
(18,244,l),
(14,85,o),
(113,-16,o),
(272,-16,cs)
);
}
);
width = 592;
}
);
unicode = 74;
},
{
glyphname = K;
layers = (
{
anchors = (
{
name = bottom;
pos = (364,0);
},
{
name = top;
pos = (352,732);
}
);
layerId = m01;
shapes = (
{
closed = 1;
nodes = (
(188,0,l),
(188,270,l),
(180,248,l),
(644,732,l),
(522,732,l),
(180,368,l),
(188,368,l),
(188,732,l),
(88,732,l),
(88,0,l)
);
},
{
closed = 1;
nodes = (
(668,0,l),
(348,432,l),
(282,364,l),
(544,0,l)
);
}
);
width = 676;
},
{
anchors = (
{
name = bottom;
pos = (392,0);
},
{
name = top;
pos = (376,744);
}
);
layerId = "E9FB66CC-5D7A-47B2-9A25-A0E8EEF5BB81";
shapes = (
{
closed = 1;
nodes = (
(232,0,l),
(232,248,l),
(224,224,l),
(700,744,l),
(526,744,l),
(224,404,l),
(232,404,l),
(232,744,l),
(80,744,l),
(80,0,l)
);
},
{
closed = 1;
nodes = (
(724,0,l),
(412,444,l),
(310,332,l),
(536,0,l)
);
}
);
width = 726;
}
);
metricLeft = H;
unicode = 75;
},
{
glyphname = L;
layers = (
{
anchors = (
{
name = bottom;
pos = (332,0);
},
{
name = top;
pos = (160,732);
},
{
name = topright;
pos = (236,572);
}
);
layerId = m01;
shapes = (
{
closed = 1;
nodes = (
(188,0,l),
(188,732,l),
(88,732,l),
(88,0,l)
);
},
{
closed = 1;
nodes = (
(548,0,l),
(548,86,l),
(180,86,l),
(180,0,l)
);
}
);
width = 560;
},
{
anchors = (
{
name = bottom;
pos = (336,0);
},
{
name = top;
pos = (179,744);
},
{
name = topright;
pos = (264,586);
}
);
layerId = "E9FB66CC-5D7A-47B2-9A25-A0E8EEF5BB81";
shapes = (
{
closed = 1;
nodes = (
(232,0,l),
(232,744,l),
(80,744,l),
(80,0,l)
);
},
{
closed = 1;
nodes = (
(564,0,l),
(564,123,l),
(224,123,l),
(224,0,l)
);
}
);
width = 572;
}
);
metricLeft = H;
unicode = 76;
},
{
glyphname = Ldot;
layers = (
{
layerId = m01;
shapes = (
{
closed = 1;
nodes = (
(464,348,l),
(464,456,l),
(358,456,l),
(358,348,l)
);
},
{
ref = L;
}
);
width = 560;
},
{
layerId = "E9FB66CC-5D7A-47B2-9A25-A0E8EEF5BB81";
shapes = (
{
closed = 1;
nodes = (
(514,340,l),
(514,500,l),
(350,500,l),
(350,340,l)
);
},
{
ref = L;
}
);
width = 572;
}
);
metricLeft = H;
metricRight = L;
unicode = 319;
},
{
color = 3;
glyphname = Lslash;
layers = (
{
layerId = "E9FB66CC-5D7A-47B2-9A25-A0E8EEF5BB81";
shapes = (
{
pos = (12,0);
ref = L;
},
{
closed = 1;
nodes = (
(446,382,l),
(412,490,l),
(8,360,l),
(40,254,l)
);
}
);
width = 584;
},
{
layerId = m01;
name = Regular;
shapes = (
{
pos = (8,0);
ref = L;
},
{
closed = 1;
nodes = (
(420,390,l),
(396,462,l),
(18,336,l),
(42,266,l)
);
}
);
width = 568;
}
);
metricRight = L;
unicode = 321;
},
{
glyphname = M;
layers = (
{
layerId = m01;
shapes = (
{
closed = 1;
nodes = (
(178,0,l),
(178,632,l),
(170,632,l),
(404,0,l),
(496,0,l),
(726,634,l),
(718,634,l),
(718,0,l),
(816,0,l),
(816,732,l),
(680,732,l),
(452,100,l),
(460,100,l),
(224,732,l),
(88,732,l),
(88,0,l)
);
}
);
width = 904;
},
{
layerId = "E9FB66CC-5D7A-47B2-9A25-A0E8EEF5BB81";
shapes = (
{
closed = 1;
nodes = (
(208,0,l),
(208,566,l),
(200,566,l),
(407,0,l),
(513,0,l),
(712,568,l),
(704,568,l),
(704,0,l),
(852,0,l),
(852,744,l),
(656,744,l),
(472,224,l),
(480,224,l),
(288,744,l),
(80,744,l),
(80,0,l)
);
}
);
width = 932;
}
);
metricLeft = H;
metricRight = H;
unicode = 77;
},
{
glyphname = N;
layers = (
{
anchors = (
{
name = bottom;
pos = (388,0);
},
{
name = top;
pos = (380,732);
}
);
layerId = m01;
shapes = (
{
closed = 1;
nodes = (
(180,0,l),
(180,634,l),
(172,634,l),
(544,0,l),
(666,0,l),
(666,732,l),
(574,732,l),
(574,114,l),
(582,114,l),
(218,732,l),
(88,732,l),
(88,0,l)
);
}
);
width = 754;
},
{
anchors = (
{
name = bottom;
pos = (396,0);
},
{
name = top;
pos = (388,744);
}
);
layerId = "E9FB66CC-5D7A-47B2-9A25-A0E8EEF5BB81";
shapes = (
{
closed = 1;
nodes = (
(218,0,l),
(218,546,l),
(210,546,l),
(530,0,l),
(694,0,l),
(694,744,l),
(556,744,l),
(556,220,l),
(564,220,l),
(256,744,l),
(80,744,l),
(80,0,l)
);
}
);
width = 774;
},
{
anchors = (
{
name = bottom;
pos = (391,0);
},
{
name = top;
pos = (387,732);
}
);
associatedMasterId = m01;
layerId = "71E572D0-3921-4148-95E2-FFE2620C6ACC";
name = "15 apr 23, 17:24";
shapes = (
{
closed = 1;
nodes = (
(188,0,l),
(188,605,l),
(559,0,l),
(674,0,l),
(674,732,l),
(582,732,l),
(582,142,l),
(220,732,l),
(96,732,l),
(96,0,l)
);
}
);
width = 770;
}
);
metricLeft = H;
metricRight = H;
unicode = 78;
},
{
glyphname = Eng;
layers = (
{
layerId = m01;
shapes = (
{
closed = 1;
nodes = (
(573,-274,o),
(666,-223,o),
(666,-112,cs),
(666,732,l),
(576,732,l),
(576,114,l),
(584,114,l),
(222,732,l),
(88,732,l),
(88,0,l),
(178,0,l),
(178,640,l),
(170,640,l),
(574,-46,l),
(574,-106,ls),
(574,-166,o),
(525,-186,o),
(448,-156,c),
(436,-236,l)
);
}
);
width = 754;
},
{
layerId = "E9FB66CC-5D7A-47B2-9A25-A0E8EEF5BB81";
shapes = (
{
closed = 1;
nodes = (
(584,-280,o),
(694,-232,o),
(694,-100,cs),
(694,744,l),
(558,744,l),
(558,218,l),
(566,218,l),
(256,744,l),
(80,744,l),
(80,0,l),
(216,0,l),
(216,552,l),
(208,552,l),
(554,-40,l),
(554,-72,ls),
(554,-128,o),
(504,-148,o),
(424,-120,c),
(412,-232,l)
);
}
);
width = 774;
}
);
metricLeft = H;
metricRight = H;
unicode = 330;
},
{
glyphname = O;
layers = (
{
anchors = (
{
name = center;
pos = (386,360);
},
{
name = top;
pos = (384,732);
}
);
layerId = m01;
shapes = (
{
closed = 1;
nodes = (
(586,-14,o),
(724,140,o),
(724,366,cs),
(724,592,o),
(586,746,o),
(384,746,cs),
(182,746,o),
(44,592,o),
(44,366,cs),
(44,140,o),
(182,-14,o),
(384,-14,cs)
);
},
{
closed = 1;
nodes = (
(242,68,o),
(152,184,o),
(152,367,cs),
(152,550,o),
(242,666,o),
(384,666,cs),
(526,666,o),
(616,550,o),
(616,367,cs),
(616,184,o),
(526,68,o),
(384,68,cs)
);
}
);
width = 768;
},
{
anchors = (
{
name = center;
pos = (386,368);
},
{
name = top;
pos = (386,744);
}
);
layerId = "E9FB66CC-5D7A-47B2-9A25-A0E8EEF5BB81";
shapes = (
{
closed = 1;
nodes = (
(594,-16,o),
(736,141,o),
(736,372,cs),
(736,603,o),
(594,760,o),
(386,760,cs),
(178,760,o),
(36,603,o),
(36,372,cs),
(36,141,o),
(178,-16,o),
(386,-16,cs)
);
},
{
closed = 1;
nodes = (
(271,104,o),
(198,209,o),
(198,374,cs),
(198,539,o),
(271,644,o),
(386,644,cs),
(501,644,o),
(574,539,o),
(574,374,cs),
(574,209,o),
(501,104,o),
(386,104,cs)
);
}
);
width = 772;
}
);
metricRight = "=|";
unicode = 79;
userData = {
KernOnName = O;
};
},
{
color = 3;
glyphname = OE;
layers = (
{
layerId = m01;
shapes = (
{
closed = 1;
nodes = (
(566,-12,o),
(698,141,o),
(698,366,cs),
(698,591,o),
(566,744,o),
(372,744,cs),
(177,744,o),
(44,591,o),
(44,366,cs),
(44,141,o),
(177,-12,o),
(372,-12,cs)
);
},
{
closed = 1;
nodes = (
(239,70,o),
(152,185,o),
(152,367,cs),
(152,549,o),
(239,664,o),
(376,664,cs),
(513,664,o),
(600,549,o),
(600,367,cs),
(600,185,o),
(513,70,o),
(376,70,cs)
);
},
{
closed = 1;
nodes = (
(1080,0,l),
(1080,80,l),
(694,80,l),
(702,72,l),
(702,661,l),
(694,653,l),
(1072,653,l),
(1072,732,l),
(602,732,l),
(602,0,l)
);
},
{
closed = 1;
nodes = (
(1038,338,l),
(1038,416,l),
(694,416,l),
(694,338,l)
);
}
);
width = 1114;
},
{
layerId = "E9FB66CC-5D7A-47B2-9A25-A0E8EEF5BB81";
shapes = (
{
closed = 1;
nodes = (
(564,-12,o),
(698,144,o),
(698,372,cs),
(698,600,o),
(564,756,o),
(368,756,cs),
(171,756,o),
(36,600,o),
(36,372,cs),
(36,144,o),
(171,-12,o),
(368,-12,cs)
);
},
{
closed = 1;
nodes = (
(266,108,o),
(198,211,o),
(198,374,cs),
(198,537,o),
(266,640,o),
(372,640,cs),
(478,640,o),
(546,537,o),
(546,374,cs),
(546,211,o),
(478,108,o),
(372,108,cs)
);
},
{
closed = 1;
nodes = (
(1038,0,l),
(1038,116,l),
(694,116,l),
(702,108,l),
(702,637,l),
(694,629,l),
(1032,629,l),
(1032,744,l),
(550,744,l),
(550,0,l)
);
},
{
closed = 1;
nodes = (
(1000,326,l),
(1000,440,l),
(694,440,l),
(694,326,l)
);
}
);
width = 1078;
}
);
metricLeft = O;
metricRight = E;
unicode = 338;
},
{
glyphname = P;
layers = (
{
layerId = m01;
shapes = (
{
closed = 1;
nodes = (
(188,0,l),
(188,661,l),
(180,653,l),
(376,653,ls),
(464,653,o),
(516,603,o),
(516,518,cs),
(516,431,o),
(463,380,o),
(372,380,cs),
(180,380,l),
(180,300,l),
(359,300,ls),
(520,300,o),
(622,385,o),
(622,519,cs),
(622,649,o),
(521,732,o),
(363,732,cs),
(88,732,l),
(88,0,l)
);
}
);
width = 650;
},
{
layerId = "E9FB66CC-5D7A-47B2-9A25-A0E8EEF5BB81";
shapes = (
{
closed = 1;
nodes = (
(232,0,l),
(232,637,l),
(224,629,l),
(364,629,ls),
(436,629,o),
(478,588,o),
(478,518,cs),
(478,448,o),
(435,406,o),
(362,406,cs),
(224,406,l),
(224,290,l),
(368,290,ls),
(533,290,o),
(638,381,o),
(638,523,cs),
(638,658,o),
(535,744,o),
(372,744,cs),
(80,744,l),
(80,0,l)
);
}
);
width = 660;
},
{
associatedMasterId = m01;
layerId = "DBC19135-4BDE-4507-9A9E-AE0B796A5218";
name = "15 apr 23, 17:25";
shapes = (
{
closed = 1;
nodes = (
(197,0,l),
(197,661,l),
(188,653,l),
(374,653,ls),
(457,653,o),
(508,604,o),
(508,523,cs),
(508,440,o),
(457,389,o),
(372,389,cs),
(188,389,l),
(188,310,l),
(360,310,ls),
(512,310,o),
(613,395,o),
(613,523,cs),
(613,649,o),
(514,732,o),
(364,732,cs),
(96,732,l),
(96,0,l)
);
}
);
width = 637;
}
);
metricLeft = H;
unicode = 80;
userData = {
KernOnName = P;
};
},
{
glyphname = Thorn;
layers = (
{
layerId = m01;
shapes = (
{
closed = 1;
nodes = (
(188,0,l),
(188,732,l),
(88,732,l),
(88,0,l)
);
},
{
closed = 1;
nodes = (
(368,155,ls),
(522,155,o),
(620,238,o),
(620,368,cs),
(620,495,o),
(524,575,o),
(372,575,cs),
(180,575,l),
(180,497,l),
(378,497,ls),
(462,497,o),
(512,449,o),
(512,368,cs),
(512,284,o),
(461,234,o),
(376,234,cs),
(180,234,l),
(180,155,l)
);
}
);
width = 648;
},
{
layerId = "E9FB66CC-5D7A-47B2-9A25-A0E8EEF5BB81";
shapes = (
{
closed = 1;
nodes = (
(232,0,l),
(232,744,l),
(80,744,l),
(80,0,l)
);
},
{
closed = 1;
nodes = (
(366,147,ls),
(531,147,o),
(636,236,o),
(636,376,cs),
(636,509,o),
(533,593,o),
(370,593,cs),
(224,593,l),
(224,478,l),
(362,478,ls),
(434,478,o),
(477,438,o),
(477,371,cs),
(477,303,o),
(434,263,o),
(360,263,cs),
(224,263,l),
(224,147,l)
);
}
);
width = 656;
}
);
metricLeft = H;
unicode = 222;
},
{
glyphname = Q;
layers = (
{
layerId = m01;
shapes = (
{
closed = 1;
nodes = (
(724,-96,l),
(696,-26,o),
(629,27,o),
(552,40,c),
(552,32,l),
(657,85,o),
(724,217,o),
(724,374,cs),
(724,601,o),
(591,746,o),
(383,746,cs),
(176,746,o),
(44,599,o),
(44,368,cs),
(44,136,o),
(176,-12,o),
(384,-12,cs),
(408,-12,ls),
(509,-12,o),
(588,-62,o),
(621,-146,c)
);
},
{
closed = 1;
nodes = (
(238,67,o),
(152,178,o),
(152,367,cs),
(152,555,o),
(238,666,o),
(384,666,cs),
(530,666,o),
(616,555,o),
(616,367,cs),
(616,178,o),
(530,67,o),
(384,67,cs)
);
}
);
width = 768;
},
{
background = {
anchors = (
{
name = top;
pos = (386,744);
}
);
shapes = (
{
closed = 1;
nodes = (
(594,-16,o),
(736,141,o),
(736,372,cs),
(736,603,o),
(594,760,o),
(386,760,cs),
(178,760,o),
(36,603,o),
(36,372,cs),
(36,141,o),
(178,-16,o),
(386,-16,cs)
);
},
{
closed = 1;
nodes = (
(271,104,o),
(198,209,o),
(198,374,cs),
(198,539,o),
(271,644,o),
(386,644,cs),
(501,644,o),
(574,539,o),
(574,374,cs),
(574,209,o),
(501,104,o),
(386,104,cs)
);
}
);
};
layerId = "E9FB66CC-5D7A-47B2-9A25-A0E8EEF5BB81";
shapes = (
{
closed = 1;
nodes = (
(736,-80,l),
(704,-12,o),
(636,38,o),
(560,50,c),
(560,42,l),
(672,98,o),
(736,224,o),
(736,376,cs),
(736,611,o),
(600,760,o),
(386,760,cs),
(177,760,o),
(36,606,o),
(36,371,cs),
(36,146,o),
(176,-16,o),
(386,-16,cs),
(388,-16,ls),
(488,-16,o),
(561,-71,o),
(584,-164,c)
);
},
{
closed = 1;
nodes = (
(268,100,o),
(198,201,o),
(198,372,cs),
(198,543,o),
(268,644,o),
(386,644,cs),
(504,644,o),
(574,543,o),
(574,372,cs),
(574,201,o),
(504,100,o),
(386,100,cs)
);
}
);
width = 772;
},
{
associatedMasterId = "E9FB66CC-5D7A-47B2-9A25-A0E8EEF5BB81";
background = {
shapes = (
{
closed = 1;
nodes = (
(590,-13,o),
(730,139,o),
(730,366,cs),
(730,593,o),
(590,745,o),
(380,745,cs),
(171,745,o),
(31,593,o),
(31,366,cs),
(31,139,o),
(171,-13,o),
(380,-13,cs)
);
},
{
closed = 1;
nodes = (
(264,105,o),
(193,204,o),
(193,367,cs),
(193,530,o),
(264,630,o),
(380,630,cs),
(496,630,o),
(568,530,o),
(568,367,cs),
(568,204,o),
(496,105,o),
(380,105,cs)
);
}
);
};
layerId = "5E3D4344-40ED-437A-9499-867750331F68";
name = "6 Jun 23, 16:44";
shapes = (
{
closed = 1;
nodes = (
(729,-84,l),
(699,-20,o),
(625,37,o),
(555,54,c),
(555,42,l),
(665,97,o),
(728,221,o),
(728,372,cs),
(728,594,o),
(590,745,o),
(380,745,cs),
(171,745,o),
(32,593,o),
(32,366,cs),
(32,139,o),
(170,-13,o),
(379,-13,cs),
(381,-13,ls),
(476,-13,o),
(552,-71,o),
(580,-163,c)
);
},
{
closed = 1;
nodes = (
(264,105,o),
(193,204,o),
(193,367,cs),
(193,530,o),
(264,630,o),
(380,630,cs),
(496,630,o),
(568,530,o),
(568,367,cs),
(568,204,o),
(496,105,o),
(380,105,cs)
);
}
);
width = 761;
}
);
metricLeft = O;
metricRight = O;
unicode = 81;
},
{
glyphname = R;
layers = (
{
anchors = (
{
name = bottom;
pos = (376,0);
},
{
name = top;
pos = (344,732);
}
);
layerId = m01;
shapes = (
{
closed = 1;
nodes = (
(188,0,l),
(188,661,l),
(180,653,l),
(376,653,ls),
(459,653,o),
(508,607,o),
(508,530,cs),
(508,452,o),
(457,406,o),
(372,406,cs),
(180,406,l),
(180,326,l),
(320,326,ls),
(376,326,o),
(422,296,o),
(444,244,cs),
(546,0,l),
(664,0,l),
(532,280,ls),
(512,322,o),
(475,348,o),
(436,348,c),
(436,340,l),
(545,352,o),
(614,425,o),
(614,532,cs),
(614,654,o),
(522,732,o),
(378,732,cs),
(88,732,l),
(88,0,l)
);
}
);
width = 684;
},
{
anchors = (
{
name = bottom;
pos = (394,0);
},
{
name = top;
pos = (360,744);
}
);
layerId = "E9FB66CC-5D7A-47B2-9A25-A0E8EEF5BB81";
shapes = (
{
closed = 1;
nodes = (
(232,0,l),
(232,637,l),
(224,629,l),
(380,629,ls),
(449,629,o),
(489,592,o),
(489,530,cs),
(489,467,o),
(448,430,o),
(378,430,cs),
(224,430,l),
(224,314,l),
(348,314,ls),
(396,314,o),
(431,291,o),
(444,252,cs),
(528,0,l),
(708,0,l),
(588,284,ls),
(570,326,o),
(536,351,o),
(496,352,c),
(496,344,l),
(589,364,o),
(648,438,o),
(648,536,cs),
(648,663,o),
(553,744,o),
(404,744,cs),
(80,744,l),
(80,0,l)
);
}
);
width = 720;
}
);
metricLeft = H;
unicode = 82;
userData = {
KernOnName = R;
};
},
{
glyphname = S;
layers = (
{
anchors = (
{
name = bottom;
pos = (332,0);
},
{
name = top;
pos = (334,744);
}
);
layerId = "E9FB66CC-5D7A-47B2-9A25-A0E8EEF5BB81";
shapes = (
{
closed = 1;
nodes = (
(513,-16,o),
(628,70,o),
(628,208,cs),
(628,476,o),
(198,384,o),
(198,556,cs),
(198,613,o),
(245,650,o),
(320,650,cs),
(399,650,o),
(460,604,o),
(474,536,c),
(618,584,l),
(582,692,o),
(470,760,o),
(330,760,cs),
(166,760,o),
(48,678,o),
(48,552,cs),
(48,292,o),
(476,380,o),
(476,200,cs),
(476,136,o),
(424,96,o),
(343,96,cs),
(253,96,o),
(187,154,o),
(172,240,c),
(26,188,l),
(59,62,o),
(182,-16,o),
(338,-16,cs)
);
}
);
width = 660;
},
{
anchors = (
{
name = bottom;
pos = (341,0);
},
{
name = top;
pos = (324,732);
}
);
associatedMasterId = m01;
layerId = "7B12349E-CF51-40D1-983E-E94D7E9052BF";
name = "20 Apr 23, 21:32";
shapes = (
{
closed = 1;
nodes = (
(502,-13,o),
(607,67,o),
(607,184,cs),
(607,435,o),
(167,372,o),
(167,556,cs),
(167,623,o),
(224,667,o),
(312,667,cs),
(408,667,o),
(473,615,o),
(487,523,c),
(592,548,l),
(571,665,o),
(456,745,o),
(310,745,cs),
(165,745,o),
(65,674,o),
(65,556,cs),
(65,310,o),
(502,374,o),
(502,182,cs),
(502,111,o),
(445,67,o),
(345,67,cs),
(228,67,o),
(153,128,o),
(142,238,c),
(36,213,l),
(56,75,o),
(176,-13,o),
(343,-13,cs)
);
}
);
width = 649;
},
{
anchors = (
{
name = bottom;
pos = (336,0);
},
{
name = top;
pos = (316,732);
}
);
layerId = m01;
name = Regular;
shapes = (
{
closed = 1;
nodes = (
(490,-14,o),
(600,64,o),
(600,192,cs),
(600,460,o),
(160,365,o),
(160,556,cs),
(160,624,o),
(218,668,o),
(308,668,cs),
(400,668,o),
(468,617,o),
(484,538,c),
(588,570,l),
(560,678,o),
(456,746,o),
(320,746,cs),
(168,746,o),
(62,670,o),
(62,550,cs),
(62,290,o),
(500,398,o),
(500,190,cs),
(500,113,o),
(438,64,o),
(340,64,cs),
(236,64,o),
(160,123,o),
(144,216,c),
(42,184,l),
(66,64,o),
(184,-14,o),
(332,-14,cs)
);
}
);
width = 637;
}
);
note = "Falls to the right";
unicode = 83;
userData = {
KernOnName = S;
};
},
{
color = 1;
glyphname = Germandbls;
layers = (
{
layerId = m01;
shapes = (
{
closed = 1;
nodes = (
(575,-14,o),
(676,70,o),
(676,192,cs),
(676,312,o),
(580,404,o),
(444,416,c),
(448,408,l),
(600,688,l),
(437,782,o),
(78,783,o),
(78,516,cs),
(78,0,l),
(178,0,l),
(178,508,ls),
(178,704,o),
(388,680,o),
(480,640,c),
(328,360,l),
(476,356,o),
(570,296,o),
(570,196,cs),
(570,120,o),
(514,68,o),
(428,68,cs),
(376,68,o),
(319,88,o),
(280,120,c),
(240,36,l),
(284,6,o),
(358,-14,o),
(428,-14,cs)
);
}
);
width = 704;
},
{
layerId = "E9FB66CC-5D7A-47B2-9A25-A0E8EEF5BB81";
shapes = (
{
closed = 1;
nodes = (
(600,-16,o),
(714,72,o),
(714,208,cs),
(714,314,o),
(650,400,o),
(498,420,c),
(502,412,l),
(622,664,l),
(430,812,o),
(70,812,o),
(70,512,cs),
(70,0,l),
(222,0,l),
(222,508,ls),
(222,652,o),
(364,680,o),
(476,616,c),
(352,352,l),
(480,340,o),
(556,288,o),
(556,208,cs),
(556,143,o),
(510,102,o),
(434,102,cs),
(392,102,o),
(342,116,o),
(312,136,c),
(280,8,l),
(317,-6,o),
(376,-16,o),
(428,-16,cs)
);
}
);
width = 736;
},
{
associatedMasterId = m01;
layerId = "1162E188-38FF-4D61-A3DB-8ADB07CBAFDB";
name = "25 Jul 23 at 17:52";
shapes = (
{
closed = 1;
nodes = (
(578,-14,o),
(676,70,o),
(676,192,cs),
(676,312,o),
(582,402,o),
(444,414,c),
(448,406,l),
(476,478,o),
(542,553,o),
(613,605,c),
(562,689,o),
(452,746,o),
(328,746,cs),
(176,746,o),
(78,666,o),
(78,520,cs),
(78,0,l),
(178,0,l),
(178,528,ls),
(178,623,o),
(236,667,o),
(324,667,cs),
(392,667,o),
(448,638,o),
(498,594,c),
(498,602,l),
(423,546,o),
(369,454,o),
(340,360,c),
(476,360,o),
(570,297,o),
(570,198,cs),
(570,119,o),
(516,68,o),
(432,68,cs),
(361,68,o),
(301,104,o),
(280,160,c),
(220,76,l),
(268,20,o),
(348,-14,o),
(438,-14,cs)
);
}
);
width = 704;
}
);
unicode = 7838;
},
{
glyphname = T;
layers = (
{
anchors = (
{
name = bottom;
pos = (302,0);
},
{
name = center;
pos = (300,400);
},
{
name = top;
pos = (300,732);
}
);
layerId = m01;
shapes = (
{
closed = 1;
nodes = (
(350,0,l),
(350,660,l),
(250,660,l),
(250,0,l)
);
},
{
closed = 1;
nodes = (
(590,652,l),
(590,732,l),
(10,732,l),
(10,652,l)
);
}
);
width = 600;
},
{
anchors = (
{
name = bottom;
pos = (306,0);
},
{
name = center;
pos = (306,392);
},
{
name = top;
pos = (306,744);
}
);
layerId = "E9FB66CC-5D7A-47B2-9A25-A0E8EEF5BB81";
shapes = (
{
closed = 1;
nodes = (
(383,0,l),
(383,636,l),
(231,636,l),
(231,0,l)
);
},
{
closed = 1;
nodes = (
(604,628,l),
(604,744,l),
(8,744,l),
(8,628,l)
);
}
);
width = 612;
}
);
metricRight = "=|";
unicode = 84;
userData = {
KernOnName = T;
};
},
{
glyphname = U;
layers = (
{
anchors = (
{
name = ogonek;
pos = (476,12);
},
{
name = top;
pos = (366,732);
}
);
layerId = m01;
shapes = (
{
closed = 1;
nodes = (
(545,-14,o),
(658,97,o),
(658,272,cs),
(658,732,l),
(564,732,l),
(564,266,ls),
(564,144,o),
(491,72,o),
(368,72,cs),
(246,72,o),
(174,144,o),
(174,266,cs),
(174,732,l),
(74,732,l),
(74,272,ls),
(74,97,o),
(187,-14,o),
(366,-14,cs)
);
}
);
width = 732;
},
{
anchors = (
{
name = ogonek;
pos = (488,12);
},
{
name = top;
pos = (372,744);
}
);
layerId = "E9FB66CC-5D7A-47B2-9A25-A0E8EEF5BB81";
shapes = (
{
closed = 1;
nodes = (
(557,-16,o),
(674,97,o),
(674,276,cs),
(674,744,l),
(530,744,l),
(530,272,ls),
(530,171,o),
(473,112,o),
(376,112,cs),
(278,112,o),
(220,171,o),
(220,272,cs),
(220,744,l),
(68,744,l),
(68,276,ls),
(68,97,o),
(186,-16,o),
(372,-16,cs)
);
}
);
width = 742;
}
);
metricRight = "=|";
unicode = 85;
userData = {
KernOnName = U;
};
},
{
glyphname = Uogonek;
layers = (
{
layerId = m01;
shapes = (
{
closed = 1;
nodes = (
(518,-156,l),
(458,-188,o),
(410,-170,o),
(410,-120,cs),
(410,-60,o),
(476,-8,o),
(524,24,c),
(444,12,l),
(376,-28,o),
(334,-84,o),
(334,-140,cs),
(334,-228,o),
(439,-260,o),
(536,-214,c)
);
},
{
ref = U;
}
);
width = 732;
},
{
background = {
shapes = (
{
closed = 1;
nodes = (
(520,-156,l),
(456,-180,o),
(416,-164,o),
(416,-120,cs),
(416,-78,o),
(449,-32,o),
(500,0,cs),
(511,7,o),
(521,13,o),
(532,20,c),
(426,12,l),
(358,-24,o),
(312,-90,o),
(312,-146,cs),
(312,-242,o),
(416,-276,o),
(544,-224,c)
);
}
);
};
layerId = "E9FB66CC-5D7A-47B2-9A25-A0E8EEF5BB81";
shapes = (
{
closed = 1;
nodes = (
(520,-156,l),
(456,-180,o),
(416,-164,o),
(416,-118,cs),
(416,-66,o),
(472,-12,o),
(532,20,c),
(426,12,l),
(358,-24,o),
(312,-90,o),
(312,-146,cs),
(312,-242,o),
(416,-276,o),
(544,-224,c)
);
},
{
ref = U;
}
);
width = 742;
}
);
metricLeft = U;
metricRight = U;
unicode = 370;
},
{
glyphname = V;
layers = (
{
layerId = m01;
shapes = (
{
closed = 1;
nodes = (
(384,0,l),
(644,732,l),
(546,732,l),
(330,109,l),
(338,109,l),
(118,732,l),
(12,732,l),
(276,0,l)
);
}
);
width = 656;
},
{
layerId = "E9FB66CC-5D7A-47B2-9A25-A0E8EEF5BB81";
shapes = (
{
closed = 1;
nodes = (
(428,0,l),
(680,744,l),
(532,744,l),
(350,176,l),
(358,176,l),
(172,744,l),
(6,744,l),
(260,0,l)
);
}
);
width = 686;
}
);
metricRight = "=|";
unicode = 86;
userData = {
KernOnName = V;
};
},
{
glyphname = W;
layers = (
{
layerId = m01;
shapes = (
{
closed = 1;
nodes = (
(329,0,l),
(485,632,l),
(477,632,l),
(629,0,l),
(745,0,l),
(938,732,l),
(840,732,l),
(687,92,l),
(695,92,l),
(537,732,l),
(429,732,l),
(275,92,l),
(283,92,l),
(116,732,l),
(12,732,l),
(217,0,l)
);
}
);
width = 948;
},
{
layerId = "E9FB66CC-5D7A-47B2-9A25-A0E8EEF5BB81";
shapes = (
{
closed = 1;
nodes = (
(369,0,l),
(496,540,l),
(488,540,l),
(618,0,l),
(788,0,l),
(982,744,l),
(834,744,l),
(704,180,l),
(712,180,l),
(580,744,l),
(416,744,l),
(294,184,l),
(302,184,l),
(162,744,l),
(6,744,l),
(201,0,l)
);
}
);
width = 986;
}
);
metricRight = "=|-2";
unicode = 87;
userData = {
KernOnName = W;
};
},
{
glyphname = X;
layers = (
{
layerId = m01;
shapes = (
{
closed = 1;
nodes = (
(632,0,l),
(138,732,l),
(22,732,l),
(514,0,l)
);
},
{
closed = 1;
nodes = (
(116,0,l),
(324,302,l),
(270,384,l),
(4,0,l)
);
},
{
closed = 1;
nodes = (
(626,732,l),
(516,732,l),
(320,448,l),
(374,366,l)
);
}
);
width = 636;
},
{
layerId = "E9FB66CC-5D7A-47B2-9A25-A0E8EEF5BB81";
shapes = (
{
closed = 1;
nodes = (
(690,0,l),
(196,744,l),
(20,744,l),
(510,0,l)
);
},
{
closed = 1;
nodes = (
(156,0,l),
(342,276,l),
(268,388,l),
(4,0,l)
);
},
{
closed = 1;
nodes = (
(666,744,l),
(516,744,l),
(348,496,l),
(422,382,l)
);
}
);
width = 694;
}
);
metricRight = "=|";
unicode = 88;
userData = {
KernOnName = X;
};
},
{
glyphname = Y;
layers = (
{
anchors = (
{
name = top;
pos = (314,732);
}
);
layerId = m01;
shapes = (
{
closed = 1;
nodes = (
(365,0,l),
(365,291,l),
(614,732,l),
(506,732,l),
(315,376,l),
(323,376,l),
(118,732,l),
(6,732,l),
(265,293,l),
(265,0,l)
);
}
);
width = 620;
},
{
anchors = (
{
name = top;
pos = (334,744);
}
);
layerId = "E9FB66CC-5D7A-47B2-9A25-A0E8EEF5BB81";
shapes = (
{
closed = 1;
nodes = (
(408,0,l),
(408,292,l),
(656,744,l),
(510,744,l),
(340,408,l),
(348,408,l),
(174,744,l),
(0,744,l),
(256,294,l),
(256,0,l)
);
}
);
width = 656;
}
);
metricRight = "=|";
unicode = 89;
userData = {
KernOnName = Y;
};
},
{
glyphname = Z;
layers = (
{
anchors = (
{
name = top;
pos = (284,732);
}
);
layerId = m01;
shapes = (
{
closed = 1;
nodes = (
(552,0,l),
(552,80,l),
(233,80,ls),
(200,80,o),
(166,78,o),
(141,74,c),
(550,670,l),
(550,732,l),
(36,732,l),
(36,653,l),
(342,653,ls),
(375,653,o),
(409,655,o),
(434,659,c),
(24,64,l),
(24,0,l)
);
}
);
width = 576;
},
{
anchors = (
{
name = top;
pos = (304,744);
}
);
layerId = "E9FB66CC-5D7A-47B2-9A25-A0E8EEF5BB81";
shapes = (
{
closed = 1;
nodes = (
(586,0,l),
(586,116,l),
(300,116,ls),
(267,116,o),
(233,114,o),
(208,110,c),
(584,654,l),
(584,744,l),
(39,744,l),
(39,629,l),
(312,629,ls),
(345,629,o),
(379,631,o),
(404,635,c),
(26,92,l),
(26,0,l)
);
}
);
width = 612;
}
);
metricRight = "=|";
unicode = 90;
},
{
color = 8;
glyphname = G.ss01;
layers = (
{
layerId = "E9FB66CC-5D7A-47B2-9A25-A0E8EEF5BB81";
width = 720;
},
{
anchors = (
{
name = bottom;
pos = (392,0);
},
{
name = top;
pos = (380,732);
}
);
layerId = m01;
name = Regular;
shapes = (
{
closed = 1;
nodes = (
(492,-14,o),
(586,56,o),
(598,160,c),
(590,160,l),
(590,0,l),
(680,0,l),
(680,384,l),
(368,384,l),
(368,304,l),
(588,304,l),
(588,160,o),
(510,68,o),
(386,68,cs),
(243,68,o),
(152,185,o),
(152,370,cs),
(152,551,o),
(241,666,o),
(382,666,cs),
(483,666,o),
(560,605,o),
(580,508,c),
(676,532,l),
(648,659,o),
(528,746,o),
(380,746,cs),
(180,746,o),
(44,591,o),
(44,364,cs),
(44,139,o),
(174,-14,o),
(364,-14,cs)
);
}
);
width = 744;
}
);
metricLeft = O;
note = "Versione senza gamba?";
},
{
glyphname = IJ.ss01;
layers = (
{
layerId = m01;
shapes = (
{
closed = 1;
nodes = (
(186,412,l),
(186,732,l),
(88,732,l),
(88,412,l)
);
},
{
pos = (68,0);
ref = J;
}
);
width = 624;
},
{
layerId = "E9FB66CC-5D7A-47B2-9A25-A0E8EEF5BB81";
shapes = (
{
closed = 1;
nodes = (
(230,412,l),
(230,744,l),
(80,744,l),
(80,412,l)
);
},
{
pos = (62,0);
ref = J;
}
);
width = 654;
}
);
metricLeft = I;
metricRight = J;
},
{
glyphname = a;
layers = (
{
anchors = (
{
name = ogonek;
pos = (504,12);
},
{
name = top;
pos = (283,572);
}
);
layerId = m01;
shapes = (
{
closed = 1;
nodes = (
(320,-14,o),
(408,52,o),
(420,160,c),
(412,160,l),
(412,80,o),
(416,36,o),
(428,0,c),
(516,0,l),
(506,40,o),
(502,82,o),
(502,134,cs),
(502,385,ls),
(502,511,o),
(416,586,o),
(286,586,cs),
(171,586,o),
(70,518,o),
(45,436,c),
(132,399,l),
(149,461,o),
(208,510,o),
(284,510,cs),
(361,510,o),
(410,461,o),
(410,379,cs),
(410,296,ls),
(410,152,o),
(336,64,o),
(232,64,cs),
(166,64,o),
(124,100,o),
(124,156,cs),
(124,204,o),
(154,255,o),
(276,272,cs),
(418,292,l),
(418,356,l),
(232,330,ls),
(96,311,o),
(28,240,o),
(28,148,cs),
(28,52,o),
(105,-14,o),
(212,-14,cs)
);
}
);
width = 564;
},
{
anchors = (
{
name = ogonek;
pos = (534,12);
},
{
name = top;
pos = (293,573);
}
);
layerId = "E9FB66CC-5D7A-47B2-9A25-A0E8EEF5BB81";
shapes = (
{
closed = 1;
nodes = (
(311,-16,o),
(396,55,o),
(404,160,c),
(396,160,l),
(396,80,o),
(400,36,o),
(412,0,c),
(546,0,l),
(536,40,o),
(532,82,o),
(532,134,cs),
(532,368,ls),
(532,528,o),
(444,602,o),
(294,602,cs),
(163,602,o),
(70,546,o),
(32,444,c),
(156,400,l),
(177,468,o),
(224,506,o),
(288,506,cs),
(350,506,o),
(392,465,o),
(392,400,cs),
(392,310,ls),
(392,182,o),
(336,86,o),
(250,86,cs),
(200,86,o),
(168,117,o),
(168,166,cs),
(168,222,o),
(212,263,o),
(308,278,cs),
(400,292,l),
(400,374,l),
(272,356,ls),
(100,332,o),
(24,254,o),
(24,152,cs),
(24,52,o),
(98,-16,o),
(204,-16,cs)
);
}
);
width = 584;
}
);
unicode = 97;
userData = {
KernOnName = a;
};
},
{
glyphname = b;
layers = (
{
background = {
shapes = (
{
closed = 1;
nodes = (
(500,-13,o),
(598,107,o),
(598,287,cs),
(598,467,o),
(500,586,o),
(355,586,cs),
(246,586,o),
(162,519,o),
(146,418,c),
(162,418,l),
(162,766,l),
(70,766,l),
(70,0,l),
(160,0,l),
(160,159,l),
(144,159,l),
(160,56,o),
(245,-13,o),
(355,-13,cs)
);
}
);
};
layerId = m01;
shapes = (
{
closed = 1;
nodes = (
(494,-14,o),
(596,108,o),
(596,286,cs),
(596,464,o),
(499,586,o),
(356,586,cs),
(257,586,o),
(174,527,o),
(150,440,c),
(162,440,l),
(162,766,l),
(70,766,l),
(70,0,l),
(160,0,l),
(160,120,l),
(152,120,l),
(181,38,o),
(258,-14,o),
(350,-14,cs)
);
},
{
closed = 1;
nodes = (
(227,62,o),
(162,148,o),
(162,284,cs),
(162,420,o),
(228,506,o),
(332,506,cs),
(435,506,o),
(500,420,o),
(500,284,cs),
(500,148,o),
(434,62,o),
(330,62,cs)
);
}
);
width = 628;
},
{
layerId = "E9FB66CC-5D7A-47B2-9A25-A0E8EEF5BB81";
shapes = (
{
closed = 1;
nodes = (
(528,-16,o),
(624,110,o),
(624,294,cs),
(624,477,o),
(527,602,o),
(386,602,cs),
(291,602,o),
(214,545,o),
(196,462,c),
(204,462,l),
(204,766,l),
(64,766,l),
(64,0,l),
(202,0,l),
(202,112,l),
(194,112,l),
(214,36,o),
(292,-16,o),
(384,-16,cs)
);
},
{
closed = 1;
nodes = (
(256,84,o),
(204,165,o),
(204,292,cs),
(204,419,o),
(257,500,o),
(341,500,cs),
(424,500,o),
(476,419,o),
(476,292,cs),
(476,165,o),
(423,84,o),
(339,84,cs)
);
}
);
width = 652;
}
);
metricLeft = l;
metricRight = o;
unicode = 98;
},
{
glyphname = c;
layers = (
{
anchors = (
{
name = bottom;
pos = (292,0);
},
{
name = top;
pos = (294,572);
}
);
layerId = m01;
shapes = (
{
closed = 1;
nodes = (
(425,-14,o),
(523,66,o),
(540,184,c),
(450,204,l),
(438,118,o),
(379,64,o),
(298,64,cs),
(195,64,o),
(129,151,o),
(129,288,cs),
(129,424,o),
(194,510,o),
(296,510,cs),
(374,510,o),
(430,460,o),
(444,380,c),
(532,404,l),
(511,512,o),
(415,586,o),
(294,586,cs),
(138,586,o),
(32,464,o),
(32,286,cs),
(32,108,o),
(140,-14,o),
(298,-14,cs)
);
}
);
width = 560;
},
{
anchors = (
{
name = bottom;
pos = (300,0);
},
{
name = top;
pos = (302,586);
}
);
layerId = "E9FB66CC-5D7A-47B2-9A25-A0E8EEF5BB81";
shapes = (
{
closed = 1;
nodes = (
(440,-16,o),
(544,68,o),
(560,188,c),
(420,224,l),
(413,138,o),
(369,84,o),
(306,84,cs),
(227,84,o),
(177,166,o),
(177,296,cs),
(177,423,o),
(226,504,o),
(304,504,cs),
(363,504,o),
(406,455,o),
(414,378,c),
(552,412,l),
(529,525,o),
(427,602,o),
(302,602,cs),
(139,602,o),
(28,477,o),
(28,293,cs),
(28,109,o),
(140,-16,o),
(304,-16,cs)
);
}
);
width = 576;
}
);
metricLeft = o;
unicode = 99;
userData = {
KernOnName = c;
};
},
{
glyphname = d;
layers = (
{
anchors = (
{
name = topright;
pos = (560,572);
}
);
layerId = m01;
shapes = (
{
closed = 1;
nodes = (
(382,-14,o),
(462,45,o),
(478,132,c),
(470,132,l),
(470,0,l),
(560,0,l),
(560,766,l),
(468,766,l),
(468,452,l),
(476,452,l),
(451,532,o),
(369,586,o),
(272,586,cs),
(129,586,o),
(32,465,o),
(32,288,cs),
(32,109,o),
(133,-14,o),
(280,-14,cs)
);
},
{
closed = 1;
nodes = (
(194,66,o),
(128,152,o),
(128,287,cs),
(128,422,o),
(194,508,o),
(298,508,cs),
(402,508,o),
(468,422,o),
(468,287,cs),
(468,152,o),
(402,66,o),
(298,66,cs)
);
}
);
width = 630;
},
{
anchors = (
{
name = topright;
pos = (588,586);
}
);
layerId = "E9FB66CC-5D7A-47B2-9A25-A0E8EEF5BB81";
shapes = (
{
closed = 1;
nodes = (
(363,-16,o),
(440,41,o),
(458,124,c),
(450,124,l),
(450,0,l),
(588,0,l),
(588,766,l),
(448,766,l),
(448,476,l),
(456,476,l),
(436,551,o),
(361,602,o),
(270,602,cs),
(126,602,o),
(28,477,o),
(28,294,cs),
(28,110,o),
(125,-16,o),
(268,-16,cs)
);
},
{
closed = 1;
nodes = (
(228,88,o),
(176,168,o),
(176,295,cs),
(176,422,o),
(229,502,o),
(313,502,cs),
(396,502,o),
(448,422,o),
(448,295,cs),
(448,168,o),
(395,88,o),
(311,88,cs)
);
}
);
width = 652;
}
);
metricLeft = o;
metricRight = l;
unicode = 100;
userData = {
KernOnName = d;
};
},
{
glyphname = dcroat;
layers = (
{
layerId = m01;
shapes = (
{
ref = d;
},
{
closed = 1;
nodes = (
(626,652,l),
(626,716,l),
(302,716,l),
(302,652,l)
);
}
);
width = 632;
},
{
layerId = "E9FB66CC-5D7A-47B2-9A25-A0E8EEF5BB81";
shapes = (
{
ref = d;
},
{
closed = 1;
nodes = (
(644,632,l),
(644,712,l),
(312,712,l),
(312,632,l)
);
}
);
width = 654;
}
);
metricLeft = o;
unicode = 273;
},
{
color = 3;
glyphname = eth;
layers = (
{
layerId = m01;
shapes = (
{
closed = 1;
nodes = (
(456,-14,o),
(566,100,o),
(566,292,cs),
(566,539,o),
(415,729,o),
(164,804,c),
(132,744,l),
(283,701,o),
(391,604,o),
(436,472,c),
(444,472,l),
(420,520,o),
(356,548,o),
(282,548,cs),
(134,548,o),
(32,435,o),
(32,270,cs),
(32,101,o),
(141,-14,o),
(300,-14,cs)
);
},
{
closed = 1;
nodes = (
(196,64,o),
(128,143,o),
(128,268,cs),
(128,393,o),
(194,472,o),
(298,472,cs),
(403,472,o),
(470,393,o),
(470,268,cs),
(470,143,o),
(405,64,o),
(302,64,cs)
);
},
{
closed = 1;
nodes = (
(492,716,l),
(466,782,l),
(162,664,l),
(188,598,l)
);
}
);
width = 606;
},
{
layerId = "E9FB66CC-5D7A-47B2-9A25-A0E8EEF5BB81";
shapes = (
{
closed = 1;
nodes = (
(470,-16,o),
(604,98,o),
(604,304,cs),
(604,552,o),
(448,752,o),
(176,828,c),
(116,752,l),
(264,720,o),
(369,633,o),
(417,516,c),
(425,516,l),
(393,542,o),
(344,557,o),
(292,557,cs),
(140,557,o),
(28,441,o),
(28,272,cs),
(28,101,o),
(142,-16,o),
(308,-16,cs)
);
},
{
closed = 1;
nodes = (
(232,82,o),
(176,155,o),
(176,271,cs),
(176,387,o),
(231,460,o),
(316,460,cs),
(401,460,o),
(456,387,o),
(456,271,cs),
(456,155,o),
(402,82,o),
(318,82,cs)
);
},
{
closed = 1;
nodes = (
(538,712,l),
(502,800,l),
(170,672,l),
(206,584,l)
);
}
);
width = 638;
}
);
metricLeft = o;
unicode = 240;
},
{
glyphname = e;
layers = (
{
anchors = (
{
name = ogonek;
pos = (384,12);
},
{
name = top;
pos = (292,572);
}
);
layerId = m01;
shapes = (
{
closed = 1;
nodes = (
(420,-14,o),
(518,58,o),
(544,166,c),
(456,190,l),
(440,113,o),
(380,64,o),
(302,64,cs),
(196,64,o),
(128,152,o),
(128,290,cs),
(128,425,o),
(193,510,o),
(296,510,cs),
(388,510,o),
(449,440,o),
(450,332,c),
(458,340,l),
(120,340,l),
(120,266,l),
(545,266,l),
(557,456,o),
(456,586,o),
(296,586,cs),
(139,586,o),
(32,465,o),
(32,288,cs),
(32,109,o),
(141,-14,o),
(300,-14,cs)
);
}
);
width = 580;
},
{
anchors = (
{
name = ogonek;
pos = (406,12);
},
{
name = top;
pos = (304,586);
}
);
layerId = "E9FB66CC-5D7A-47B2-9A25-A0E8EEF5BB81";
shapes = (
{
closed = 1;
nodes = (
(438,-16,o),
(542,55,o),
(568,160,c),
(442,204,l),
(428,131,o),
(380,84,o),
(316,84,cs),
(230,84,o),
(176,167,o),
(176,298,cs),
(176,425,o),
(227,506,o),
(306,506,cs),
(375,506,o),
(422,444,o),
(422,346,c),
(430,354,l),
(168,354,l),
(168,266,l),
(568,266,l),
(584,478,o),
(479,602,o),
(304,602,cs),
(138,602,o),
(28,480,o),
(28,296,cs),
(28,109,o),
(142,-16,o),
(312,-16,cs)
);
}
);
width = 600;
}
);
metricLeft = o;
unicode = 101;
},
{
glyphname = eogonek;
layers = (
{
layerId = m01;
shapes = (
{
closed = 1;
nodes = (
(426,-156,l),
(366,-188,o),
(318,-168,o),
(318,-120,cs),
(318,-72,o),
(366,-20,o),
(418,12,c),
(350,12,l),
(282,-28,o),
(242,-84,o),
(242,-140,cs),
(242,-228,o),
(347,-260,o),
(444,-214,c)
);
},
{
ref = e;
}
);
width = 580;
},
{
layerId = "E9FB66CC-5D7A-47B2-9A25-A0E8EEF5BB81";
shapes = (
{
closed = 1;
nodes = (
(438,-156,l),
(374,-180,o),
(334,-162,o),
(334,-116,cs),
(334,-64,o),
(385,-12,o),
(441,12,c),
(344,12,l),
(276,-24,o),
(230,-90,o),
(230,-146,cs),
(230,-242,o),
(334,-276,o),
(462,-224,c)
);
},
{
ref = e;
}
);
width = 600;
}
);
unicode = 281;
},
{
glyphname = schwa;
layers = (
{
background = {
shapes = (
{
closed = 1;
nodes = (
(166,586,o),
(68,514,o),
(42,406,c),
(130,382,l),
(146,459,o),
(206,508,o),
(284,508,cs),
(390,508,o),
(458,420,o),
(458,282,cs),
(458,147,o),
(393,62,o),
(290,62,cs),
(198,62,o),
(137,132,o),
(136,240,c),
(128,232,l),
(466,232,l),
(466,306,l),
(41,306,l),
(29,116,o),
(130,-14,o),
(290,-14,cs),
(447,-14,o),
(554,107,o),
(554,284,cs),
(554,463,o),
(445,586,o),
(286,586,cs)
);
}
);
};
layerId = m01;
shapes = (
{
closed = 1;
nodes = (
(447,-14,o),
(554,107,o),
(554,284,cs),
(554,463,o),
(444,586,o),
(284,586,cs),
(168,586,o),
(70,519,o),
(42,420,c),
(128,392,l),
(144,464,o),
(204,510,o),
(282,510,cs),
(390,510,o),
(458,421,o),
(458,282,cs),
(458,149,o),
(393,64,o),
(290,64,cs),
(192,64,o),
(130,134,o),
(130,245,c),
(122,237,l),
(466,237,l),
(466,312,l),
(36,312,l),
(20,118,o),
(123,-14,o),
(290,-14,cs)
);
}
);
width = 586;
},
{
layerId = "E9FB66CC-5D7A-47B2-9A25-A0E8EEF5BB81";
shapes = (
{
closed = 1;
nodes = (
(466,-16,o),
(576,106,o),
(576,290,cs),
(576,475,o),
(462,602,o),
(296,602,cs),
(174,602,o),
(72,533,o),
(44,432,c),
(172,384,l),
(184,457,o),
(231,504,o),
(294,504,cs),
(376,504,o),
(428,420,o),
(428,288,cs),
(428,163,o),
(377,83,o),
(296,83,cs),
(223,83,o),
(176,142,o),
(176,236,c),
(168,228,l),
(436,228,l),
(436,315,l),
(32,315,l),
(16,115,o),
(122,-16,o),
(298,-16,cs)
);
}
);
width = 604;
}
);
metricRight = o;
unicode = 601;
},
{
glyphname = f;
layers = (
{
layerId = m01;
shapes = (
{
closed = 1;
nodes = (
(178,0,l),
(178,632,ls),
(178,710,o),
(244,714,o),
(304,696,c),
(320,770,l),
(201,802,o),
(86,775,o),
(86,628,cs),
(86,0,l)
);
},
{
closed = 1;
nodes = (
(288,500,l),
(288,572,l),
(8,572,l),
(8,500,l)
);
}
);
width = 308;
},
{
layerId = "E9FB66CC-5D7A-47B2-9A25-A0E8EEF5BB81";
shapes = (
{
closed = 1;
nodes = (
(222,0,l),
(222,620,ls),
(222,680,o),
(261,702,o),
(346,684,c),
(362,780,l),
(186,820,o),
(82,760,o),
(82,616,cs),
(82,0,l)
);
},
{
closed = 1;
nodes = (
(340,496,l),
(340,586,l),
(2,586,l),
(2,496,l)
);
}
);
width = 356;
}
);
note = "Controlla curva";
unicode = 102;
},
{
glyphname = g;
layers = (
{
anchors = (
{
name = top;
pos = (304,572);
}
);
layerId = m01;
name = Regular;
shapes = (
{
closed = 1;
nodes = (
(458,-248,o),
(558,-160,o),
(558,-22,cs),
(558,572,l),
(468,572,l),
(468,448,l),
(476,448,l),
(453,530,o),
(371,586,o),
(274,586,cs),
(131,586,o),
(34,466,o),
(34,290,cs),
(34,118,o),
(133,0,o),
(278,0,cs),
(382,0,o),
(463,62,o),
(478,152,c),
(466,152,l),
(466,-32,ls),
(466,-118,o),
(405,-169,o),
(302,-169,cs),
(211,-169,o),
(147,-130,o),
(130,-64,c),
(38,-98,l),
(72,-190,o),
(174,-248,o),
(301,-248,cs)
);
},
{
closed = 1;
nodes = (
(195,76,o),
(130,160,o),
(130,292,cs),
(130,424,o),
(195,508,o),
(298,508,cs),
(401,508,o),
(466,424,o),
(466,292,cs),
(466,160,o),
(401,76,o),
(298,76,cs)
);
}
);
width = 628;
},
{
anchors = (
{
name = top;
pos = (318,586);
}
);
layerId = "E9FB66CC-5D7A-47B2-9A25-A0E8EEF5BB81";
shapes = (
{
closed = 1;
nodes = (
(474,-250,o),
(582,-164,o),
(582,8,cs),
(582,586,l),
(444,586,l),
(444,476,l),
(452,476,l),
(434,552,o),
(358,602,o),
(268,602,cs),
(128,602,o),
(30,479,o),
(30,300,cs),
(30,122,o),
(129,0,o),
(266,0,cs),
(358,0,o),
(433,55,o),
(450,136,c),
(442,136,l),
(442,-8,ls),
(442,-100,o),
(396,-152,o),
(318,-152,cs),
(249,-152,o),
(198,-113,o),
(182,-48,c),
(42,-100,l),
(78,-192,o),
(182,-250,o),
(314,-250,cs)
);
},
{
closed = 1;
nodes = (
(229,100,o),
(178,178,o),
(178,302,cs),
(178,426,o),
(230,504,o),
(311,504,cs),
(391,504,o),
(442,426,o),
(442,302,cs),
(442,178,o),
(390,100,o),
(309,100,cs)
);
}
);
width = 640;
}
);
metricRight = idotless;
unicode = 103;
userData = {
KernOnName = g;
};
},
{
glyphname = h;
layers = (
{
layerId = m01;
shapes = (
{
closed = 1;
nodes = (
(162,0,l),
(162,260,ls),
(162,415,o),
(222,506,o),
(323,506,cs),
(404,506,o),
(452,449,o),
(452,352,cs),
(452,0,l),
(544,0,l),
(544,384,ls),
(544,506,o),
(467,586,o),
(351,586,cs),
(247,586,o),
(168,520,o),
(154,416,c),
(162,416,l),
(162,766,l),
(70,766,l),
(70,0,l)
);
}
);
width = 606;
},
{
layerId = "E9FB66CC-5D7A-47B2-9A25-A0E8EEF5BB81";
shapes = (
{
closed = 1;
nodes = (
(204,0,l),
(204,280,ls),
(204,420,o),
(255,502,o),
(342,502,cs),
(407,502,o),
(446,454,o),
(446,374,cs),
(446,0,l),
(586,0,l),
(586,396,ls),
(586,522,o),
(512,602,o),
(396,602,cs),
(292,602,o),
(214,536,o),
(196,440,c),
(204,440,l),
(204,766,l),
(64,766,l),
(64,0,l)
);
}
);
width = 638;
}
);
metricLeft = l;
metricRight = n;
unicode = 104;
},
{
glyphname = hbar;
layers = (
{
layerId = m01;
shapes = (
{
ref = h;
},
{
closed = 1;
nodes = (
(324,652,l),
(324,716,l),
(12,716,l),
(12,652,l)
);
}
);
width = 606;
},
{
layerId = "E9FB66CC-5D7A-47B2-9A25-A0E8EEF5BB81";
shapes = (
{
pos = (2,0);
ref = h;
},
{
closed = 1;
nodes = (
(332,632,l),
(332,712,l),
(8,712,l),
(8,632,l)
);
}
);
width = 640;
}
);
metricRight = n;
unicode = 295;
},
{
glyphname = idotless;
layers = (
{
anchors = (
{
name = bottom;
pos = (116,0);
},
{
name = ogonek;
pos = (150,12);
},
{
name = top;
pos = (116,572);
}
);
layerId = m01;
shapes = (
{
closed = 1;
nodes = (
(162,0,l),
(162,572,l),
(70,572,l),
(70,0,l)
);
}
);
width = 232;
},
{
anchors = (
{
name = bottom;
pos = (128,0);
},
{
name = ogonek;
pos = (186,12);
},
{
name = top;
pos = (128,586);
}
);
layerId = "E9FB66CC-5D7A-47B2-9A25-A0E8EEF5BB81";
shapes = (
{
closed = 1;
nodes = (
(198,0,l),
(198,586,l),
(58,586,l),
(58,0,l)
);
}
);
width = 256;
}
);
metricRight = "=|";
unicode = 305;
},
{
color = 3;
glyphname = idieresis;
layers = (
{
layerId = m01;
shapes = (
{
ref = idotless;
},
{
pos = (-94,0);
ref = dieresiscomb;
}
);
width = 232;
},
{
layerId = "E9FB66CC-5D7A-47B2-9A25-A0E8EEF5BB81";
shapes = (
{
ref = idotless;
},
{
pos = (-112,0);
ref = dieresiscomb;
}
);
width = 256;
},
{
associatedMasterId = m01;
layerId = "433D1C27-4932-4BB5-9132-5DAD4D053368";
name = "6 ago 23, 10:41";
shapes = (
{
closed = 1;
nodes = (
(82,636,l),
(82,730,l),
(-4,730,l),
(-4,636,l)
);
},
{
closed = 1;
nodes = (
(249,636,l),
(249,730,l),
(164,730,l),
(164,636,l)
);
},
{
pos = (7,0);
ref = idotless;
}
);
width = 245;
}
);
unicode = 239;
},
{
glyphname = jdotless;
layers = (
{
anchors = (
{
name = top;
pos = (125,572);
}
);
layerId = m01;
shapes = (
{
closed = 1;
nodes = (
(85,-274,o),
(170,-229,o),
(170,-110,cs),
(170,572,l),
(78,572,l),
(78,-108,ls),
(78,-167,o),
(29,-186,o),
(-48,-156,c),
(-60,-232,l)
);
}
);
width = 240;
},
{
anchors = (
{
name = top;
pos = (140,586);
}
);
layerId = "E9FB66CC-5D7A-47B2-9A25-A0E8EEF5BB81";
shapes = (
{
closed = 1;
nodes = (
(104,-280,o),
(210,-230,o),
(210,-100,cs),
(210,586,l),
(70,586,l),
(70,-76,ls),
(70,-132,o),
(26,-154,o),
(-54,-126,c),
(-68,-232,l)
);
}
);
width = 268;
}
);
metricRight = idotless;
unicode = 567;
},
{
color = 3;
glyphname = k;
layers = (
{
anchors = (
{
name = bottom;
pos = (309,0);
}
);
layerId = m01;
shapes = (
{
closed = 1;
nodes = (
(162,0,l),
(162,212,l),
(154,196,l),
(528,572,l),
(418,572,l),
(154,304,l),
(162,304,l),
(162,766,l),
(70,766,l),
(70,0,l)
);
},
{
closed = 1;
nodes = (
(548,0,l),
(300,356,l),
(240,296,l),
(436,0,l)
);
}
);
width = 544;
},
{
anchors = (
{
name = bottom;
pos = (323,0);
}
);
layerId = "E9FB66CC-5D7A-47B2-9A25-A0E8EEF5BB81";
shapes = (
{
closed = 1;
nodes = (
(204,0,l),
(204,180,l),
(196,164,l),
(576,586,l),
(428,586,l),
(196,328,l),
(204,328,l),
(204,766,l),
(64,766,l),
(64,0,l)
);
},
{
closed = 1;
nodes = (
(604,0,l),
(360,372,l),
(268,270,l),
(436,0,l)
);
}
);
width = 594;
}
);
metricLeft = l;
unicode = 107;
userData = {
KernOnName = k;
};
},
{
glyphname = kgreenlandic;
layers = (
{
layerId = m01;
shapes = (
{
closed = 1;
nodes = (
(162,0,l),
(162,200,l),
(154,184,l),
(536,572,l),
(426,572,l),
(154,294,l),
(162,294,l),
(162,572,l),
(70,572,l),
(70,0,l)
);
},
{
closed = 1;
nodes = (
(560,0,l),
(300,356,l),
(240,292,l),
(448,0,l)
);
}
);
width = 556;
},
{
layerId = "E9FB66CC-5D7A-47B2-9A25-A0E8EEF5BB81";
shapes = (
{
closed = 1;
nodes = (
(198,0,l),
(198,180,l),
(190,164,l),
(574,586,l),
(424,586,l),
(190,332,l),
(198,332,l),
(198,586,l),
(58,586,l),
(58,0,l)
);
},
{
closed = 1;
nodes = (
(610,0,l),
(360,372,l),
(268,270,l),
(440,0,l)
);
}
);
width = 598;
}
);
metricLeft = idotless;
unicode = 312;
},
{
glyphname = l;
layers = (
{
anchors = (
{
name = bottom;
pos = (116,0);
},
{
name = top;
pos = (118,744);
},
{
name = topright;
pos = (162,572);
}
);
layerId = m01;
shapes = (
{
closed = 1;
nodes = (
(162,0,l),
(162,766,l),
(70,766,l),
(70,0,l)
);
}
);
width = 232;
},
{
anchors = (
{
name = bottom;
pos = (134,0);
},
{
name = top;
pos = (136,744);
},
{
name = topright;
pos = (204,586);
}
);
layerId = "E9FB66CC-5D7A-47B2-9A25-A0E8EEF5BB81";
shapes = (
{
closed = 1;
nodes = (
(204,0,l),
(204,766,l),
(64,766,l),
(64,0,l)
);
}
);
width = 268;
}
);
metricRight = "=|";
unicode = 108;
userData = {
KernOnName = l;
};
},
{
glyphname = ldot;
layers = (
{
layerId = m01;
shapes = (
{
closed = 1;
nodes = (
(322,349,l),
(322,451,l),
(222,451,l),
(222,349,l)
);
},
{
ref = l;
}
);
width = 332;
},
{
layerId = "E9FB66CC-5D7A-47B2-9A25-A0E8EEF5BB81";
shapes = (
{
closed = 1;
nodes = (
(398,322,l),
(398,462,l),
(254,462,l),
(254,322,l)
);
},
{
alignment = -1;
ref = l;
}
);
width = 406;
}
);
metricLeft = l;
unicode = 320;
},
{
color = 3;
glyphname = lslash;
layers = (
{
layerId = m01;
shapes = (
{
closed = 1;
nodes = (
(312,430,l),
(286,502,l),
(0,400,l),
(28,326,l)
);
},
{
pos = (38,0);
ref = l;
}
);
width = 312;
},
{
layerId = "E9FB66CC-5D7A-47B2-9A25-A0E8EEF5BB81";
shapes = (
{
closed = 1;
nodes = (
(340,410,l),
(308,512,l),
(-4,412,l),
(30,308,l)
);
},
{
pos = (32,0);
ref = l;
}
);
width = 336;
},
{
associatedMasterId = m01;
layerId = "98CDF1AC-8AF7-4DAB-9BDB-8F698362E116";
name = "15 apr 23, 20:38";
shapes = (
{
pos = (29,0);
ref = l;
},
{
closed = 1;
nodes = (
(310,477,l),
(280,540,l),
(-8,391,l),
(23,328,l)
);
}
);
width = 301;
}
);
metricRight = "=|";
unicode = 322;
},
{
glyphname = m;
layers = (
{
layerId = m01;
shapes = (
{
closed = 1;
nodes = (
(162,0,l),
(162,276,ls),
(162,421,o),
(214,506,o),
(302,506,cs),
(372,506,o),
(413,454,o),
(413,366,cs),
(413,0,l),
(504,0,l),
(504,276,ls),
(504,421,o),
(557,506,o),
(646,506,cs),
(716,506,o),
(757,454,o),
(757,366,cs),
(757,0,l),
(848,0,l),
(848,380,ls),
(848,506,o),
(778,586,o),
(668,586,cs),
(570,586,o),
(500,525,o),
(488,428,c),
(496,428,l),
(488,525,o),
(423,586,o),
(328,586,cs),
(232,586,o),
(164,525,o),
(152,428,c),
(160,428,l),
(160,572,l),
(70,572,l),
(70,0,l)
);
}
);
width = 910;
},
{
layerId = "E9FB66CC-5D7A-47B2-9A25-A0E8EEF5BB81";
shapes = (
{
closed = 1;
nodes = (
(198,0,l),
(198,328,ls),
(198,439,o),
(239,504,o),
(308,504,cs),
(362,504,o),
(394,464,o),
(394,396,cs),
(394,0,l),
(534,0,l),
(534,328,ls),
(534,439,o),
(575,504,o),
(644,504,cs),
(699,504,o),
(731,464,o),
(731,396,cs),
(731,0,l),
(870,0,l),
(870,396,ls),
(870,522,o),
(800,602,o),
(690,602,cs),
(594,602,o),
(525,542,o),
(513,448,c),
(522,448,l),
(513,542,o),
(449,602,o),
(358,602,cs),
(266,602,o),
(200,542,o),
(188,448,c),
(196,448,l),
(196,586,l),
(58,586,l),
(58,0,l)
);
}
);
width = 922;
}
);
metricLeft = idotless;
metricRight = n;
unicode = 109;
},
{
glyphname = n;
layers = (
{
anchors = (
{
name = bottom;
pos = (316,0);
},
{
name = top;
pos = (310,572);
}
);
layerId = m01;
shapes = (
{
closed = 1;
nodes = (
(162,0,l),
(162,260,ls),
(162,415,o),
(222,506,o),
(323,506,cs),
(404,506,o),
(452,449,o),
(452,352,cs),
(452,0,l),
(544,0,l),
(544,384,ls),
(544,506,o),
(467,586,o),
(351,586,cs),
(247,586,o),
(166,520,o),
(152,416,c),
(160,416,l),
(160,572,l),
(70,572,l),
(70,0,l)
);
}
);
width = 606;
},
{
anchors = (
{
name = bottom;
pos = (330,0);
},
{
name = top;
pos = (326,586);
}
);
layerId = "E9FB66CC-5D7A-47B2-9A25-A0E8EEF5BB81";
shapes = (
{
closed = 1;
nodes = (
(198,0,l),
(198,280,ls),
(198,420,o),
(249,502,o),
(336,502,cs),
(401,502,o),
(440,454,o),
(440,374,cs),
(440,0,l),
(580,0,l),
(580,396,ls),
(580,522,o),
(506,602,o),
(390,602,cs),
(286,602,o),
(206,536,o),
(188,440,c),
(196,440,l),
(196,586,l),
(58,586,l),
(58,0,l)
);
}
);
width = 632;
}
);
metricLeft = idotless;
unicode = 110;
userData = {
KernOnName = n;
};
},
{
glyphname = eng;
layers = (
{
layerId = m01;
shapes = (
{
closed = 1;
nodes = (
(458,-274,o),
(543,-229,o),
(543,-110,cs),
(543,381,ls),
(543,504,o),
(466,586,o),
(351,586,cs),
(246,586,o),
(169,519,o),
(152,418,c),
(160,418,l),
(160,573,l),
(70,573,l),
(70,0,l),
(162,0,l),
(162,272,ls),
(162,417,o),
(224,506,o),
(323,506,cs),
(403,506,o),
(451,448,o),
(451,351,c),
(451,-108,l),
(451,-167,o),
(402,-186,o),
(325,-156,c),
(313,-232,l)
);
}
);
width = 605;
},
{
layerId = "E9FB66CC-5D7A-47B2-9A25-A0E8EEF5BB81";
shapes = (
{
closed = 1;
nodes = (
(474,-280,o),
(580,-230,o),
(580,-100,cs),
(580,396,ls),
(580,522,o),
(506,602,o),
(390,602,cs),
(286,602,o),
(206,536,o),
(188,440,c),
(196,440,l),
(196,586,l),
(58,586,l),
(58,0,l),
(198,0,l),
(198,280,ls),
(198,420,o),
(249,502,o),
(336,502,cs),
(401,502,o),
(440,454,o),
(440,374,cs),
(440,-76,ls),
(440,-132,o),
(396,-154,o),
(316,-126,c),
(302,-232,l)
);
}
);
width = 632;
}
);
metricLeft = idotless;
metricRight = n;
unicode = 331;
},
{
glyphname = o;
layers = (
{
anchors = (
{
name = center;
pos = (298,284);
},
{
name = top;
pos = (297,572);
}
);
layerId = m01;
shapes = (
{
closed = 1;
nodes = (
(456,-14,o),
(564,108,o),
(564,287,cs),
(564,465,o),
(456,586,o),
(298,586,cs),
(140,586,o),
(32,465,o),
(32,287,cs),
(32,108,o),
(140,-14,o),
(298,-14,cs)
);
},
{
closed = 1;
nodes = (
(194,64,o),
(128,151,o),
(128,288,cs),
(128,424,o),
(194,510,o),
(298,510,cs),
(402,510,o),
(468,424,o),
(468,288,cs),
(468,151,o),
(402,64,o),
(298,64,cs)
);
}
);
width = 596;
},
{
anchors = (
{
name = center;
pos = (310,292);
},
{
name = top;
pos = (310,586);
}
);
layerId = "E9FB66CC-5D7A-47B2-9A25-A0E8EEF5BB81";
shapes = (
{
closed = 1;
nodes = (
(478,-16,o),
(592,110,o),
(592,294,cs),
(592,477,o),
(478,602,o),
(310,602,cs),
(142,602,o),
(28,477,o),
(28,294,cs),
(28,110,o),
(142,-16,o),
(310,-16,cs)
);
},
{
closed = 1;
nodes = (
(228,84,o),
(176,166,o),
(176,295,cs),
(176,423,o),
(228,504,o),
(310,504,cs),
(392,504,o),
(444,423,o),
(444,295,cs),
(444,166,o),
(392,84,o),
(310,84,cs)
);
}
);
width = 620;
}
);
metricRight = "=|";
unicode = 111;
userData = {
KernOnName = o;
};
},
{
color = 3;
glyphname = oslash;
layers = (
{
layerId = m01;
shapes = (
{
ref = o;
},
{
pos = (-48,-2);
ref = slashshortcomb;
}
);
width = 596;
},
{
layerId = "E9FB66CC-5D7A-47B2-9A25-A0E8EEF5BB81";
shapes = (
{
ref = o;
},
{
pos = (-52,0);
ref = slashshortcomb;
}
);
width = 620;
},
{
associatedMasterId = m01;
layerId = "CE548E82-843A-4479-A657-D28BC794D090";
name = "15 apr 23, 17:34";
shapes = (
{
closed = 1;
nodes = (
(478,615,l),
(413,642,l),
(127,-40,l),
(194,-69,l)
);
},
{
pos = (1,0);
ref = o;
}
);
width = 605;
}
);
metricLeft = o;
metricRight = o;
unicode = 248;
},
{
glyphname = oe;
layers = (
{
background = {
shapes = (
{
closed = 1;
nodes = (
(387,-14,o),
(463,30,o),
(508,103,c),
(554,30,o),
(630,-14,o),
(724,-14,cs),
(841,-14,o),
(938,59,o),
(964,166,c),
(876,190,l),
(860,113,o),
(802,64,o),
(726,64,cs),
(622,64,o),
(556,152,o),
(556,290,cs),
(556,425,o),
(620,510,o),
(720,510,cs),
(809,510,o),
(866,444,o),
(870,340,c),
(548,340,l),
(548,266,l),
(965,266,l),
(977,456,o),
(878,586,o),
(720,586,cs),
(628,586,o),
(553,543,o),
(508,471,c),
(462,543,o),
(387,586,o),
(294,586,cs),
(138,586,o),
(32,465,o),
(32,287,cs),
(32,108,o),
(138,-14,o),
(294,-14,cs)
);
},
{
closed = 1;
nodes = (
(193,64,o),
(128,151,o),
(128,288,cs),
(128,424,o),
(193,510,o),
(294,510,cs),
(395,510,o),
(460,424,o),
(460,288,cs),
(460,151,o),
(395,64,o),
(294,64,cs)
);
}
);
};
layerId = m01;
shapes = (
{
closed = 1;
nodes = (
(387,-14,o),
(470,34,o),
(510,112,c),
(502,112,l),
(542,34,o),
(630,-14,o),
(724,-14,cs),
(841,-14,o),
(938,59,o),
(964,166,c),
(876,190,l),
(860,113,o),
(802,64,o),
(726,64,cs),
(622,64,o),
(556,152,o),
(556,290,cs),
(556,425,o),
(620,510,o),
(720,510,cs),
(809,510,o),
(868,440,o),
(870,332,c),
(878,340,l),
(548,340,l),
(548,266,l),
(965,266,l),
(977,456,o),
(878,586,o),
(720,586,cs),
(626,586,o),
(544,538,o),
(504,460,c),
(512,460,l),
(472,540,o),
(388,586,o),
(292,586,cs),
(137,586,o),
(32,465,o),
(32,287,cs),
(32,108,o),
(138,-14,o),
(294,-14,cs)
);
},
{
closed = 1;
nodes = (
(193,64,o),
(128,151,o),
(128,288,cs),
(128,424,o),
(193,510,o),
(294,510,cs),
(395,510,o),
(460,424,o),
(460,288,cs),
(460,151,o),
(395,64,o),
(294,64,cs)
);
}
);
width = 1000;
},
{
layerId = "E9FB66CC-5D7A-47B2-9A25-A0E8EEF5BB81";
shapes = (
{
closed = 1;
nodes = (
(394,-16,o),
(472,26,o),
(512,100,c),
(504,100,l),
(544,28,o),
(626,-16,o),
(720,-16,cs),
(843,-16,o),
(944,55,o),
(970,160,c),
(844,204,l),
(832,130,o),
(786,84,o),
(724,84,cs),
(640,84,o),
(586,168,o),
(586,300,cs),
(586,426,o),
(634,506,o),
(710,506,cs),
(776,506,o),
(820,444,o),
(824,346,c),
(832,354,l),
(578,354,l),
(578,266,l),
(970,266,l),
(986,474,o),
(874,602,o),
(714,602,cs),
(622,602,o),
(550,558,o),
(506,486,c),
(514,486,l),
(474,558,o),
(392,602,o),
(302,602,cs),
(140,602,o),
(28,477,o),
(28,294,cs),
(28,110,o),
(140,-16,o),
(302,-16,cs)
);
},
{
closed = 1;
nodes = (
(227,84,o),
(176,166,o),
(176,294,cs),
(176,422,o),
(227,504,o),
(306,504,cs),
(385,504,o),
(436,422,o),
(436,294,cs),
(436,166,o),
(385,84,o),
(306,84,cs)
);
}
);
width = 1002;
},
{
associatedMasterId = m01;
layerId = "90C3FB57-22D7-42C5-9B12-4DC76C2B45B3";
name = "6 mag 23, 18:50";
shapes = (
{
closed = 1;
nodes = (
(450,-14,o),
(556,108,o),
(556,287,cs),
(556,465,o),
(450,586,o),
(294,586,cs),
(138,586,o),
(32,465,o),
(32,287,cs),
(32,108,o),
(138,-14,o),
(294,-14,cs)
);
},
{
closed = 1;
nodes = (
(193,64,o),
(128,151,o),
(128,288,cs),
(128,424,o),
(193,510,o),
(294,510,cs),
(395,510,o),
(460,424,o),
(460,288,cs),
(460,151,o),
(395,64,o),
(294,64,cs)
);
},
{
closed = 1;
nodes = (
(841,-14,o),
(938,59,o),
(964,166,c),
(876,190,l),
(860,113,o),
(802,64,o),
(726,64,cs),
(622,64,o),
(556,152,o),
(556,290,cs),
(556,425,o),
(620,510,o),
(720,510,cs),
(811,510,o),
(869,441,o),
(870,332,c),
(878,340,l),
(548,340,l),
(548,266,l),
(965,266,l),
(977,456,o),
(878,586,o),
(720,586,cs),
(565,586,o),
(460,465,o),
(460,288,cs),
(460,109,o),
(567,-14,o),
(724,-14,cs)
);
}
);
width = 1000;
}
);
metricLeft = o;
metricRight = e;
unicode = 339;
},
{
glyphname = p;
layers = (
{
layerId = m01;
shapes = (
{
closed = 1;
nodes = (
(162,-234,l),
(162,120,l),
(154,120,l),
(183,38,o),
(262,-14,o),
(354,-14,cs),
(497,-14,o),
(596,108,o),
(596,286,cs),
(596,464,o),
(499,586,o),
(356,586,cs),
(256,586,o),
(172,527,o),
(148,440,c),
(160,440,l),
(160,572,l),
(70,572,l),
(70,-234,l)
);
},
{
closed = 1;
nodes = (
(228,62,o),
(162,148,o),
(162,284,cs),
(162,420,o),
(228,506,o),
(332,506,cs),
(435,506,o),
(500,420,o),
(500,284,cs),
(500,148,o),
(435,62,o),
(332,62,cs)
);
}
);
width = 628;
},
{
layerId = "E9FB66CC-5D7A-47B2-9A25-A0E8EEF5BB81";
shapes = (
{
closed = 1;
nodes = (
(204,-234,l),
(204,112,l),
(196,112,l),
(216,36,o),
(292,-16,o),
(384,-16,cs),
(528,-16,o),
(624,110,o),
(624,294,cs),
(624,477,o),
(527,602,o),
(386,602,cs),
(291,602,o),
(212,545,o),
(194,462,c),
(202,462,l),
(202,586,l),
(64,586,l),
(64,-234,l)
);
},
{
closed = 1;
nodes = (
(256,84,o),
(204,165,o),
(204,292,cs),
(204,419,o),
(257,500,o),
(341,500,cs),
(424,500,o),
(476,419,o),
(476,292,cs),
(476,165,o),
(423,84,o),
(339,84,cs)
);
}
);
width = 652;
}
);
metricRight = o;
unicode = 112;
},
{
glyphname = thorn;
layers = (
{
layerId = m01;
shapes = (
{
closed = 1;
nodes = (
(162,-234,l),
(162,159,l),
(146,159,l),
(162,57,o),
(247,-13,o),
(357,-13,cs),
(500,-13,o),
(598,109,o),
(598,287,cs),
(598,465,o),
(499,586,o),
(355,586,cs),
(246,586,o),
(162,518,o),
(146,418,c),
(162,418,l),
(162,766,l),
(70,766,l),
(70,-234,l)
);
},
{
closed = 1;
nodes = (
(228,69,o),
(162,155,o),
(162,291,cs),
(162,422,o),
(228,506,o),
(332,506,cs),
(435,506,o),
(501,422,o),
(501,289,cs),
(501,154,o),
(435,69,o),
(332,69,cs)
);
}
);
width = 630;
},
{
layerId = "E9FB66CC-5D7A-47B2-9A25-A0E8EEF5BB81";
shapes = (
{
closed = 1;
nodes = (
(204,-234,l),
(204,112,l),
(196,112,l),
(216,36,o),
(292,-16,o),
(384,-16,cs),
(528,-16,o),
(624,110,o),
(624,294,cs),
(624,477,o),
(527,602,o),
(386,602,cs),
(291,602,o),
(212,545,o),
(194,462,c),
(202,462,l),
(202,766,l),
(64,766,l),
(64,-234,l)
);
},
{
closed = 1;
nodes = (
(256,84,o),
(204,165,o),
(204,292,cs),
(204,419,o),
(257,500,o),
(341,500,cs),
(424,500,o),
(476,419,o),
(476,292,cs),
(476,165,o),
(423,84,o),
(339,84,cs)
);
}
);
width = 652;
}
);
metricLeft = l;
metricRight = o;
unicode = 254;
},
{
glyphname = q;
layers = (
{
layerId = m01;
shapes = (
{
closed = 1;
nodes = (
(560,-234,l),
(560,572,l),
(470,572,l),
(470,452,l),
(478,452,l),
(453,532,o),
(371,586,o),
(274,586,cs),
(130,586,o),
(32,465,o),
(32,288,cs),
(32,109,o),
(132,-14,o),
(278,-14,cs),
(380,-14,o),
(460,45,o),
(476,132,c),
(468,132,l),
(468,-234,l)
);
},
{
closed = 1;
nodes = (
(194,66,o),
(128,152,o),
(128,287,cs),
(128,422,o),
(194,508,o),
(298,508,cs),
(402,508,o),
(468,422,o),
(468,287,cs),
(468,152,o),
(402,66,o),
(298,66,cs)
);
}
);
width = 630;
},
{
layerId = "E9FB66CC-5D7A-47B2-9A25-A0E8EEF5BB81";
shapes = (
{
closed = 1;
nodes = (
(588,-234,l),
(588,586,l),
(450,586,l),
(450,474,l),
(458,474,l),
(438,550,o),
(360,602,o),
(268,602,cs),
(124,602,o),
(28,476,o),
(28,292,cs),
(28,109,o),
(125,-16,o),
(266,-16,cs),
(361,-16,o),
(438,41,o),
(456,124,c),
(448,124,l),
(448,-234,l)
);
},
{
closed = 1;
nodes = (
(228,88,o),
(176,168,o),
(176,295,cs),
(176,422,o),
(229,502,o),
(313,502,cs),
(396,502,o),
(448,422,o),
(448,295,cs),
(448,168,o),
(395,88,o),
(311,88,cs)
);
}
);
width = 652;
}
);
metricLeft = o;
unicode = 113;
},
{
glyphname = r;
layers = (
{
anchors = (
{
name = bottom;
pos = (118,0);
},
{
name = top;
pos = (228,572);
}
);
layerId = m01;
shapes = (
{
closed = 1;
nodes = (
(162,0,l),
(162,306,ls),
(162,457,o),
(239,523,o),
(368,484,c),
(388,573,l),
(248,618,o),
(156,553,o),
(152,406,c),
(160,406,l),
(160,572,l),
(70,572,l),
(70,0,l)
);
}
);
width = 384;
},
{
anchors = (
{
name = bottom;
pos = (130,0);
},
{
name = top;
pos = (238,586);
}
);
layerId = "E9FB66CC-5D7A-47B2-9A25-A0E8EEF5BB81";
shapes = (
{
closed = 1;
nodes = (
(198,0,l),
(198,308,ls),
(198,432,o),
(270,488,o),
(386,452,c),
(406,594,l),
(278,629,o),
(193,555,o),
(188,404,c),
(196,404,l),
(196,586,l),
(58,586,l),
(58,0,l)
);
}
);
width = 398;
}
);
metricLeft = idotless;
unicode = 114;
userData = {
KernOnName = r;
};
},
{
glyphname = s;
layers = (
{
anchors = (
{
name = bottom;
pos = (276,0);
},
{
name = top;
pos = (264,586);
}
);
layerId = "E9FB66CC-5D7A-47B2-9A25-A0E8EEF5BB81";
shapes = (
{
closed = 1;
nodes = (
(425,-16,o),
(524,54,o),
(524,164,cs),
(524,372,o),
(176,315,o),
(176,439,cs),
(176,479,o),
(213,506,o),
(267,506,cs),
(326,506,o),
(370,471,o),
(380,416,c),
(508,460,l),
(480,548,o),
(390,602,o),
(270,602,cs),
(129,602,o),
(34,534,o),
(34,424,cs),
(34,208,o),
(381,273,o),
(381,153,cs),
(381,113,o),
(342,81,o),
(282,81,cs),
(212,81,o),
(160,124,o),
(148,184,c),
(18,138,l),
(50,44,o),
(152,-16,o),
(280,-16,cs)
);
}
);
width = 544;
},
{
anchors = (
{
name = bottom;
pos = (257,0);
},
{
name = top;
pos = (248,572);
}
);
layerId = m01;
name = Regular;
shapes = (
{
closed = 1;
nodes = (
(396,-14,o),
(480,52,o),
(480,152,cs),
(480,364,o),
(130,288,o),
(130,428,cs),
(130,480,o),
(178,513,o),
(248,513,cs),
(311,513,o),
(364,482,o),
(376,422,c),
(462,452,l),
(434,544,o),
(342,586,o),
(251,586,cs),
(143,586,o),
(37,527,o),
(42,418,cs),
(43,219,o),
(390,302,o),
(390,150,cs),
(390,95,o),
(342,60,o),
(266,60,cs),
(186,60,o),
(127,103,o),
(115,171,c),
(24,149,l),
(44,51,o),
(136,-14,o),
(260,-14,cs)
);
}
);
width = 508;
},
{
anchors = (
{
name = bottom;
pos = (272,0);
},
{
name = top;
pos = (261,573);
}
);
associatedMasterId = "E9FB66CC-5D7A-47B2-9A25-A0E8EEF5BB81";
layerId = "76B3AA14-3812-495B-B802-9FB3B3115265";
name = "7 mag 23, 13:58";
shapes = (
{
closed = 1;
nodes = (
(421,-13,o),
(512,54,o),
(512,159,cs),
(512,368,o),
(176,326,o),
(176,431,cs),
(176,463,o),
(206,483,o),
(255,483,cs),
(318,483,o),
(363,450,o),
(370,397,c),
(502,435,l),
(473,531,o),
(383,586,o),
(257,586,cs),
(125,586,o),
(37,526,o),
(37,418,cs),
(37,202,o),
(372,243,o),
(372,142,cs),
(372,111,o),
(340,90,o),
(289,90,cs),
(219,90,o),
(170,127,o),
(163,184,c),
(21,155,l),
(37,54,o),
(134,-13,o),
(276,-13,cs)
);
}
);
width = 535;
}
);
note = "Falls to the left";
unicode = 115;
userData = {
KernOnName = s;
};
},
{
color = 3;
glyphname = germandbls;
layers = (
{
layerId = m01;
shapes = (
{
closed = 1;
nodes = (
(516,-14,o),
(592,48,o),
(592,144,cs),
(592,324,o),
(338,282,o),
(338,400,cs),
(338,492,o),
(491,485,o),
(491,621,cs),
(491,719,o),
(412,780,o),
(288,780,cs),
(155,780,o),
(70,710,o),
(70,580,cs),
(70,0,l),
(162,0,l),
(162,576,ls),
(162,666,o),
(209,708,o),
(288,708,cs),
(358,708,o),
(399,673,o),
(399,613,cs),
(399,507,o),
(254,526,o),
(254,390,cs),
(254,218,o),
(504,272,o),
(504,144,cs),
(504,94,o),
(464,62,o),
(400,62,cs),
(352,62,o),
(296,83,o),
(256,116,c),
(224,32,l),
(272,4,o),
(328,-14,o),
(396,-14,cs)
);
}
);
width = 604;
},
{
layerId = "E9FB66CC-5D7A-47B2-9A25-A0E8EEF5BB81";
shapes = (
{
closed = 1;
nodes = (
(551,-16,o),
(648,54,o),
(648,164,cs),
(648,332,o),
(428,320,o),
(428,420,cs),
(428,488,o),
(532,516,o),
(532,616,cs),
(532,715,o),
(441,782,o),
(308,782,cs),
(164,782,o),
(66,694,o),
(66,564,cs),
(66,0,l),
(206,0,l),
(206,584,ls),
(206,646,o),
(245,686,o),
(306,686,cs),
(359,686,o),
(392,657,o),
(392,612,cs),
(392,532,o),
(292,512,o),
(292,404,cs),
(292,240,o),
(506,268,o),
(506,156,cs),
(506,110,o),
(469,82,o),
(408,82,cs),
(366,82,o),
(320,100,o),
(290,120,c),
(258,8,l),
(295,-6,o),
(354,-16,o),
(406,-16,cs)
);
}
);
width = 656;
}
);
unicode = 223;
},
{
glyphname = longs;
layers = (
{
layerId = m01;
shapes = (
{
closed = 1;
nodes = (
(158,0,l),
(158,630,ls),
(158,708,o),
(224,712,o),
(284,694,c),
(300,768,l),
(181,800,o),
(66,773,o),
(66,626,cs),
(66,0,l)
);
}
);
width = 288;
},
{
layerId = "E9FB66CC-5D7A-47B2-9A25-A0E8EEF5BB81";
shapes = (
{
closed = 1;
nodes = (
(196,0,l),
(196,620,ls),
(196,670,o),
(235,692,o),
(320,674,c),
(336,770,l),
(160,810,o),
(56,750,o),
(56,606,cs),
(56,0,l)
);
}
);
width = 330;
},
{
associatedMasterId = m01;
layerId = "6867417F-64D2-4255-B9CE-F442A51E132B";
name = "16 apr 23, 13:00";
shapes = (
{
closed = 1;
nodes = (
(167,0,l),
(167,632,ls),
(167,696,o),
(215,719,o),
(293,686,c),
(310,759,l),
(167,810,o),
(75,757,o),
(75,644,cs),
(75,0,l)
);
}
);
width = 272;
}
);
metricLeft = i;
metricRight = f;
unicode = 383;
},
{
glyphname = t;
layers = (
{
anchors = (
{
name = bottom;
pos = (200,0);
},
{
name = center;
pos = (154,364);
},
{
name = topright;
pos = (188,586);
}
);
layerId = m01;
shapes = (
{
closed = 1;
nodes = (
(314,72,l),
(231,44,o),
(182,65,o),
(182,128,cs),
(182,736,l),
(92,684,l),
(92,561,l),
(90,561,l),
(90,120,ls),
(90,8,o),
(180,-40,o),
(324,0,c)
);
},
{
closed = 1;
nodes = (
(308,500,l),
(308,572,l),
(2,572,l),
(2,500,l)
);
}
);
width = 340;
},
{
anchors = (
{
name = bottom;
pos = (228,0);
},
{
name = center;
pos = (180,356);
},
{
name = topright;
pos = (234,602);
}
);
layerId = "E9FB66CC-5D7A-47B2-9A25-A0E8EEF5BB81";
shapes = (
{
closed = 1;
nodes = (
(358,112,l),
(278,79,o),
(230,99,o),
(230,167,cs),
(230,752,l),
(92,684,l),
(92,561,l),
(90,561,l),
(90,140,ls),
(90,5,o),
(198,-46,o),
(370,4,c)
);
},
{
closed = 1;
nodes = (
(366,496,l),
(366,586,l),
(-4,586,l),
(-4,496,l)
);
}
);
width = 382;
}
);
note = "Controlla curva";
unicode = 116;
userData = {
KernOnName = t;
};
},
{
glyphname = u;
layers = (
{
anchors = (
{
name = ogonek;
pos = (534,12);
},
{
name = top;
pos = (296,572);
}
);
layerId = m01;
shapes = (
{
closed = 1;
nodes = (
(366,-14,o),
(440,52,o),
(450,152,c),
(442,152,l),
(442,72,o),
(446,36,o),
(458,0,c),
(546,0,l),
(536,40,o),
(532,82,o),
(532,134,cs),
(532,572,l),
(440,572,l),
(440,292,ls),
(440,150,o),
(382,66,o),
(284,66,cs),
(202,66,o),
(154,126,o),
(154,228,cs),
(154,572,l),
(62,572,l),
(62,200,ls),
(62,69,o),
(138,-14,o),
(258,-14,cs)
);
}
);
width = 602;
},
{
anchors = (
{
name = ogonek;
pos = (563,12);
},
{
name = top;
pos = (310,586);
}
);
layerId = "E9FB66CC-5D7A-47B2-9A25-A0E8EEF5BB81";
shapes = (
{
closed = 1;
nodes = (
(362,-16,o),
(435,52,o),
(441,160,c),
(433,160,l),
(433,100,o),
(439,44,o),
(455,0,c),
(582,0,l),
(572,40,o),
(568,82,o),
(568,134,cs),
(568,586,l),
(428,586,l),
(428,274,ls),
(428,156,o),
(380,86,o),
(300,86,cs),
(232,86,o),
(192,135,o),
(192,218,cs),
(192,586,l),
(52,586,l),
(52,200,ls),
(52,68,o),
(130,-16,o),
(252,-16,cs)
);
}
);
width = 628;
}
);
metricLeft = "=|n";
unicode = 117;
userData = {
KernOnName = u;
};
},
{
glyphname = v;
layers = (
{
layerId = m01;
shapes = (
{
closed = 1;
nodes = (
(309,0,l),
(508,572,l),
(418,572,l),
(258,88,l),
(266,88,l),
(96,572,l),
(-2,572,l),
(207,0,l)
);
}
);
width = 508;
},
{
layerId = "E9FB66CC-5D7A-47B2-9A25-A0E8EEF5BB81";
shapes = (
{
closed = 1;
nodes = (
(352,0,l),
(540,586,l),
(412,586,l),
(274,140,l),
(282,140,l),
(144,586,l),
(-6,586,l),
(186,0,l)
);
}
);
width = 536;
}
);
unicode = 118;
},
{
glyphname = w;
layers = (
{
layerId = m01;
shapes = (
{
closed = 1;
nodes = (
(270,0,l),
(382,464,l),
(374,464,l),
(496,0,l),
(598,0,l),
(756,572,l),
(668,572,l),
(548,88,l),
(556,88,l),
(428,572,l),
(336,572,l),
(220,88,l),
(228,88,l),
(100,572,l),
(4,572,l),
(166,0,l)
);
}
);
width = 760;
},
{
layerId = "E9FB66CC-5D7A-47B2-9A25-A0E8EEF5BB81";
shapes = (
{
closed = 1;
nodes = (
(302,0,l),
(397,388,l),
(389,388,l),
(500,0,l),
(656,0,l),
(800,586,l),
(672,586,l),
(577,148,l),
(585,148,l),
(474,586,l),
(346,586,l),
(243,144,l),
(251,144,l),
(144,586,l),
(0,586,l),
(148,0,l)
);
}
);
width = 802;
}
);
unicode = 119;
userData = {
KernOnName = w;
};
},
{
glyphname = x;
layers = (
{
background = {
shapes = (
{
closed = 1;
nodes = (
(98,0,l),
(486,572,l),
(386,572,l),
(-2,0,l)
);
},
{
closed = 1;
nodes = (
(494,0,l),
(113,572,l),
(4,572,l),
(384,0,l)
);
}
);
};
layerId = m01;
shapes = (
{
closed = 1;
nodes = (
(98,0,l),
(248,220,l),
(240,220,l),
(384,0,l),
(494,0,l),
(292,304,l),
(292,288,l),
(486,572,l),
(386,572,l),
(245,360,l),
(253,360,l),
(113,572,l),
(4,572,l),
(200,280,l),
(200,296,l),
(-2,0,l)
);
}
);
width = 494;
},
{
background = {
shapes = (
{
closed = 1;
nodes = (
(560,0,l),
(168,586,l),
(-6,586,l),
(384,0,l)
);
},
{
closed = 1;
nodes = (
(138,0,l),
(540,586,l),
(396,586,l),
(-6,0,l)
);
}
);
};
layerId = "E9FB66CC-5D7A-47B2-9A25-A0E8EEF5BB81";
shapes = (
{
closed = 1;
nodes = (
(138,0,l),
(268,190,l),
(260,190,l),
(383,0,l),
(560,0,l),
(346,316,l),
(346,300,l),
(540,586,l),
(396,586,l),
(276,408,l),
(284,408,l),
(167,586,l),
(-6,586,l),
(200,282,l),
(200,298,l),
(-6,0,l)
);
}
);
width = 552;
},
{
associatedMasterId = "E9FB66CC-5D7A-47B2-9A25-A0E8EEF5BB81";
layerId = "442051E3-370E-4C2A-A23B-5913F78A970B";
name = "26 feb 23, 17:52";
shapes = (
{
closed = 1;
nodes = (
(540,0,l),
(159,573,l),
(-8,573,l),
(370,0,l)
);
},
{
closed = 1;
nodes = (
(138,0,l),
(529,573,l),
(383,573,l),
(-10,0,l)
);
}
);
width = 529;
},
{
associatedMasterId = m01;
layerId = "86E0CBD2-1697-4290-A2B7-B035E8104321";
name = "8 mag 23, 21:31";
shapes = (
{
closed = 1;
nodes = (
(496,0,l),
(300,294,l),
(490,572,l),
(390,572,l),
(252,364,l),
(115,572,l),
(6,572,l),
(198,288,l),
(-2,0,l),
(100,0,l),
(246,216,l),
(386,0,l)
);
}
);
width = 496;
}
);
unicode = 120;
userData = {
KernOnName = x;
};
},
{
glyphname = y;
layers = (
{
anchors = (
{
name = top;
pos = (260,572);
}
);
layerId = m01;
shapes = (
{
closed = 1;
nodes = (
(116,-272,o),
(210,-248,o),
(248,-148,cs),
(520,572,l),
(428,572,l),
(258,104,l),
(266,104,l),
(98,572,l),
(-2,572,l),
(216,-12,l),
(216,8,l),
(172,-116,ls),
(151,-175,o),
(91,-186,o),
(10,-148,c),
(-4,-224,l)
);
}
);
width = 520;
},
{
anchors = (
{
name = top;
pos = (266,586);
}
);
layerId = "E9FB66CC-5D7A-47B2-9A25-A0E8EEF5BB81";
shapes = (
{
closed = 1;
nodes = (
(146,-280,o),
(275,-244,o),
(314,-120,cs),
(538,586,l),
(410,586,l),
(278,144,l),
(286,144,l),
(140,586,l),
(-10,586,l),
(206,-16,l),
(206,0,l),
(190,-60,ls),
(170,-134,o),
(102,-156,o),
(2,-116,c),
(-10,-224,l)
);
}
);
width = 534;
}
);
metricRight = v;
unicode = 121;
userData = {
KernOnName = y;
};
},
{
glyphname = z;
layers = (
{
anchors = (
{
name = top;
pos = (236,572);
}
);
layerId = m01;
shapes = (
{
closed = 1;
nodes = (
(456,0,l),
(456,74,l),
(224,74,ls),
(190,74,o),
(157,72,o),
(132,68,c),
(448,506,l),
(448,572,l),
(20,572,l),
(20,499,l),
(244,499,ls),
(277,499,o),
(311,501,o),
(336,505,c),
(16,64,l),
(16,0,l)
);
}
);
width = 472;
},
{
anchors = (
{
name = top;
pos = (253,586);
}
);
layerId = "E9FB66CC-5D7A-47B2-9A25-A0E8EEF5BB81";
shapes = (
{
closed = 1;
nodes = (
(480,1,l),
(480,101,l),
(284,101,ls),
(252,101,o),
(220,99,o),
(192,95,c),
(474,495,l),
(474,586,l),
(24,586,l),
(24,487,l),
(214,487,ls),
(246,487,o),
(278,489,o),
(306,493,c),
(22,92,l),
(22,0,l)
);
}
);
width = 502;
}
);
metricRight = "=|";
unicode = 122;
userData = {
KernOnName = z;
};
},
{
glyphname = g.ss01;
layers = (
{
layerId = "E9FB66CC-5D7A-47B2-9A25-A0E8EEF5BB81";
width = 649;
},
{
anchors = (
{
name = top;
pos = (301,573);
}
);
background = {
shapes = (
{
closed = 1;
nodes = (
(427,-247,o),
(577,-155,o),
(577,-38,cs),
(577,42,o),
(510,96,o),
(410,96,cs),
(347,96,o),
(247,79,o),
(188,79,cs),
(146,79,o),
(126,93,o),
(126,119,cs),
(126,149,o),
(153,174,o),
(192,184,c),
(155,213,l),
(79,188,o),
(38,138,o),
(38,88,cs),
(38,33,o),
(84,0,o),
(151,0,cs),
(209,0,o),
(314,19,o),
(381,19,cs),
(448,19,o),
(481,-8,o),
(481,-50,cs),
(481,-117,o),
(381,-172,o),
(247,-172,cs),
(151,-172,o),
(105,-142,o),
(105,-92,cs),
(105,-47,o),
(141,-2,o),
(205,29,c),
(134,29,l),
(60,-2,o),
(13,-59,o),
(13,-117,cs),
(13,-201,o),
(96,-247,o),
(226,-247,cs)
);
},
{
closed = 1;
nodes = (
(417,155,o),
(510,244,o),
(510,370,cs),
(510,497,o),
(417,586,o),
(287,586,cs),
(156,586,o),
(63,497,o),
(63,370,cs),
(63,244,o),
(156,155,o),
(287,155,cs)
);
},
{
closed = 1;
nodes = (
(206,222,o),
(155,280,o),
(155,371,cs),
(155,462,o),
(206,521,o),
(287,521,cs),
(367,521,o),
(418,462,o),
(418,371,cs),
(418,280,o),
(367,222,o),
(287,222,cs)
);
},
{
closed = 1;
nodes = (
(485,515,o),
(531,541,o),
(594,515,c),
(611,594,l),
(524,623,o),
(457,579,o),
(448,490,c),
(477,448,l)
);
}
);
};
layerId = m01;
name = Regular;
shapes = (
{
closed = 1;
nodes = (
(459,-246,o),
(560,-193,o),
(560,-69,cs),
(560,176,o),
(121,29,o),
(123,143,cs),
(124,170,o),
(153,194,o),
(195,206,c),
(159,236,l),
(74,206,o),
(35,172,o),
(35,117,cs),
(35,-79,o),
(464,79,o),
(464,-81,cs),
(464,-140,o),
(400,-172,o),
(287,-172,cs),
(165,-172,o),
(98,-139,o),
(98,-79,cs),
(98,-34,o),
(134,1,o),
(169,16,c),
(129,37,l),
(53,2,o),
(5,-41,o),
(5,-104,cs),
(5,-193,o),
(102,-246,o),
(275,-246,cs)
);
},
{
closed = 1;
nodes = (
(411,177,o),
(499,261,o),
(499,381,cs),
(499,501,o),
(411,586,o),
(287,586,cs),
(162,586,o),
(74,501,o),
(74,381,cs),
(74,261,o),
(162,177,o),
(287,177,cs)
);
},
{
closed = 1;
nodes = (
(213,251,o),
(168,301,o),
(168,382,cs),
(168,462,o),
(213,515,o),
(287,515,cs),
(360,515,o),
(405,461,o),
(405,381,cs),
(405,300,o),
(360,251,o),
(287,251,cs)
);
},
{
closed = 1;
nodes = (
(483,494,o),
(510,521,o),
(549,521,cs),
(563,521,o),
(578,518,o),
(594,511,c),
(611,594,l),
(593,600,o),
(576,603,o),
(560,603,cs),
(499,603,o),
(455,561,o),
(448,490,c),
(477,444,l)
);
}
);
width = 603;
}
);
userData = {
KernOnName = g;
};
},
{
glyphname = t_t.liga;
layers = (
{
layerId = m01;
shapes = (
{
closed = 1;
nodes = (
(346,500,l),
(346,572,l),
(300,572,l),
(300,500,l)
);
},
{
ref = t;
},
{
pos = (336,0);
ref = t;
}
);
width = 676;
},
{
layerId = "E9FB66CC-5D7A-47B2-9A25-A0E8EEF5BB81";
shapes = (
{
closed = 1;
nodes = (
(380,496,l),
(380,586,l),
(358,586,l),
(358,496,l)
);
},
{
ref = t;
},
{
pos = (376,0);
ref = t;
}
);
width = 758;
},
{
associatedMasterId = m01;
layerId = "8D7864F0-2BA3-41DF-A4FE-DF55EF8F47AA";
name = "15 apr 23, 22:41";
shapes = (
{
ref = t;
},
{
pos = (314,0);
ref = t;
},
{
closed = 1;
nodes = (
(331,496,l),
(331,569,l),
(305,569,l),
(305,496,l)
);
}
);
width = 649;
}
);
metricLeft = t;
metricRight = t;
},
{
glyphname = t_t_t_i.liga;
layers = (
{
layerId = m01;
shapes = (
{
closed = 1;
nodes = (
(1102,500,l),
(1102,572,l),
(10,572,l),
(10,500,l)
);
},
{
ref = t;
},
{
pos = (334,0);
ref = t;
},
{
pos = (668,0);
ref = t;
},
{
pos = (1024,0);
ref = i;
}
);
width = 1256;
},
{
layerId = "E9FB66CC-5D7A-47B2-9A25-A0E8EEF5BB81";
shapes = (
{
closed = 1;
nodes = (
(1190,496,l),
(1190,586,l),
(4,586,l),
(4,496,l)
);
},
{
ref = t;
},
{
pos = (364,0);
ref = t;
},
{
pos = (728,0);
ref = t;
},
{
pos = (1124,0);
ref = i;
}
);
width = 1380;
},
{
associatedMasterId = m01;
layerId = "7139CBF9-BE77-4471-9550-B7EDF6E170C0";
name = "15 apr 23, 22:42";
shapes = (
{
closed = 1;
nodes = (
(1128,0,l),
(1128,569,l),
(1036,569,l),
(1036,0,l)
);
},
{
ref = t;
},
{
pos = (314,0);
ref = t;
},
{
closed = 1;
nodes = (
(331,496,l),
(331,569,l),
(305,569,l),
(305,496,l)
);
},
{
pos = (628,0);
ref = t;
},
{
closed = 1;
nodes = (
(644,496,l),
(644,569,l),
(619,569,l),
(619,496,l)
);
},
{
closed = 1;
nodes = (
(1048,496,l),
(1048,569,l),
(933,569,l),
(933,496,l)
);
},
{
closed = 1;
nodes = (
(1131,657,l),
(1131,757,l),
(1032,757,l),
(1032,657,l)
);
}
);
width = 1203;
}
);
metricLeft = t;
metricRight = i;
},
{
glyphname = ordfeminine;
layers = (
{
layerId = m01;
shapes = (
{
closed = 1;
nodes = (
(235,344,o),
(294,383,o),
(298,458,c),
(290,458,l),
(290,407,o),
(294,375,o),
(304,352,c),
(376,352,l),
(370,376,o),
(366,406,o),
(366,438,cs),
(366,607,ls),
(366,685,o),
(307,740,o),
(221,740,cs),
(142,740,o),
(74,695,o),
(48,628,c),
(116,604,l),
(128,651,o),
(167,678,o),
(216,678,cs),
(263,678,o),
(290,650,o),
(290,604,cs),
(290,556,ls),
(290,465,o),
(251,408,o),
(184,408,cs),
(143,408,o),
(120,430,o),
(120,464,cs),
(120,494,o),
(140,515,o),
(174,522,cs),
(298,548,l),
(298,598,l),
(164,572,ls),
(85,557,o),
(40,515,o),
(40,454,cs),
(40,390,o),
(89,344,o),
(164,344,cs)
);
}
);
width = 428;
},
{
layerId = "E9FB66CC-5D7A-47B2-9A25-A0E8EEF5BB81";
width = 529;
}
);
unicode = 170;
userData = {
KernOnSpecialSpacing = {
L = superiors;
R = superiors;
};
};
},
{
glyphname = ordmasculine;
layers = (
{
layerId = m01;
shapes = (
{
closed = 1;
nodes = (
(325,344,o),
(398,424,o),
(398,542,cs),
(398,660,o),
(325,740,o),
(218,740,cs),
(111,740,o),
(38,660,o),
(38,542,cs),
(38,424,o),
(111,344,o),
(218,344,cs)
);
},
{
closed = 1;
nodes = (
(158,407,o),
(120,459,o),
(120,542,cs),
(120,625,o),
(158,678,o),
(218,678,cs),
(278,678,o),
(316,625,o),
(316,542,cs),
(316,459,o),
(278,407,o),
(218,407,cs)
);
}
);
width = 436;
},
{
layerId = "E9FB66CC-5D7A-47B2-9A25-A0E8EEF5BB81";
width = 527;
}
);
metricRight = "=|";
unicode = 186;
userData = {
KernOnSpecialSpacing = {
L = superiors;
R = superiors;
};
};
},
{
glyphname = zero;
layers = (
{
layerId = m01;
shapes = (
{
closed = 1;
nodes = (
(505,-14,o),
(614,132,o),
(614,366,cs),
(614,600,o),
(505,746,o),
(329,746,cs),
(153,746,o),
(44,600,o),
(44,366,cs),
(44,132,o),
(153,-14,o),
(329,-14,cs)
);
},
{
closed = 1;
nodes = (
(215,68,o),
(142,184,o),
(142,367,cs),
(142,550,o),
(215,666,o),
(329,666,cs),
(443,666,o),
(516,550,o),
(516,367,cs),
(516,184,o),
(443,68,o),
(329,68,cs)
);
}
);
width = 658;
},
{
layerId = "E9FB66CC-5D7A-47B2-9A25-A0E8EEF5BB81";
shapes = (
{
closed = 1;
nodes = (
(529,-16,o),
(654,140,o),
(654,372,cs),
(654,604,o),
(529,760,o),
(346,760,cs),
(163,760,o),
(38,604,o),
(38,372,cs),
(38,140,o),
(163,-16,o),
(346,-16,cs)
);
},
{
closed = 1;
nodes = (
(251,100,o),
(190,206,o),
(190,373,cs),
(190,540,o),
(251,646,o),
(346,646,cs),
(441,646,o),
(502,540,o),
(502,373,cs),
(502,206,o),
(441,100,o),
(346,100,cs)
);
}
);
width = 692;
}
);
metricRight = "=|";
unicode = 48;
},
{
glyphname = one;
layers = (
{
background = {
shapes = (
{
closed = 1;
nodes = (
(297,0,l),
(297,732,l),
(213,732,l),
(181,654,o),
(105,598,o),
(16,586,c),
(21,494,l),
(108,506,o),
(182,552,o),
(211,607,c),
(203,607,l),
(203,0,l)
);
}
);
};
layerId = m01;
shapes = (
{
closed = 1;
nodes = (
(298,0,l),
(298,732,l),
(213,732,l),
(182,656,o),
(109,604,o),
(16,590,c),
(22,498,l),
(110,508,o),
(184,555,o),
(212,620,c),
(204,620,l),
(204,0,l)
);
}
);
width = 386;
},
{
layerId = "E9FB66CC-5D7A-47B2-9A25-A0E8EEF5BB81";
shapes = (
{
closed = 1;
nodes = (
(356,0,l),
(356,745,l),
(226,745,l),
(182,669,o),
(106,618,o),
(14,598,c),
(28,452,l),
(116,468,o),
(187,525,o),
(219,593,c),
(210,593,l),
(210,0,l)
);
}
);
width = 436;
}
);
metricRight = H;
unicode = 49;
},
{
glyphname = two;
layers = (
{
layerId = m01;
shapes = (
{
closed = 1;
nodes = (
(536,0,l),
(536,84,l),
(144,84,l),
(148,76,l),
(200,256,o),
(524,311,o),
(524,544,cs),
(524,672,o),
(424,746,o),
(292,746,cs),
(154,746,o),
(52,662,o),
(28,550,c),
(122,522,l),
(138,607,o),
(203,666,o),
(292,666,cs),
(372,666,o),
(428,616,o),
(428,540,cs),
(428,344,o),
(76,301,o),
(34,20,cs),
(31,0,l)
);
}
);
width = 572;
},
{
layerId = "E9FB66CC-5D7A-47B2-9A25-A0E8EEF5BB81";
shapes = (
{
closed = 1;
nodes = (
(552,0,l),
(552,122,l),
(200,122,l),
(204,114,l),
(272,266,o),
(548,316,o),
(548,536,cs),
(548,669,o),
(446,760,o),
(296,760,cs),
(158,760,o),
(50,680,o),
(24,560,c),
(160,516,l),
(168,596,o),
(222,646,o),
(292,646,cs),
(358,646,o),
(400,602,o),
(400,538,cs),
(400,354,o),
(50,308,o),
(26,24,cs),
(24,0,l)
);
}
);
width = 592;
},
{
associatedMasterId = m01;
layerId = "14669DBD-BB92-4E43-8DF4-2BB941053677";
name = "6 Jun 23, 16:36";
shapes = (
{
closed = 1;
nodes = (
(540,0,l),
(540,84,l),
(146,84,l),
(188,251,o),
(534,304,o),
(534,536,cs),
(534,660,o),
(436,746,o),
(300,746,cs),
(164,746,o),
(54,660,o),
(28,536,c),
(124,512,l),
(140,608,o),
(210,668,o),
(298,668,cs),
(380,668,o),
(436,616,o),
(436,540,cs),
(436,332,o),
(36,303,o),
(36,20,cs),
(36,0,l)
);
}
);
width = 576;
}
);
unicode = 50;
},
{
glyphname = three;
layers = (
{
layerId = m01;
shapes = (
{
closed = 1;
nodes = (
(448,-14,o),
(546,74,o),
(546,204,cs),
(546,305,o),
(488,379,o),
(396,395,c),
(396,387,l),
(474,403,o),
(524,466,o),
(524,552,cs),
(524,668,o),
(431,746,o),
(294,746,cs),
(162,746,o),
(65,676,o),
(52,573,c),
(144,545,l),
(153,618,o),
(210,670,o),
(294,670,cs),
(375,670,o),
(428,623,o),
(428,550,cs),
(428,475,o),
(375,427,o),
(292,427,cs),
(209,427,l),
(209,351,l),
(292,351,ls),
(386,351,o),
(446,295,o),
(446,208,cs),
(446,119,o),
(385,64,o),
(290,64,cs),
(197,64,o),
(133,120,o),
(126,209,c),
(26,193,l),
(36,69,o),
(144,-14,o),
(292,-14,cs)
);
}
);
width = 588;
},
{
layerId = "E9FB66CC-5D7A-47B2-9A25-A0E8EEF5BB81";
shapes = (
{
closed = 1;
nodes = (
(464,-16,o),
(578,74,o),
(578,210,cs),
(578,310,o),
(515,384,o),
(416,398,c),
(416,390,l),
(500,410,o),
(550,476,o),
(550,558,cs),
(550,678,o),
(448,760,o),
(300,760,cs),
(156,760,o),
(50,684,o),
(38,584,c),
(172,540,l),
(182,610,o),
(230,654,o),
(296,654,cs),
(361,654,o),
(402,613,o),
(402,548,cs),
(402,481,o),
(359,438,o),
(292,438,cs),
(217,438,l),
(217,346,l),
(300,346,ls),
(377,346,o),
(426,296,o),
(426,218,cs),
(426,141,o),
(377,92,o),
(300,92,cs),
(224,92,o),
(171,143,o),
(164,224,c),
(16,192,l),
(28,68,o),
(140,-16,o),
(298,-16,cs)
);
}
);
width = 610;
},
{
associatedMasterId = m01;
layerId = "3350A466-376B-43A6-A60A-32D5F9FB2412";
name = "6 Jun 23, 16:38";
shapes = (
{
closed = 1;
nodes = (
(457,-14,o),
(562,73,o),
(562,200,cs),
(562,298,o),
(498,376,o),
(404,392,c),
(404,384,l),
(482,400,o),
(536,469,o),
(536,554,cs),
(536,668,o),
(442,746,o),
(304,746,cs),
(168,746,o),
(64,668,o),
(44,552,c),
(136,528,l),
(153,615,o),
(221,670,o),
(308,670,cs),
(389,670,o),
(440,623,o),
(440,548,cs),
(440,472,o),
(386,424,o),
(300,424,cs),
(237,424,l),
(237,348,l),
(300,348,ls),
(399,348,o),
(462,292,o),
(462,205,cs),
(462,119,o),
(401,64,o),
(306,64,cs),
(203,64,o),
(132,128,o),
(124,228,c),
(24,212,l),
(35,78,o),
(148,-14,o),
(304,-14,cs)
);
}
);
width = 602;
}
);
metricRight = eight;
unicode = 51;
},
{
glyphname = four;
layers = (
{
layerId = m01;
shapes = (
{
closed = 1;
nodes = (
(470,0,l),
(470,732,l),
(378,732,l),
(16,266,l),
(16,182,l),
(562,182,l),
(562,262,l),
(98,262,l),
(102,254,l),
(384,627,l),
(376,627,l),
(376,0,l)
);
}
);
width = 576;
},
{
layerId = "E9FB66CC-5D7A-47B2-9A25-A0E8EEF5BB81";
shapes = (
{
closed = 1;
nodes = (
(514,0,l),
(514,744,l),
(384,744,l),
(12,264,l),
(12,160,l),
(610,160,l),
(610,276,l),
(134,276,l),
(138,268,l),
(376,580,l),
(368,580,l),
(368,0,l)
);
}
);
width = 620;
},
{
associatedMasterId = m01;
layerId = "E86B6585-58E5-417F-A50D-8044A7D1B55D";
name = "6 ago 23, 18:28";
shapes = (
{
closed = 1;
nodes = (
(462,0,l),
(462,732,l),
(370,732,l),
(16,266,l),
(16,182,l),
(554,182,l),
(554,262,l),
(108,262,l),
(368,616,l),
(368,0,l)
);
}
);
width = 568;
},
{
associatedMasterId = "E9FB66CC-5D7A-47B2-9A25-A0E8EEF5BB81";
layerId = "07B64D37-A9E4-423F-98B0-92B319495AE6";
name = "6 ago 23, 18:28";
shapes = (
{
closed = 1;
nodes = (
(506,0,l),
(506,744,l),
(390,744,l),
(10,256,l),
(10,160,l),
(602,160,l),
(602,280,l),
(158,280,l),
(366,552,l),
(366,0,l)
);
}
);
width = 612;
}
);
unicode = 52;
},
{
color = 3;
glyphname = five;
layers = (
{
layerId = m01;
shapes = (
{
closed = 1;
nodes = (
(454,-14,o),
(562,92,o),
(562,244,cs),
(562,390,o),
(464,492,o),
(324,492,cs),
(234,492,o),
(160,452,o),
(136,388,c),
(146,388,l),
(184,649,l),
(520,649,l),
(520,732,l),
(112,732,l),
(65,356,l),
(152,328,l),
(178,384,o),
(232,416,o),
(300,416,cs),
(404,416,o),
(470,348,o),
(470,240,cs),
(470,132,o),
(403,64,o),
(298,64,cs),
(207,64,o),
(143,122,o),
(132,212,c),
(32,192,l),
(48,70,o),
(154,-14,o),
(295,-14,cs)
);
}
);
width = 598;
},
{
layerId = "E9FB66CC-5D7A-47B2-9A25-A0E8EEF5BB81";
shapes = (
{
closed = 1;
nodes = (
(481,-16,o),
(594,82,o),
(594,244,cs),
(594,393,o),
(489,492,o),
(342,492,cs),
(242,492,o),
(164,452,o),
(140,388,c),
(184,388,l),
(219,630,l),
(552,630,l),
(552,745,l),
(105,745,l),
(54,336,l),
(176,308,l),
(199,349,o),
(246,376,o),
(312,376,cs),
(390,376,o),
(442,322,o),
(442,240,cs),
(442,161,o),
(400,104,o),
(312,104,cs),
(242,104,o),
(191,146,o),
(184,210,c),
(40,190,l),
(56,68,o),
(165,-16,o),
(317,-16,cs)
);
}
);
width = 619;
}
);
unicode = 53;
},
{
color = 3;
glyphname = six;
layers = (
{
layerId = m01;
shapes = (
{
closed = 1;
nodes = (
(477,-14,o),
(586,89,o),
(586,238,cs),
(586,387,o),
(483,485,o),
(334,485,cs),
(230,485,o),
(153,439,o),
(129,364,c),
(135,364,l),
(136,551,o),
(215,670,o),
(331,670,cs),
(402,670,o),
(454,625,o),
(467,555,c),
(561,579,l),
(536,679,o),
(444,746,o),
(336,746,cs),
(160,746,o),
(44,583,o),
(44,342,cs),
(44,120,o),
(144,-14,o),
(320,-14,cs)
);
},
{
closed = 1;
nodes = (
(217,64,o),
(153,134,o),
(153,242,cs),
(153,345,o),
(218,412,o),
(320,412,cs),
(423,412,o),
(488,344,o),
(488,237,cs),
(488,133,o),
(422,64,o),
(319,64,cs)
);
}
);
width = 622;
},
{
layerId = "E9FB66CC-5D7A-47B2-9A25-A0E8EEF5BB81";
shapes = (
{
closed = 1;
nodes = (
(506,-16,o),
(620,89,o),
(620,240,cs),
(620,388,o),
(511,485,o),
(352,485,cs),
(248,485,o),
(166,437,o),
(143,364,c),
(171,364,l),
(172,528,o),
(225,646,o),
(343,646,cs),
(409,646,o),
(457,610,o),
(471,545,c),
(595,588,l),
(566,689,o),
(464,757,o),
(343,757,cs),
(152,757,o),
(38,597,o),
(38,352,cs),
(38,130,o),
(145,-16,o),
(340,-16,cs)
);
},
{
closed = 1;
nodes = (
(252,86,o),
(197,147,o),
(197,237,cs),
(197,328,o),
(252,385,o),
(334,385,cs),
(417,385,o),
(472,326,o),
(472,237,cs),
(472,146,o),
(417,86,o),
(334,86,cs)
);
}
);
width = 650;
}
);
metricLeft = zero;
unicode = 54;
},
{
glyphname = seven;
layers = (
{
layerId = m01;
shapes = (
{
closed = 1;
nodes = (
(234,0,l),
(242,246,o),
(339,479,o),
(508,660,c),
(508,732,l),
(8,732,l),
(8,652,l),
(404,652,l),
(400,660,l),
(249,498,o),
(146,241,o),
(134,0,c)
);
}
);
width = 524;
},
{
layerId = "E9FB66CC-5D7A-47B2-9A25-A0E8EEF5BB81";
shapes = (
{
closed = 1;
nodes = (
(288,0,l),
(308,276,o),
(400,504,o),
(556,652,c),
(556,745,l),
(6,745,l),
(6,629,l),
(388,629,l),
(384,637,l),
(248,481,o),
(152,236,o),
(136,0,c)
);
}
);
width = 564;
}
);
unicode = 55;
userData = {
KernOnName = seven;
};
},
{
glyphname = eight;
layers = (
{
layerId = m01;
shapes = (
{
closed = 1;
nodes = (
(482,-14,o),
(594,74,o),
(594,202,cs),
(594,294,o),
(536,372,o),
(442,400,c),
(442,392,l),
(522,414,o),
(568,478,o),
(568,554,cs),
(568,666,o),
(467,746,o),
(318,746,cs),
(169,746,o),
(68,666,o),
(68,554,cs),
(68,478,o),
(114,414,o),
(194,392,c),
(194,400,l),
(100,372,o),
(42,294,o),
(42,202,cs),
(42,74,o),
(154,-14,o),
(318,-14,cs)
);
},
{
closed = 1;
nodes = (
(209,64,o),
(140,121,o),
(140,211,cs),
(140,301,o),
(209,358,o),
(318,358,cs),
(427,358,o),
(496,301,o),
(496,211,cs),
(496,121,o),
(427,64,o),
(318,64,cs)
);
},
{
closed = 1;
nodes = (
(223,428,o),
(164,475,o),
(164,549,cs),
(164,623,o),
(223,670,o),
(318,670,cs),
(413,670,o),
(472,623,o),
(472,549,cs),
(472,475,o),
(413,428,o),
(318,428,cs)
);
}
);
width = 636;
},
{
layerId = "E9FB66CC-5D7A-47B2-9A25-A0E8EEF5BB81";
shapes = (
{
closed = 1;
nodes = (
(510,-14,o),
(632,76,o),
(632,208,cs),
(632,296,o),
(581,370,o),
(493,406,c),
(493,398,l),
(565,426,o),
(604,484,o),
(604,556,cs),
(604,677,o),
(494,760,o),
(332,760,cs),
(170,760,o),
(60,677,o),
(60,556,cs),
(60,484,o),
(101,426,o),
(173,398,c),
(173,406,l),
(85,370,o),
(32,296,o),
(32,208,cs),
(32,76,o),
(154,-14,o),
(332,-14,cs)
);
},
{
closed = 1;
nodes = (
(242,98,o),
(184,148,o),
(184,227,cs),
(184,306,o),
(242,356,o),
(332,356,cs),
(422,356,o),
(480,306,o),
(480,227,cs),
(480,148,o),
(422,98,o),
(332,98,cs)
);
},
{
closed = 1;
nodes = (
(253,444,o),
(202,484,o),
(202,547,cs),
(202,610,o),
(253,650,o),
(332,650,cs),
(411,650,o),
(462,610,o),
(462,547,cs),
(462,484,o),
(411,444,o),
(332,444,cs)
);
}
);
width = 664;
}
);
metricRight = "=|";
unicode = 56;
},
{
color = 3;
glyphname = nine;
layers = (
{
background = {
shapes = (
{
closed = 1;
nodes = (
(456,-13,o),
(573,142,o),
(573,402,cs),
(573,619,o),
(471,745,o),
(299,745,cs),
(149,745,o),
(48,647,o),
(48,502,cs),
(48,361,o),
(143,266,o),
(287,266,cs),
(390,266,o),
(471,316,o),
(492,393,c),
(479,393,l),
(477,184,o),
(408,65,o),
(285,65,cs),
(207,65,o),
(151,112,o),
(138,188,c),
(42,167,l),
(65,56,o),
(155,-13,o),
(276,-13,cs)
);
},
{
closed = 1;
nodes = (
(207,339,o),
(145,402,o),
(145,504,cs),
(145,607,o),
(207,669,o),
(306,669,cs),
(404,669,o),
(467,607,o),
(467,504,cs),
(467,402,o),
(404,339,o),
(306,339,cs)
);
}
);
};
layerId = m01;
name = Regular;
shapes = (
{
closed = 1;
nodes = (
(456,-10,o),
(559,134,o),
(559,377,cs),
(559,613,o),
(460,746,o),
(288,746,cs),
(140,746,o),
(40,647,o),
(40,504,cs),
(40,363,o),
(134,266,o),
(271,266,cs),
(379,266,o),
(453,317,o),
(473,396,c),
(468,396,l),
(472,184,o),
(413,64,o),
(288,64,cs),
(213,64,o),
(155,112,o),
(140,188,c),
(47,162,l),
(70,52,o),
(172,-17,o),
(289,-15,cs)
);
},
{
closed = 1;
nodes = (
(195,338,o),
(134,404,o),
(134,507,cs),
(134,606,o),
(195,670,o),
(290,670,cs),
(388,670,o),
(451,605,o),
(451,503,cs),
(451,403,o),
(388,338,o),
(290,338,cs)
);
}
);
width = 603;
},
{
layerId = "E9FB66CC-5D7A-47B2-9A25-A0E8EEF5BB81";
shapes = (
{
closed = 1;
nodes = (
(488,-16,o),
(606,146,o),
(606,387,cs),
(606,610,o),
(497,757,o),
(304,757,cs),
(139,757,o),
(30,652,o),
(30,501,cs),
(30,359,o),
(138,265,o),
(284,265,cs),
(380,265,o),
(444,300,o),
(480,360,c),
(472,360,l),
(465,205,o),
(408,95,o),
(294,95,cs),
(226,95,o),
(174,131,o),
(159,196,c),
(35,153,l),
(65,52,o),
(171,-16,o),
(294,-16,cs)
);
},
{
closed = 1;
nodes = (
(227,365,o),
(172,421,o),
(172,508,cs),
(172,595,o),
(228,655,o),
(311,655,cs),
(393,655,o),
(447,593,o),
(447,506,cs),
(447,419,o),
(392,365,o),
(310,365,cs)
);
}
);
width = 644;
},
{
associatedMasterId = m01;
layerId = "2171C64F-D7EA-408E-8EA1-99417316F494";
name = "15 apr 23, 22:17";
shapes = (
{
closed = 1;
nodes = (
(461,-13,o),
(578,146,o),
(578,402,cs),
(578,619,o),
(476,745,o),
(304,745,cs),
(154,745,o),
(53,647,o),
(53,502,cs),
(53,361,o),
(149,266,o),
(292,266,cs),
(395,266,o),
(476,316,o),
(497,393,c),
(484,393,l),
(482,184,o),
(413,65,o),
(290,65,cs),
(212,65,o),
(156,112,o),
(143,188,c),
(47,167,l),
(69,60,o),
(164,-13,o),
(286,-13,cs)
);
},
{
closed = 1;
nodes = (
(212,339,o),
(150,402,o),
(150,504,cs),
(150,607,o),
(212,669,o),
(311,669,cs),
(409,669,o),
(472,607,o),
(472,504,cs),
(472,402,o),
(409,339,o),
(311,339,cs)
);
}
);
width = 626;
}
);
metricRight = zero;
unicode = 57;
},
{
color = 1;
glyphname = zero.osf;
layers = (
{
layerId = m01;
shapes = (
{
closed = 1;
nodes = (
(493,-14,o),
(604,102,o),
(604,283,cs),
(604,464,o),
(493,580,o),
(319,580,cs),
(145,580,o),
(34,464,o),
(34,283,cs),
(34,102,o),
(145,-14,o),
(319,-14,cs)
);
},
{
closed = 1;
nodes = (
(195,73,o),
(116,155,o),
(116,284,cs),
(116,412,o),
(195,494,o),
(319,494,cs),
(443,494,o),
(522,412,o),
(522,284,cs),
(522,155,o),
(443,73,o),
(319,73,cs)
);
}
);
width = 640;
},
{
layerId = "E9FB66CC-5D7A-47B2-9A25-A0E8EEF5BB81";
width = 600;
}
);
},
{
color = 1;
glyphname = one.osf;
layers = (
{
layerId = m01;
shapes = (
{
closed = 1;
nodes = (
(341,0,l),
(341,576,l),
(256,576,l),
(225,500,o),
(152,448,o),
(59,434,c),
(65,342,l),
(153,352,o),
(227,399,o),
(255,464,c),
(247,464,l),
(247,0,l)
);
}
);
width = 420;
},
{
layerId = "E9FB66CC-5D7A-47B2-9A25-A0E8EEF5BB81";
width = 600;
}
);
},
{
color = 1;
glyphname = two.osf;
layers = (
{
layerId = m01;
shapes = (
{
closed = 1;
nodes = (
(518,0,l),
(518,80,l),
(115,80,l),
(150,59,l),
(184,204,o),
(505,217,o),
(505,416,cs),
(505,524,o),
(420,593,o),
(295,593,cs),
(163,593,o),
(72,511,o),
(49,402,c),
(135,368,l),
(149,459,o),
(201,521,o),
(290,521,cs),
(363,520,o),
(412,475,o),
(412,413,cs),
(412,246,o),
(72,284,o),
(46,20,cs),
(44,0,l)
);
}
);
width = 579;
},
{
layerId = "E9FB66CC-5D7A-47B2-9A25-A0E8EEF5BB81";
width = 600;
}
);
},
{
color = 9;
glyphname = zero.dnom;
layers = (
{
layerId = m01;
shapes = (
{
closed = 1;
nodes = (
(292,-10,o),
(358,71,o),
(358,191,cs),
(358,312,o),
(292,393,o),
(194,393,cs),
(95,393,o),
(29,311,o),
(29,191,cs),
(29,71,o),
(95,-10,o),
(194,-10,cs)
);
},
{
closed = 1;
nodes = (
(141,49,o),
(107,104,o),
(107,192,cs),
(107,279,o),
(141,334,o),
(194,334,cs),
(246,334,o),
(280,279,o),
(280,192,cs),
(280,104,o),
(246,49,o),
(194,49,cs)
);
}
);
userData = {
RMXScaler = {
adjustSpace = 8;
height = 52;
verticalShift = -2;
weight = -20;
width = 54;
};
};
width = 387;
},
{
layerId = "E9FB66CC-5D7A-47B2-9A25-A0E8EEF5BB81";
shapes = (
{
closed = 1;
nodes = (
(300,-12,o),
(377,76,o),
(377,196,cs),
(377,315,o),
(300,403,o),
(200,403,cs),
(100,403,o),
(23,315,o),
(23,196,cs),
(23,76,o),
(100,-12,o),
(200,-12,cs)
);
},
{
closed = 1;
nodes = (
(165,73,o),
(142,121,o),
(142,196,cs),
(142,272,o),
(165,319,o),
(200,319,cs),
(235,319,o),
(258,272,o),
(258,196,cs),
(258,121,o),
(235,73,o),
(200,73,cs)
);
}
);
userData = {
RMXScaler = {
adjustSpace = 8;
height = 52;
verticalShift = -2;
weight = -32;
width = 52;
};
};
width = 400;
}
);
userData = {
RMXScaler = {
source = zero;
};
};
},
{
color = 9;
glyphname = one.dnom;
layers = (
{
background = {
shapes = (
{
closed = 1;
nodes = (
(297,0,l),
(297,732,l),
(213,732,l),
(181,654,o),
(105,598,o),
(16,586,c),
(21,494,l),
(108,506,o),
(182,552,o),
(211,607,c),
(203,607,l),
(203,0,l)
);
}
);
};
layerId = m01;
shapes = (
{
closed = 1;
nodes = (
(196,-2,l),
(196,385,l),
(129,385,l),
(106,346,o),
(66,319,o),
(16,309,c),
(23,234,l),
(70,242,o),
(109,272,o),
(126,307,c),
(121,307,l),
(121,-2,l)
);
}
);
userData = {
RMXScaler = {
adjustSpace = 8;
height = 52;
verticalShift = -2;
weight = -20;
width = 54;
};
};
width = 248;
},
{
layerId = "E9FB66CC-5D7A-47B2-9A25-A0E8EEF5BB81";
shapes = (
{
closed = 1;
nodes = (
(236,-2,l),
(236,395,l),
(135,395,l),
(103,356,o),
(61,330,o),
(14,315,c),
(27,199,l),
(73,212,o),
(107,249,o),
(127,287,c),
(122,287,l),
(122,-2,l)
);
}
);
userData = {
RMXScaler = {
adjustSpace = 8;
height = 52;
verticalShift = -2;
weight = -32;
width = 52;
};
};
width = 280;
}
);
userData = {
RMXScaler = {
source = one;
};
};
},
{
color = 9;
glyphname = two.dnom;
layers = (
{
layerId = m01;
shapes = (
{
closed = 1;
nodes = (
(305,-2,l),
(305,61,l),
(112,61,l),
(114,57,l),
(149,136,o),
(302,162,o),
(302,277,cs),
(302,346,o),
(247,393,o),
(167,393,cs),
(94,393,o),
(35,352,o),
(21,289,c),
(91,266,l),
(96,309,o),
(127,334,o),
(165,334,cs),
(202,334,o),
(226,311,o),
(226,278,cs),
(226,182,o),
(34,158,o),
(22,10,cs),
(21,-2,l)
);
}
);
userData = {
RMXScaler = {
adjustSpace = 8;
height = 52;
verticalShift = -2;
weight = -20;
width = 54;
};
};
width = 334;
},
{
layerId = "E9FB66CC-5D7A-47B2-9A25-A0E8EEF5BB81";
shapes = (
{
closed = 1;
nodes = (
(306,-2,l),
(306,89,l),
(153,89,l),
(155,85,l),
(202,144,o),
(310,166,o),
(310,271,cs),
(310,343,o),
(256,403,o),
(165,403,cs),
(93,403,o),
(32,365,o),
(17,297,c),
(119,262,l),
(117,302,o),
(139,319,o),
(159,319,cs),
(183,319,o),
(195,301,o),
(195,276,cs),
(195,189,o),
(15,163,o),
(15,13,cs),
(15,-2,l)
);
}
);
userData = {
RMXScaler = {
adjustSpace = 8;
height = 52;
verticalShift = -2;
weight = -32;
width = 52;
};
};
width = 338;
},
{
associatedMasterId = m01;
layerId = "14669DBD-BB92-4E43-8DF4-2BB941053677";
name = "6 Jun 23, 16:36";
shapes = (
{
closed = 1;
nodes = (
(540,0,l),
(540,84,l),
(146,84,l),
(188,251,o),
(534,304,o),
(534,536,cs),
(534,660,o),
(436,746,o),
(300,746,cs),
(164,746,o),
(54,660,o),
(28,536,c),
(124,512,l),
(140,608,o),
(210,668,o),
(298,668,cs),
(380,668,o),
(436,616,o),
(436,540,cs),
(436,332,o),
(36,303,o),
(36,20,cs),
(36,0,l)
);
}
);
width = 576;
}
);
userData = {
RMXScaler = {
source = two;
};
};
},
{
color = 9;
glyphname = three.dnom;
layers = (
{
layerId = m01;
shapes = (
{
closed = 1;
nodes = (
(257,-10,o),
(317,37,o),
(317,107,cs),
(317,161,o),
(282,198,o),
(231,205,c),
(231,201,l),
(275,211,o),
(303,245,o),
(303,288,cs),
(303,350,o),
(249,393,o),
(169,393,cs),
(93,393,o),
(36,354,o),
(29,301,c),
(98,279,l),
(103,315,o),
(130,338,o),
(167,338,cs),
(204,338,o),
(227,316,o),
(227,283,cs),
(227,248,o),
(202,226,o),
(165,226,cs),
(124,226,l),
(124,178,l),
(169,178,ls),
(212,178,o),
(239,152,o),
(239,111,cs),
(239,71,o),
(212,45,o),
(169,45,cs),
(126,45,o),
(97,72,o),
(93,114,c),
(17,98,l),
(23,34,o),
(83,-10,o),
(168,-10,cs)
);
}
);
userData = {
RMXScaler = {
adjustSpace = 8;
height = 52;
verticalShift = -2;
weight = -20;
width = 54;
};
};
width = 343;
},
{
layerId = "E9FB66CC-5D7A-47B2-9A25-A0E8EEF5BB81";
shapes = (
{
closed = 1;
nodes = (
(260,-12,o),
(332,36,o),
(332,112,cs),
(332,162,o),
(297,201,o),
(239,207,c),
(239,203,l),
(285,216,o),
(313,251,o),
(313,293,cs),
(313,358,o),
(253,403,o),
(168,403,cs),
(85,403,o),
(23,359,o),
(18,310,c),
(118,275,l),
(124,310,o),
(143,326,o),
(163,326,cs),
(185,326,o),
(198,310,o),
(198,281,cs),
(198,253,o),
(183,234,o),
(160,234,cs),
(127,234,l),
(127,174,l),
(170,174,ls),
(197,174,o),
(215,153,o),
(215,119,cs),
(215,87,o),
(198,66,o),
(171,66,cs),
(144,66,o),
(125,89,o),
(121,125,c),
(9,97,l),
(17,33,o),
(77,-12,o),
(167,-12,cs)
);
}
);
userData = {
RMXScaler = {
adjustSpace = 8;
height = 52;
verticalShift = -2;
weight = -32;
width = 52;
};
};
width = 349;
},
{
associatedMasterId = m01;
layerId = "3350A466-376B-43A6-A60A-32D5F9FB2412";
name = "6 Jun 23, 16:38";
shapes = (
{
closed = 1;
nodes = (
(457,-14,o),
(562,73,o),
(562,200,cs),
(562,298,o),
(498,376,o),
(404,392,c),
(404,384,l),
(482,400,o),
(536,469,o),
(536,554,cs),
(536,668,o),
(442,746,o),
(304,746,cs),
(168,746,o),
(64,668,o),
(44,552,c),
(136,528,l),
(153,615,o),
(221,670,o),
(308,670,cs),
(389,670,o),
(440,623,o),
(440,548,cs),
(440,472,o),
(386,424,o),
(300,424,cs),
(237,424,l),
(237,348,l),
(300,348,ls),
(399,348,o),
(462,292,o),
(462,205,cs),
(462,119,o),
(401,64,o),
(306,64,cs),
(203,64,o),
(132,128,o),
(124,228,c),
(24,212,l),
(35,78,o),
(148,-14,o),
(304,-14,cs)
);
}
);
width = 602;
}
);
metricRight = eight.dnom;
userData = {
RMXScaler = {
source = three;
};
};
},
{
color = 9;
glyphname = four.dnom;
layers = (
{
layerId = m01;
shapes = (
{
closed = 1;
nodes = (
(282,-2,l),
(282,385,l),
(215,385,l),
(15,135,l),
(15,82,l),
(334,82,l),
(334,141,l),
(78,141,l),
(80,137,l),
(212,300,l),
(208,300,l),
(208,-2,l)
);
}
);
userData = {
RMXScaler = {
adjustSpace = 8;
height = 52;
verticalShift = -2;
weight = -20;
width = 54;
};
};
width = 348;
},
{
layerId = "E9FB66CC-5D7A-47B2-9A25-A0E8EEF5BB81";
shapes = (
{
closed = 1;
nodes = (
(307,-2,l),
(307,394,l),
(212,394,l),
(11,134,l),
(11,65,l),
(360,65,l),
(360,152,l),
(104,152,l),
(106,148,l),
(197,265,l),
(193,265,l),
(193,-2,l)
);
}
);
userData = {
RMXScaler = {
adjustSpace = 8;
height = 52;
verticalShift = -2;
weight = -32;
width = 52;
};
};
width = 370;
},
{
associatedMasterId = m01;
layerId = "E86B6585-58E5-417F-A50D-8044A7D1B55D";
name = "6 ago 23, 18:28";
shapes = (
{
closed = 1;
nodes = (
(462,0,l),
(462,732,l),
(370,732,l),
(16,266,l),
(16,182,l),
(554,182,l),
(554,262,l),
(108,262,l),
(368,616,l),
(368,0,l)
);
}
);
width = 568;
},
{
associatedMasterId = "E9FB66CC-5D7A-47B2-9A25-A0E8EEF5BB81";
layerId = "07B64D37-A9E4-423F-98B0-92B319495AE6";
name = "6 ago 23, 18:28";
shapes = (
{
closed = 1;
nodes = (
(506,0,l),
(506,744,l),
(390,744,l),
(10,256,l),
(10,160,l),
(602,160,l),
(602,280,l),
(158,280,l),
(366,552,l),
(366,0,l)
);
}
);
width = 612;
}
);
userData = {
RMXScaler = {
source = four;
};
};
},
{
color = 9;
glyphname = five.dnom;
layers = (
{
layerId = m01;
shapes = (
{
closed = 1;
nodes = (
(265,-10,o),
(326,41,o),
(326,125,cs),
(326,202,o),
(270,254,o),
(191,254,cs),
(137,254,o),
(96,233,o),
(83,200,c),
(105,200,l),
(124,326,l),
(304,326,l),
(304,385,l),
(65,385,l),
(38,173,l),
(101,158,l),
(114,180,o),
(140,194,o),
(176,194,cs),
(220,194,o),
(249,165,o),
(249,123,cs),
(249,81,o),
(224,51,o),
(175,51,cs),
(136,51,o),
(107,73,o),
(103,107,c),
(29,97,l),
(38,33,o),
(97,-10,o),
(178,-10,cs)
);
}
);
userData = {
RMXScaler = {
adjustSpace = 8;
height = 52;
verticalShift = -2;
weight = -20;
width = 54;
};
};
width = 348;
},
{
layerId = "E9FB66CC-5D7A-47B2-9A25-A0E8EEF5BB81";
shapes = (
{
closed = 1;
nodes = (
(277,-12,o),
(340,33,o),
(340,125,cs),
(340,205,o),
(280,254,o),
(199,254,cs),
(138,254,o),
(96,232,o),
(84,200,c),
(132,200,l),
(148,312,l),
(318,312,l),
(318,395,l),
(57,395,l),
(28,158,l),
(117,143,l),
(128,155,o),
(149,164,o),
(179,164,cs),
(200,164,o),
(217,146,o),
(217,123,cs),
(217,104,o),
(214,81,o),
(180,81,cs),
(160,81,o),
(143,91,o),
(142,106,c),
(35,95,l),
(43,31,o),
(103,-12,o),
(189,-12,cs)
);
}
);
userData = {
RMXScaler = {
adjustSpace = 8;
height = 52;
verticalShift = -2;
weight = -32;
width = 52;
};
};
width = 353;
}
);
userData = {
RMXScaler = {
source = five;
};
};
},
{
color = 9;
glyphname = six.dnom;
layers = (
{
layerId = m01;
shapes = (
{
closed = 1;
nodes = (
(279,-10,o),
(340,45,o),
(340,123,cs),
(340,199,o),
(282,250,o),
(197,250,cs),
(142,250,o),
(97,226,o),
(84,187,c),
(98,187,l),
(99,273,o),
(129,334,o),
(192,334,cs),
(230,334,o),
(255,314,o),
(262,282,c),
(327,304,l),
(312,354,o),
(260,391,o),
(193,391,cs),
(91,391,o),
(29,308,o),
(29,181,cs),
(29,66,o),
(86,-10,o),
(190,-10,cs)
);
},
{
closed = 1;
nodes = (
(142,42,o),
(111,74,o),
(111,121,cs),
(111,169,o),
(142,199,o),
(187,199,cs),
(233,199,o),
(264,168,o),
(264,121,cs),
(264,74,o),
(234,42,o),
(187,42,cs)
);
}
);
userData = {
RMXScaler = {
adjustSpace = 8;
height = 52;
verticalShift = -2;
weight = -20;
width = 54;
};
};
width = 365;
},
{
layerId = "E9FB66CC-5D7A-47B2-9A25-A0E8EEF5BB81";
shapes = (
{
closed = 1;
nodes = (
(292,-12,o),
(355,44,o),
(355,124,cs),
(355,200,o),
(294,250,o),
(204,250,cs),
(149,250,o),
(103,223,o),
(92,187,c),
(123,187,l),
(123,250,o),
(130,316,o),
(195,316,cs),
(225,316,o),
(247,304,o),
(255,274,c),
(342,310,l),
(324,364,o),
(263,400,o),
(191,400,cs),
(81,400,o),
(23,319,o),
(23,188,cs),
(23,73,o),
(84,-12,o),
(199,-12,cs)
);
},
{
closed = 1;
nodes = (
(164,59,o),
(142,84,o),
(142,118,cs),
(142,156,o),
(164,178,o),
(192,178,cs),
(220,178,o),
(241,154,o),
(241,121,cs),
(241,84,o),
(221,59,o),
(192,59,cs)
);
}
);
userData = {
RMXScaler = {
adjustSpace = 8;
height = 52;
verticalShift = -2;
weight = -32;
width = 52;
};
};
width = 374;
}
);
metricLeft = zero.dnom;
userData = {
RMXScaler = {
source = six;
};
};
},
{
color = 9;
glyphname = seven.dnom;
layers = (
{
layerId = m01;
shapes = (
{
closed = 1;
nodes = (
(159,-2,l),
(169,141,o),
(219,260,o),
(304,337,c),
(304,385,l),
(11,385,l),
(11,325,l),
(218,325,l),
(216,330,l),
(142,249,o),
(89,121,o),
(81,-2,c)
);
}
);
userData = {
RMXScaler = {
adjustSpace = 8;
height = 52;
verticalShift = -2;
weight = -20;
width = 54;
};
};
width = 317;
},
{
layerId = "E9FB66CC-5D7A-47B2-9A25-A0E8EEF5BB81";
shapes = (
{
closed = 1;
nodes = (
(198,-2,l),
(217,163,o),
(261,278,o),
(333,331,c),
(333,395,l),
(10,395,l),
(10,308,l),
(198,308,l),
(196,312,l),
(137,235,o),
(92,117,o),
(81,-2,c)
);
}
);
userData = {
RMXScaler = {
adjustSpace = 8;
height = 52;
verticalShift = -2;
weight = -32;
width = 52;
};
};
width = 339;
}
);
userData = {
KernOnName = seven;
RMXScaler = {
source = seven;
};
};
},
{
color = 9;
glyphname = eight.dnom;
layers = (
{
layerId = m01;
shapes = (
{
closed = 1;
nodes = (
(281,-9,o),
(346,38,o),
(346,106,cs),
(346,151,o),
(319,190,o),
(270,209,c),
(270,205,l),
(311,220,o),
(331,251,o),
(331,287,cs),
(331,350,o),
(272,393,o),
(186,393,cs),
(100,393,o),
(41,350,o),
(41,287,cs),
(41,251,o),
(62,220,o),
(103,205,c),
(103,209,l),
(54,190,o),
(26,151,o),
(26,106,cs),
(26,38,o),
(91,-9,o),
(186,-9,cs)
);
},
{
closed = 1;
nodes = (
(136,48,o),
(104,75,o),
(104,116,cs),
(104,157,o),
(136,183,o),
(186,183,cs),
(236,183,o),
(268,157,o),
(268,116,cs),
(268,74,o),
(235,48,o),
(186,48,cs)
);
},
{
closed = 1;
nodes = (
(142,229,o),
(114,250,o),
(114,282,cs),
(114,315,o),
(142,336,o),
(186,336,cs),
(230,336,o),
(258,315,o),
(258,282,cs),
(258,250,o),
(230,229,o),
(186,229,cs)
);
}
);
userData = {
RMXScaler = {
adjustSpace = 8;
height = 52;
verticalShift = -2;
weight = -20;
width = 54;
};
};
width = 372;
},
{
layerId = "E9FB66CC-5D7A-47B2-9A25-A0E8EEF5BB81";
shapes = (
{
closed = 1;
nodes = (
(293,-9,o),
(364,39,o),
(364,111,cs),
(364,153,o),
(343,189,o),
(301,214,c),
(301,209,l),
(331,227,o),
(348,252,o),
(348,289,cs),
(348,358,o),
(284,403,o),
(191,403,cs),
(97,403,o),
(33,358,o),
(33,289,cs),
(33,255,o),
(49,229,o),
(82,209,c),
(82,214,l),
(40,189,o),
(17,153,o),
(17,111,cs),
(17,39,o),
(88,-9,o),
(191,-9,cs)
);
},
{
closed = 1;
nodes = (
(158,74,o),
(136,95,o),
(136,128,cs),
(136,161,o),
(158,182,o),
(191,182,cs),
(223,182,o),
(246,161,o),
(246,128,cs),
(246,95,o),
(224,74,o),
(191,74,cs)
);
},
{
closed = 1;
nodes = (
(161,241,o),
(141,257,o),
(141,281,cs),
(141,305,o),
(161,321,o),
(191,321,cs),
(221,321,o),
(241,305,o),
(241,281,cs),
(241,257,o),
(221,241,o),
(191,241,cs)
);
}
);
userData = {
RMXScaler = {
adjustSpace = 8;
height = 52;
verticalShift = -2;
weight = -32;
width = 52;
};
};
width = 381;
}
);
userData = {
RMXScaler = {
source = eight;
};
};
},
{
color = 9;
glyphname = nine.dnom;
layers = (
{
background = {
shapes = (
{
closed = 1;
nodes = (
(456,-13,o),
(573,142,o),
(573,402,cs),
(573,619,o),
(471,745,o),
(299,745,cs),
(149,745,o),
(48,647,o),
(48,502,cs),
(48,361,o),
(143,266,o),
(287,266,cs),
(390,266,o),
(471,316,o),
(492,393,c),
(479,393,l),
(477,184,o),
(408,65,o),
(285,65,cs),
(207,65,o),
(151,112,o),
(138,188,c),
(42,167,l),
(65,56,o),
(155,-13,o),
(276,-13,cs)
);
},
{
closed = 1;
nodes = (
(207,339,o),
(145,402,o),
(145,504,cs),
(145,607,o),
(207,669,o),
(306,669,cs),
(404,669,o),
(467,607,o),
(467,504,cs),
(467,402,o),
(404,339,o),
(306,339,cs)
);
}
);
};
layerId = m01;
name = Regular;
shapes = (
{
closed = 1;
nodes = (
(280,-4,o),
(332,87,o),
(332,199,cs),
(332,314,o),
(274,391,o),
(171,391,cs),
(83,391,o),
(25,336,o),
(25,259,cs),
(25,185,o),
(82,136,o),
(160,136,cs),
(214,136,o),
(249,155,o),
(267,186,c),
(263,186,l),
(260,106,o),
(230,47,o),
(166,47,cs),
(129,47,o),
(100,66,o),
(92,100,c),
(28,78,l),
(45,21,o),
(108,-14,o),
(177,-10,cs)
);
},
{
closed = 1;
nodes = (
(128,187,o),
(98,217,o),
(98,262,cs),
(98,308,o),
(129,339,o),
(174,339,cs),
(220,339,o),
(250,306,o),
(250,261,cs),
(250,215,o),
(219,187,o),
(174,187,cs)
);
}
);
userData = {
RMXScaler = {
adjustSpace = 8;
height = 52;
verticalShift = -2;
weight = -20;
width = 54;
};
};
width = 361;
},
{
layerId = "E9FB66CC-5D7A-47B2-9A25-A0E8EEF5BB81";
shapes = (
{
closed = 1;
nodes = (
(276,-17,o),
(357,73,o),
(357,207,cs),
(357,313,o),
(293,400,o),
(178,400,cs),
(80,400,o),
(16,341,o),
(16,256,cs),
(16,182,o),
(82,135,o),
(165,135,cs),
(204,135,o),
(231,141,o),
(262,159,c),
(256,159,l),
(244,118,o),
(215,70,o),
(165,70,cs),
(136,70,o),
(112,79,o),
(104,106,c),
(17,71,l),
(38,23,o),
(98,-8,o),
(159,-11,cs)
);
},
{
closed = 1;
nodes = (
(149,208,o),
(125,230,o),
(125,263,cs),
(125,300,o),
(151,328,o),
(185,328,cs),
(215,328,o),
(237,298,o),
(237,263,cs),
(237,228,o),
(214,208,o),
(184,208,cs)
);
}
);
userData = {
RMXScaler = {
adjustSpace = 8;
height = 52;
verticalShift = -2;
weight = -32;
width = 52;
};
};
width = 380;
},
{
associatedMasterId = m01;
layerId = "2171C64F-D7EA-408E-8EA1-99417316F494";
name = "15 apr 23, 22:17";
shapes = (
{
closed = 1;
nodes = (
(461,-13,o),
(578,146,o),
(578,402,cs),
(578,619,o),
(476,745,o),
(304,745,cs),
(154,745,o),
(53,647,o),
(53,502,cs),
(53,361,o),
(149,266,o),
(292,266,cs),
(395,266,o),
(476,316,o),
(497,393,c),
(484,393,l),
(482,184,o),
(413,65,o),
(290,65,cs),
(212,65,o),
(156,112,o),
(143,188,c),
(47,167,l),
(69,60,o),
(164,-13,o),
(286,-13,cs)
);
},
{
closed = 1;
nodes = (
(212,339,o),
(150,402,o),
(150,504,cs),
(150,607,o),
(212,669,o),
(311,669,cs),
(409,669,o),
(472,607,o),
(472,504,cs),
(472,402,o),
(409,339,o),
(311,339,cs)
);
}
);
width = 626;
}
);
metricRight = zero.dnom;
userData = {
RMXScaler = {
source = nine;
};
};
},
{
glyphname = fraction;
layers = (
{
layerId = m01;
shapes = (
{
closed = 1;
nodes = (
(360,696,l),
(298,746,l),
(-248,36,l),
(-186,-14,l)
);
}
);
width = 112;
},
{
layerId = "E9FB66CC-5D7A-47B2-9A25-A0E8EEF5BB81";
shapes = (
{
closed = 1;
nodes = (
(378,692,l),
(292,760,l),
(-256,52,l),
(-170,-16,l)
);
}
);
width = 122;
}
);
metricRight = "=|";
unicode = 8260;
userData = {
KernOnSpecialSpacing = {
L = fraction;
R = fraction;
};
};
},
{
color = 9;
glyphname = zeroinferior;
layers = (
{
layerId = m01;
shapes = (
{
closed = 1;
nodes = (
(329,-82,o),
(403,10,o),
(403,149,cs),
(403,289,o),
(329,381,o),
(217,381,cs),
(105,381,o),
(31,289,o),
(31,149,cs),
(31,10,o),
(105,-82,o),
(217,-82,cs)
);
},
{
closed = 1;
nodes = (
(154,-18,o),
(113,47,o),
(113,150,cs),
(113,253,o),
(154,318,o),
(217,318,cs),
(280,318,o),
(320,252,o),
(320,150,cs),
(320,48,o),
(280,-18,o),
(217,-18,cs)
);
}
);
userData = {
RMXScaler = {
adjustSpace = 6;
height = 60;
verticalShift = -73;
weight = -16;
width = 62;
};
};
width = 434;
},
{
layerId = "E9FB66CC-5D7A-47B2-9A25-A0E8EEF5BB81";
shapes = (
{
closed = 1;
nodes = (
(337,-84,o),
(421,16,o),
(421,154,cs),
(421,291,o),
(337,391,o),
(223,391,cs),
(109,391,o),
(25,291,o),
(25,154,cs),
(25,16,o),
(109,-84,o),
(223,-84,cs)
);
},
{
closed = 1;
nodes = (
(177,6,o),
(148,65,o),
(148,154,cs),
(148,244,o),
(177,303,o),
(223,303,cs),
(269,303,o),
(299,246,o),
(299,154,cs),
(299,63,o),
(269,6,o),
(223,6,cs)
);
}
);
userData = {
RMXScaler = {
adjustSpace = 6;
height = 60;
verticalShift = -73;
weight = -28;
width = 60;
};
};
width = 446;
}
);
unicode = 8320;
userData = {
RMXScaler = {
source = zero;
};
};
},
{
color = 9;
glyphname = oneinferior;
layers = (
{
background = {
shapes = (
{
closed = 1;
nodes = (
(297,0,l),
(297,732,l),
(213,732,l),
(181,654,o),
(105,598,o),
(16,586,c),
(21,494,l),
(108,506,o),
(182,552,o),
(211,607,c),
(203,607,l),
(203,0,l)
);
}
);
};
layerId = m01;
shapes = (
{
closed = 1;
nodes = (
(214,-73,l),
(214,372,l),
(143,372,l),
(119,326,o),
(72,295,o),
(15,284,c),
(22,206,l),
(76,215,o),
(121,247,o),
(140,287,c),
(135,287,l),
(135,-73,l)
);
}
);
userData = {
RMXScaler = {
adjustSpace = 6;
height = 60;
verticalShift = -73;
weight = -16;
width = 62;
};
};
width = 271;
},
{
layerId = "E9FB66CC-5D7A-47B2-9A25-A0E8EEF5BB81";
shapes = (
{
closed = 1;
nodes = (
(253,-73,l),
(253,382,l),
(149,382,l),
(115,336,o),
(68,306,o),
(13,290,c),
(26,171,l),
(79,184,o),
(120,224,o),
(141,267,c),
(135,267,l),
(135,-73,l)
);
}
);
userData = {
RMXScaler = {
adjustSpace = 6;
height = 60;
verticalShift = -73;
weight = -28;
width = 60;
};
};
width = 302;
}
);
unicode = 8321;
userData = {
RMXScaler = {
source = one;
};
};
},
{
color = 9;
glyphname = twoinferior;
layers = (
{
layerId = m01;
shapes = (
{
closed = 1;
nodes = (
(345,-73,l),
(345,-6,l),
(118,-6,l),
(120,-11,l),
(159,85,o),
(341,116,o),
(341,250,cs),
(341,329,o),
(278,381,o),
(189,381,cs),
(104,381,o),
(38,333,o),
(22,261,c),
(97,238,l),
(104,287,o),
(140,318,o),
(187,318,cs),
(232,318,o),
(261,290,o),
(261,250,cs),
(261,138,o),
(36,111,o),
(24,-59,cs),
(23,-73,l)
);
}
);
userData = {
RMXScaler = {
adjustSpace = 6;
height = 60;
verticalShift = -73;
weight = -16;
width = 62;
};
};
width = 375;
},
{
layerId = "E9FB66CC-5D7A-47B2-9A25-A0E8EEF5BB81";
shapes = (
{
closed = 1;
nodes = (
(346,-73,l),
(346,22,l),
(158,22,l),
(161,18,l),
(211,93,o),
(348,120,o),
(348,244,cs),
(348,326,o),
(286,391,o),
(186,391,cs),
(105,391,o),
(35,347,o),
(18,269,c),
(124,233,l),
(124,278,o),
(150,303,o),
(181,303,cs),
(212,303,o),
(229,280,o),
(229,249,cs),
(229,145,o),
(16,116,o),
(16,-56,cs),
(16,-73,l)
);
}
);
userData = {
RMXScaler = {
adjustSpace = 6;
height = 60;
verticalShift = -73;
weight = -28;
width = 60;
};
};
width = 378;
},
{
associatedMasterId = m01;
layerId = "14669DBD-BB92-4E43-8DF4-2BB941053677";
name = "6 Jun 23, 16:36";
shapes = (
{
closed = 1;
nodes = (
(540,0,l),
(540,84,l),
(146,84,l),
(188,251,o),
(534,304,o),
(534,536,cs),
(534,660,o),
(436,746,o),
(300,746,cs),
(164,746,o),
(54,660,o),
(28,536,c),
(124,512,l),
(140,608,o),
(210,668,o),
(298,668,cs),
(380,668,o),
(436,616,o),
(436,540,cs),
(436,332,o),
(36,303,o),
(36,20,cs),
(36,0,l)
);
}
);
width = 576;
}
);
unicode = 8322;
userData = {
RMXScaler = {
source = two;
};
};
},
{
color = 9;
glyphname = threeinferior;
layers = (
{
layerId = m01;
shapes = (
{
closed = 1;
nodes = (
(290,-82,o),
(357,-28,o),
(357,52,cs),
(357,112,o),
(319,156,o),
(259,165,c),
(259,161,l),
(309,172,o),
(341,210,o),
(341,261,cs),
(341,332,o),
(280,381,o),
(190,381,cs),
(105,381,o),
(41,337,o),
(33,276,c),
(106,252,l),
(112,294,o),
(143,322,o),
(189,322,cs),
(233,322,o),
(261,296,o),
(261,256,cs),
(261,215,o),
(232,188,o),
(187,188,cs),
(139,188,l),
(139,135,l),
(190,135,ls),
(242,135,o),
(274,104,o),
(274,56,cs),
(274,8,o),
(241,-22,o),
(190,-22,cs),
(139,-22,o),
(103,9,o),
(99,59,c),
(18,42,l),
(25,-31,o),
(92,-82,o),
(189,-82,cs)
);
}
);
userData = {
RMXScaler = {
adjustSpace = 6;
height = 60;
verticalShift = -73;
weight = -16;
width = 62;
};
};
width = 385;
},
{
layerId = "E9FB66CC-5D7A-47B2-9A25-A0E8EEF5BB81";
shapes = (
{
closed = 1;
nodes = (
(294,-84,o),
(372,-29,o),
(372,57,cs),
(372,117,o),
(330,161,o),
(268,168,c),
(268,163,l),
(320,177,o),
(351,217,o),
(351,265,cs),
(351,339,o),
(285,391,o),
(190,391,cs),
(96,391,o),
(28,342,o),
(21,284,c),
(126,248,l),
(133,291,o),
(158,310,o),
(185,310,cs),
(214,310,o),
(232,289,o),
(232,255,cs),
(232,219,o),
(212,196,o),
(181,196,cs),
(141,196,l),
(141,132,l),
(191,132,ls),
(227,132,o),
(250,105,o),
(250,64,cs),
(250,25,o),
(228,-1,o),
(192,-1,cs),
(156,-1,o),
(131,27,o),
(127,70,c),
(10,42,l),
(18,-32,o),
(87,-84,o),
(189,-84,cs)
);
}
);
userData = {
RMXScaler = {
adjustSpace = 6;
height = 60;
verticalShift = -73;
weight = -28;
width = 60;
};
};
width = 391;
},
{
associatedMasterId = m01;
layerId = "3350A466-376B-43A6-A60A-32D5F9FB2412";
name = "6 Jun 23, 16:38";
shapes = (
{
closed = 1;
nodes = (
(457,-14,o),
(562,73,o),
(562,200,cs),
(562,298,o),
(498,376,o),
(404,392,c),
(404,384,l),
(482,400,o),
(536,469,o),
(536,554,cs),
(536,668,o),
(442,746,o),
(304,746,cs),
(168,746,o),
(64,668,o),
(44,552,c),
(136,528,l),
(153,615,o),
(221,670,o),
(308,670,cs),
(389,670,o),
(440,623,o),
(440,548,cs),
(440,472,o),
(386,424,o),
(300,424,cs),
(237,424,l),
(237,348,l),
(300,348,ls),
(399,348,o),
(462,292,o),
(462,205,cs),
(462,119,o),
(401,64,o),
(306,64,cs),
(203,64,o),
(132,128,o),
(124,228,c),
(24,212,l),
(35,78,o),
(148,-14,o),
(304,-14,cs)
);
}
);
width = 602;
}
);
unicode = 8323;
userData = {
RMXScaler = {
source = three;
};
};
},
{
color = 9;
glyphname = fourinferior;
layers = (
{
layerId = m01;
shapes = (
{
closed = 1;
nodes = (
(314,-73,l),
(314,371,l),
(242,371,l),
(14,86,l),
(14,27,l),
(373,27,l),
(373,90,l),
(81,90,l),
(83,85,l),
(241,283,l),
(236,283,l),
(236,-73,l)
);
}
);
userData = {
RMXScaler = {
adjustSpace = 6;
height = 60;
verticalShift = -73;
weight = -16;
width = 62;
};
};
width = 386;
},
{
layerId = "E9FB66CC-5D7A-47B2-9A25-A0E8EEF5BB81";
shapes = (
{
closed = 1;
nodes = (
(340,-73,l),
(340,380,l),
(240,380,l),
(11,84,l),
(11,10,l),
(400,10,l),
(400,101,l),
(108,101,l),
(110,96,l),
(227,248,l),
(222,248,l),
(222,-73,l)
);
}
);
userData = {
RMXScaler = {
adjustSpace = 6;
height = 60;
verticalShift = -73;
weight = -28;
width = 60;
};
};
width = 410;
},
{
associatedMasterId = m01;
layerId = "E86B6585-58E5-417F-A50D-8044A7D1B55D";
name = "6 ago 23, 18:28";
shapes = (
{
closed = 1;
nodes = (
(462,0,l),
(462,732,l),
(370,732,l),
(16,266,l),
(16,182,l),
(554,182,l),
(554,262,l),
(108,262,l),
(368,616,l),
(368,0,l)
);
}
);
width = 568;
},
{
associatedMasterId = "E9FB66CC-5D7A-47B2-9A25-A0E8EEF5BB81";
layerId = "07B64D37-A9E4-423F-98B0-92B319495AE6";
name = "6 ago 23, 18:28";
shapes = (
{
closed = 1;
nodes = (
(506,0,l),
(506,744,l),
(390,744,l),
(10,256,l),
(10,160,l),
(602,160,l),
(602,280,l),
(158,280,l),
(366,552,l),
(366,0,l)
);
}
);
width = 612;
}
);
unicode = 8324;
userData = {
RMXScaler = {
source = four;
};
};
},
{
color = 9;
glyphname = fiveinferior;
layers = (
{
layerId = m01;
shapes = (
{
closed = 1;
nodes = (
(298,-82,o),
(367,-22,o),
(367,73,cs),
(367,162,o),
(303,222,o),
(214,222,cs),
(154,222,o),
(107,198,o),
(92,160,c),
(112,160,l),
(134,308,l),
(341,308,l),
(341,372,l),
(73,372,l),
(42,132,l),
(110,115,l),
(126,144,o),
(158,159,o),
(197,159,cs),
(251,159,o),
(286,124,o),
(286,71,cs),
(286,19,o),
(254,-17,o),
(196,-17,cs),
(149,-17,o),
(113,10,o),
(108,53,c),
(29,41,l),
(39,-31,o),
(105,-82,o),
(198,-82,cs)
);
}
);
userData = {
RMXScaler = {
adjustSpace = 6;
height = 60;
verticalShift = -73;
weight = -16;
width = 62;
};
};
width = 391;
},
{
layerId = "E9FB66CC-5D7A-47B2-9A25-A0E8EEF5BB81";
shapes = (
{
closed = 1;
nodes = (
(310,-84,o),
(381,-30,o),
(381,73,cs),
(381,164,o),
(314,222,o),
(222,222,cs),
(154,222,o),
(106,197,o),
(92,160,c),
(139,160,l),
(158,294,l),
(356,294,l),
(356,382,l),
(65,382,l),
(32,117,l),
(126,100,l),
(139,117,o),
(164,129,o),
(200,129,cs),
(232,129,o),
(255,105,o),
(255,71,cs),
(255,40,o),
(244,13,o),
(201,13,cs),
(170,13,o),
(149,30,o),
(147,52,c),
(35,40,l),
(45,-34,o),
(112,-84,o),
(209,-84,cs)
);
}
);
userData = {
RMXScaler = {
adjustSpace = 6;
height = 60;
verticalShift = -73;
weight = -28;
width = 60;
};
};
width = 396;
}
);
unicode = 8325;
userData = {
RMXScaler = {
source = five;
};
};
},
{
color = 9;
glyphname = sixinferior;
layers = (
{
layerId = m01;
shapes = (
{
closed = 1;
nodes = (
(313,-82,o),
(383,-20,o),
(383,71,cs),
(383,159,o),
(317,218,o),
(220,218,cs),
(154,218,o),
(106,188,o),
(92,145,c),
(104,145,l),
(105,249,o),
(144,319,o),
(216,319,cs),
(260,319,o),
(289,294,o),
(297,256,c),
(367,278,l),
(350,338,o),
(290,379,o),
(217,379,cs),
(102,379,o),
(31,282,o),
(31,137,cs),
(31,3,o),
(96,-82,o),
(212,-82,cs)
);
},
{
closed = 1;
nodes = (
(155,-25,o),
(118,13,o),
(118,70,cs),
(118,127,o),
(155,163,o),
(210,163,cs),
(265,163,o),
(302,126,o),
(302,69,cs),
(302,13,o),
(266,-25,o),
(210,-25,cs)
);
}
);
userData = {
RMXScaler = {
adjustSpace = 6;
height = 60;
verticalShift = -73;
weight = -16;
width = 62;
};
};
width = 409;
},
{
layerId = "E9FB66CC-5D7A-47B2-9A25-A0E8EEF5BB81";
shapes = (
{
closed = 1;
nodes = (
(326,-84,o),
(398,-20,o),
(398,72,cs),
(398,160,o),
(329,218,o),
(227,218,cs),
(164,218,o),
(113,187,o),
(100,145,c),
(129,145,l),
(130,241,o),
(151,301,o),
(219,301,cs),
(256,301,o),
(282,284,o),
(291,248,c),
(383,285,l),
(363,347,o),
(295,388,o),
(216,388,cs),
(92,388,o),
(25,293,o),
(25,144,cs),
(25,11,o),
(93,-84,o),
(221,-84,cs)
);
},
{
closed = 1;
nodes = (
(178,-9,o),
(150,22,o),
(150,66,cs),
(150,113,o),
(177,142,o),
(214,142,cs),
(252,142,o),
(280,112,o),
(280,69,cs),
(280,22,o),
(253,-9,o),
(215,-9,cs)
);
}
);
userData = {
RMXScaler = {
adjustSpace = 6;
height = 60;
verticalShift = -73;
weight = -28;
width = 60;
};
};
width = 419;
}
);
unicode = 8326;
userData = {
RMXScaler = {
source = six;
};
};
},
{
color = 9;
glyphname = seveninferior;
layers = (
{
layerId = m01;
shapes = (
{
closed = 1;
nodes = (
(172,-73,l),
(182,88,o),
(240,226,o),
(340,320,c),
(340,372,l),
(10,372,l),
(10,308,l),
(250,308,l),
(248,313,l),
(160,218,o),
(99,69,o),
(90,-73,c)
);
}
);
userData = {
RMXScaler = {
adjustSpace = 6;
height = 60;
verticalShift = -73;
weight = -16;
width = 62;
};
};
width = 353;
},
{
layerId = "E9FB66CC-5D7A-47B2-9A25-A0E8EEF5BB81";
shapes = (
{
closed = 1;
nodes = (
(210,-73,l),
(229,110,o),
(281,244,o),
(367,314,c),
(367,382,l),
(8,382,l),
(8,291,l),
(229,291,l),
(227,296,l),
(154,206,o),
(100,66,o),
(88,-73,c)
);
}
);
userData = {
RMXScaler = {
adjustSpace = 6;
height = 60;
verticalShift = -73;
weight = -28;
width = 60;
};
};
width = 373;
}
);
unicode = 8327;
userData = {
KernOnName = seven;
RMXScaler = {
source = seven;
};
};
},
{
color = 9;
glyphname = eightinferior;
layers = (
{
layerId = m01;
shapes = (
{
closed = 1;
nodes = (
(316,-81,o),
(389,-27,o),
(389,51,cs),
(389,105,o),
(355,150,o),
(300,170,c),
(300,165,l),
(347,181,o),
(372,217,o),
(372,260,cs),
(372,331,o),
(306,381,o),
(209,381,cs),
(111,381,o),
(45,331,o),
(45,260,cs),
(45,217,o),
(71,181,o),
(118,165,c),
(118,170,l),
(63,150,o),
(28,105,o),
(28,51,cs),
(28,-27,o),
(101,-81,o),
(209,-81,cs)
);
},
{
closed = 1;
nodes = (
(149,-20,o),
(110,11,o),
(110,61,cs),
(110,110,o),
(149,141,o),
(209,141,cs),
(268,141,o),
(307,110,o),
(307,61,cs),
(307,11,o),
(268,-20,o),
(209,-20,cs)
);
},
{
closed = 1;
nodes = (
(157,191,o),
(123,216,o),
(123,256,cs),
(123,295,o),
(157,320,o),
(209,320,cs),
(261,320,o),
(295,295,o),
(295,256,cs),
(295,216,o),
(261,191,o),
(209,191,cs)
);
}
);
userData = {
RMXScaler = {
adjustSpace = 6;
height = 60;
verticalShift = -73;
weight = -16;
width = 62;
};
};
width = 417;
},
{
layerId = "E9FB66CC-5D7A-47B2-9A25-A0E8EEF5BB81";
shapes = (
{
closed = 1;
nodes = (
(328,-81,o),
(407,-26,o),
(407,55,cs),
(407,104,o),
(382,147,o),
(331,174,c),
(331,169,l),
(369,189,o),
(389,220,o),
(389,262,cs),
(389,339,o),
(318,391,o),
(213,391,cs),
(108,391,o),
(37,339,o),
(37,262,cs),
(37,223,o),
(56,191,o),
(97,169,c),
(97,174,l),
(46,147,o),
(19,104,o),
(19,55,cs),
(19,-26,o),
(98,-81,o),
(213,-81,cs)
);
},
{
closed = 1;
nodes = (
(170,6,o),
(142,32,o),
(142,73,cs),
(142,113,o),
(170,139,o),
(213,139,cs),
(256,139,o),
(284,113,o),
(284,73,cs),
(284,32,o),
(256,6,o),
(213,6,cs)
);
},
{
closed = 1;
nodes = (
(175,203,o),
(149,223,o),
(149,254,cs),
(149,285,o),
(175,305,o),
(213,305,cs),
(251,305,o),
(277,285,o),
(277,254,cs),
(277,223,o),
(251,203,o),
(213,203,cs)
);
}
);
userData = {
RMXScaler = {
adjustSpace = 6;
height = 60;
verticalShift = -73;
weight = -28;
width = 60;
};
};
width = 426;
}
);
unicode = 8328;
userData = {
RMXScaler = {
source = eight;
};
};
},
{
color = 9;
glyphname = nineinferior;
layers = (
{
background = {
shapes = (
{
closed = 1;
nodes = (
(456,-13,o),
(573,142,o),
(573,402,cs),
(573,619,o),
(471,745,o),
(299,745,cs),
(149,745,o),
(48,647,o),
(48,502,cs),
(48,361,o),
(143,266,o),
(287,266,cs),
(390,266,o),
(471,316,o),
(492,393,c),
(479,393,l),
(477,184,o),
(408,65,o),
(285,65,cs),
(207,65,o),
(151,112,o),
(138,188,c),
(42,167,l),
(65,56,o),
(155,-13,o),
(276,-13,cs)
);
},
{
closed = 1;
nodes = (
(207,339,o),
(145,402,o),
(145,504,cs),
(145,607,o),
(207,669,o),
(306,669,cs),
(404,669,o),
(467,607,o),
(467,504,cs),
(467,402,o),
(404,339,o),
(306,339,cs)
);
}
);
};
layerId = m01;
name = Regular;
shapes = (
{
closed = 1;
nodes = (
(300,-76,o),
(371,10,o),
(371,158,cs),
(371,293,o),
(306,379,o),
(191,379,cs),
(93,379,o),
(27,317,o),
(27,228,cs),
(27,143,o),
(91,86,o),
(179,86,cs),
(243,86,o),
(284,111,o),
(302,149,c),
(298,149,l),
(296,48,o),
(261,-21,o),
(187,-21,cs),
(141,-21,o),
(109,4,o),
(100,43,c),
(31,20,l),
(48,-42,o),
(115,-87,o),
(198,-82,cs)
);
},
{
closed = 1;
nodes = (
(140,142,o),
(104,177,o),
(104,232,cs),
(104,286,o),
(140,323,o),
(194,323,cs),
(248,323,o),
(284,285,o),
(284,230,cs),
(284,176,o),
(248,142,o),
(194,142,cs)
);
}
);
userData = {
RMXScaler = {
adjustSpace = 6;
height = 60;
verticalShift = -73;
weight = -16;
width = 62;
};
};
width = 402;
},
{
layerId = "E9FB66CC-5D7A-47B2-9A25-A0E8EEF5BB81";
shapes = (
{
closed = 1;
nodes = (
(308,-90,o),
(397,11,o),
(397,165,cs),
(397,291,o),
(326,388,o),
(198,388,cs),
(89,388,o),
(18,321,o),
(18,226,cs),
(18,140,o),
(91,85,o),
(184,85,cs),
(233,85,o),
(266,96,o),
(298,122,c),
(291,122,l),
(280,58,o),
(245,2,o),
(186,2,cs),
(148,2,o),
(121,17,o),
(112,49,c),
(20,14,l),
(41,-39,o),
(102,-79,o),
(177,-83,cs)
);
},
{
closed = 1;
nodes = (
(160,162,o),
(131,190,o),
(131,232,cs),
(131,277,o),
(162,311,o),
(205,311,cs),
(245,311,o),
(272,275,o),
(272,232,cs),
(272,188,o),
(243,162,o),
(204,162,cs)
);
}
);
userData = {
RMXScaler = {
adjustSpace = 6;
height = 60;
verticalShift = -73;
weight = -28;
width = 60;
};
};
width = 422;
},
{
associatedMasterId = m01;
layerId = "2171C64F-D7EA-408E-8EA1-99417316F494";
name = "15 apr 23, 22:17";
shapes = (
{
closed = 1;
nodes = (
(461,-13,o),
(578,146,o),
(578,402,cs),
(578,619,o),
(476,745,o),
(304,745,cs),
(154,745,o),
(53,647,o),
(53,502,cs),
(53,361,o),
(149,266,o),
(292,266,cs),
(395,266,o),
(476,316,o),
(497,393,c),
(484,393,l),
(482,184,o),
(413,65,o),
(290,65,cs),
(212,65,o),
(156,112,o),
(143,188,c),
(47,167,l),
(69,60,o),
(164,-13,o),
(286,-13,cs)
);
},
{
closed = 1;
nodes = (
(212,339,o),
(150,402,o),
(150,504,cs),
(150,607,o),
(212,669,o),
(311,669,cs),
(409,669,o),
(472,607,o),
(472,504,cs),
(472,402,o),
(409,339,o),
(311,339,cs)
);
}
);
width = 626;
}
);
unicode = 8329;
userData = {
RMXScaler = {
source = nine;
};
};
},
{
color = 0;
glyphname = .notdef;
layers = (
{
layerId = m01;
shapes = (
{
closed = 1;
nodes = (
(658,-7,o),
(673,3,o),
(673,4,c),
(677,30,o),
(716,35,o),
(713,63,c),
(721,78,o),
(740,100,o),
(735,121,c),
(734,133,o),
(733,128,o),
(723,141,c),
(702,161,o),
(702,184,o),
(695,210,c),
(678,257,o),
(658,300,o),
(632,343,cs),
(626,353,o),
(624,362,o),
(624,371,cs),
(624,378,o),
(625,386,o),
(625,394,cs),
(625,409,o),
(622,424,o),
(622,436,cs),
(622,444,o),
(623,450,o),
(628,450,cs),
(633,450,o),
(642,444,o),
(656,429,c),
(664,447,o),
(632,464,o),
(626,480,c),
(598,509,o),
(602,547,o),
(574,577,cs),
(559,593,o),
(552,599,o),
(552,606,cs),
(552,621,o),
(580,627,o),
(580,659,cs),
(580,665,o),
(579,671,o),
(577,679,cs),
(573,699,o),
(575,725,o),
(567,744,c),
(553,740,o),
(550,733,o),
(550,726,cs),
(550,721,o),
(551,716,o),
(551,710,cs),
(551,707,o),
(551,704,o),
(549,700,cs),
(539,686,o),
(540,676,o),
(534,661,cs),
(529,650,o),
(528,635,o),
(528,624,cs),
(528,605,o),
(532,595,o),
(534,595,cs),
(536,595,o),
(538,597,o),
(542,597,cs),
(546,597,o),
(550,595,o),
(557,589,c),
(555,568,o),
(584,545,o),
(578,522,c),
(583,521,o),
(590,520,o),
(592,512,c),
(593,513,o),
(589,506,o),
(589,502,cs),
(589,502,o),
(589,501,o),
(589,501,c),
(578,506,o),
(566,519,o),
(561,529,c),
(559,550,o),
(549,570,o),
(534,584,c),
(534,556,o),
(547,499,o),
(578,481,c),
(600,482,o),
(604,467,o),
(604,449,cs),
(604,439,o),
(603,428,o),
(603,417,cs),
(603,407,o),
(604,398,o),
(609,392,c),
(613,317,o),
(663,255,o),
(686,182,c),
(686,168,o),
(697,155,o),
(703,144,c),
(704,134,o),
(702,125,o),
(713,125,cs),
(715,125,o),
(716,125,o),
(717,125,c),
(718,122,o),
(719,118,o),
(719,114,cs),
(719,92,o),
(693,63,o),
(688,40,c),
(676,32,o),
(659,27,o),
(644,27,c),
(635,25,o),
(632,23,o),
(632,21,cs),
(632,19,o),
(654,16,o),
(662,12,c),
(666,7,o),
(657,5,o),
(645,5,cs),
(629,5,o),
(607,9,o),
(600,12,c),
(581,18,o),
(582,35,o),
(578,49,c),
(575,54,o),
(571,61,o),
(571,67,cs),
(571,69,o),
(571,71,o),
(572,73,c),
(574,76,o),
(600,53,o),
(596,41,c),
(597,38,o),
(610,20,o),
(617,20,cs),
(620,20,o),
(622,23,o),
(622,29,cs),
(622,31,o),
(622,31,o),
(622,32,c),
(599,52,o),
(609,54,o),
(598,80,c),
(594,87,o),
(587,91,o),
(581,91,cs),
(577,91,o),
(573,90,o),
(570,88,c),
(568,87,o),
(573,74,o),
(566,74,cs),
(566,74,o),
(564,74,o),
(563,75,c),
(560,75,o),
(558,90,o),
(558,99,cs),
(558,101,o),
(558,103,o),
(558,104,c),
(559,111,o),
(548,107,o),
(548,112,c),
(545,136,o),
(522,155,o),
(507,171,c),
(502,177,o),
(497,186,o),
(497,192,cs),
(497,195,o),
(498,197,o),
(502,197,cs),
(504,197,o),
(507,197,o),
(511,195,c),
(528,180,o),
(536,152,o),
(558,139,c),
(567,162,o),
(505,209,o),
(505,226,cs),
(505,230,o),
(508,232,o),
(515,233,c),
(518,237,o),
(520,240,o),
(520,242,cs),
(520,244,o),
(518,245,o),
(516,245,cs),
(510,245,o),
(499,239,o),
(498,234,c),
(487,228,o),
(476,222,o),
(471,211,c),
(466,199,o),
(442,196,o),
(443,188,c),
(413,182,o),
(374,215,o),
(353,238,c),
(352,245,o),
(352,250,o),
(351,254,c),
(335,259,o),
(331,282,o),
(325,294,c),
(324,301,o),
(320,306,o),
(319,306,cs),
(317,306,o),
(316,305,o),
(316,303,cs),
(316,301,o),
(316,299,o),
(318,295,c),
(315,289,o),
(312,287,o),
(310,287,cs),
(304,287,o),
(317,359,o),
(282,359,cs),
(264,359,o),
(255,339,o),
(255,320,cs),
(255,316,o),
(255,313,o),
(256,310,c),
(251,303,o),
(228,243,o),
(239,243,cs),
(242,243,o),
(245,245,o),
(251,251,c),
(255,267,o),
(268,270,o),
(278,277,c),
(282,279,o),
(282,268,o),
(283,267,c),
(285,262,o),
(285,258,o),
(285,256,cs),
(285,249,o),
(277,257,o),
(271,245,c),
(273,240,o),
(273,236,o),
(273,234,cs),
(273,228,o),
(268,231,o),
(268,227,cs),
(268,225,o),
(269,222,o),
(272,216,c),
(254,208,o),
(267,185,o),
(244,179,c),
(248,171,o),
(249,167,o),
(249,165,cs),
(249,163,o),
(247,162,o),
(245,162,c),
(244,162,o),
(242,161,o),
(242,159,cs),
(242,157,o),
(242,157,o),
(242,156,c),
(255,148,o),
(240,151,o),
(238,143,c),
(237,136,o),
(221,121,o),
(222,116,c),
(228,105,o),
(217,88,o),
(215,77,c),
(211,75,o),
(201,75,o),
(201,69,cs),
(201,67,o),
(201,67,o),
(201,66,c),
(201,61,o),
(204,50,o),
(204,46,cs),
(204,44,o),
(203,42,o),
(202,40,c),
(199,29,o),
(208,22,o),
(209,8,c),
(209,-1,o),
(218,-8,o),
(226,-8,cs),
(229,-8,o),
(229,-7,o),
(231,-7,c),
(235,-7,o),
(244,16,o),
(246,22,c),
(259,49,o),
(297,222,o),
(339,222,cs),
(345,222,o),
(350,219,o),
(356,212,c),
(382,196,o),
(398,176,o),
(426,172,c),
(430,173,o),
(434,173,o),
(438,173,cs),
(463,173,o),
(477,152,o),
(499,142,c),
(517,134,o),
(524,111,o),
(528,92,c),
(542,81,o),
(554,63,o),
(563,50,c),
(562,28,o),
(561,22,o),
(581,8,c),
(596,-17,o),
(627,-5,o),
(651,-14,c)
);
},
{
closed = 1;
nodes = (
(91,439,o),
(126,473,o),
(126,461,cs),
(126,459,o),
(125,455,o),
(121,448,c),
(116,443,o),
(117,426,o),
(107,426,c),
(105,427,o),
(98,422,o),
(96,422,cs),
(94,422,o),
(94,424,o),
(94,424,c)
);
},
{
closed = 1;
nodes = (
(658,63,o),
(658,71,o),
(658,80,cs),
(658,83,o),
(658,86,o),
(658,88,c),
(659,94,o),
(660,100,o),
(660,106,cs),
(660,120,o),
(656,132,o),
(643,132,cs),
(640,132,o),
(635,131,o),
(630,129,c),
(627,128,o),
(623,117,o),
(623,109,cs),
(623,104,o),
(624,100,o),
(628,98,c),
(633,94,o),
(636,82,o),
(644,82,cs),
(646,82,o),
(647,83,o),
(648,83,c),
(645,78,o),
(650,63,o),
(651,61,c)
);
},
{
closed = 1;
nodes = (
(643,91,o),
(639,100,o),
(639,106,cs),
(639,110,o),
(640,112,o),
(642,112,cs),
(644,112,o),
(646,112,o),
(647,111,c),
(645,107,o),
(652,98,o),
(652,94,cs),
(652,92,o),
(651,90,o),
(648,90,c)
);
},
{
closed = 1;
nodes = (
(72,278,o),
(71,302,o),
(75,319,c),
(86,341,o),
(88,377,o),
(98,398,c),
(104,410,o),
(108,415,o),
(111,415,cs),
(120,415,o),
(114,357,o),
(119,346,c),
(132,379,o),
(112,435,o),
(148,456,c),
(146,424,o),
(130,398,o),
(128,366,c),
(144,368,o),
(156,412,o),
(161,429,c),
(174,472,o),
(191,512,o),
(223,544,c),
(228,547,o),
(230,549,o),
(232,549,cs),
(233,549,o),
(233,549,o),
(233,548,cs),
(233,546,o),
(226,537,o),
(226,534,cs),
(226,532,o),
(226,531,o),
(227,530,c),
(228,531,o),
(248,546,o),
(247,547,c),
(267,587,o),
(320,616,o),
(363,629,c),
(364,626,o),
(361,617,o),
(369,609,c),
(371,604,o),
(358,592,o),
(358,586,cs),
(358,584,o),
(359,583,o),
(361,583,c),
(374,580,o),
(376,593,o),
(376,606,cs),
(376,613,o),
(376,621,o),
(376,626,c),
(376,638,o),
(394,675,o),
(402,663,c),
(401,655,o),
(390,628,o),
(390,609,cs),
(390,603,o),
(391,598,o),
(397,598,c),
(398,613,o),
(417,607,o),
(426,617,c),
(428,632,o),
(444,660,o),
(448,670,c),
(451,698,o),
(469,722,o),
(471,748,c),
(472,756,o),
(469,763,o),
(463,766,c),
(461,759,o),
(453,753,o),
(453,746,cs),
(453,744,o),
(454,742,o),
(456,739,c),
(436,726,o),
(427,706,o),
(409,689,c),
(397,707,o),
(383,659,o),
(372,644,c),
(373,653,o),
(371,656,o),
(367,656,cs),
(364,656,o),
(359,654,o),
(355,649,c),
(335,633,o),
(306,636,o),
(288,611,c),
(282,609,o),
(279,606,o),
(272,606,c),
(271,608,o),
(276,613,o),
(276,615,cs),
(276,617,o),
(277,616,o),
(275,616,cs),
(273,616,o),
(273,615,o),
(272,615,c),
(258,603,o),
(249,590,o),
(228,589,c),
(219,580,o),
(206,579,o),
(196,572,c),
(167,535,o),
(161,517,o),
(115,497,c),
(90,464,o),
(52,435,o),
(35,396,c),
(23,380,o),
(-12,368,o),
(-8,345,c),
(10,346,o),
(30,376,o),
(43,366,c),
(44,354,o),
(23,329,o),
(23,316,cs),
(23,313,o),
(25,310,o),
(29,309,c),
(48,323,o),
(41,346,o),
(56,361,c),
(63,367,o),
(61,377,o),
(65,384,c),
(71,392,o),
(78,401,o),
(82,412,c),
(91,419,o),
(87,411,o),
(81,400,c),
(64,363,o),
(62,314,o),
(49,275,c)
);
},
{
closed = 1;
nodes = (
(561,197,o),
(549,218,o),
(537,229,c),
(536,213,o),
(544,183,o),
(562,177,c)
);
},
{
closed = 1;
nodes = (
(521,268,o),
(524,276,o),
(524,280,c),
(513,298,o),
(502,327,o),
(489,341,c),
(484,346,o),
(491,329,o),
(492,328,c),
(492,328,o),
(492,313,o),
(492,313,c),
(483,327,o),
(485,349,o),
(472,359,c),
(455,358,o),
(489,313,o),
(483,297,c),
(484,282,o),
(489,276,o),
(494,276,cs),
(497,276,o),
(500,279,o),
(500,284,cs),
(500,288,o),
(498,293,o),
(495,299,c),
(493,309,o),
(501,302,o),
(504,300,c),
(508,290,o),
(504,268,o),
(517,265,c)
);
},
{
closed = 1;
nodes = (
(692,115,o),
(695,120,o),
(695,126,cs),
(695,145,o),
(670,175,o),
(667,191,c),
(665,203,o),
(636,267,o),
(636,253,cs),
(636,251,o),
(637,249,o),
(637,246,c),
(639,243,o),
(643,238,o),
(643,232,cs),
(643,230,o),
(643,227,o),
(642,225,c),
(653,206,o),
(664,183,o),
(667,159,c),
(668,157,o),
(672,152,o),
(676,143,c),
(679,137,o),
(678,115,o),
(684,112,c)
);
},
{
closed = 1;
nodes = (
(487,385,o),
(480,398,o),
(473,401,c),
(473,418,o),
(477,439,o),
(467,457,c),
(431,451,o),
(420,447,o),
(419,407,c),
(425,398,o),
(435,395,o),
(446,395,cs),
(452,395,o),
(459,396,o),
(465,397,c),
(472,397,o),
(468,384,o),
(476,384,c)
);
},
{
closed = 1;
nodes = (
(443,425,o),
(442,428,o),
(442,432,c),
(442,435,o),
(452,425,o),
(452,425,c),
(449,426,o),
(449,424,o),
(447,423,c)
);
},
{
closed = 1;
nodes = (
(336,519,o),
(332,558,o),
(342,585,c),
(341,593,o),
(359,602,o),
(359,607,cs),
(359,609,o),
(357,610,o),
(354,611,c),
(344,616,o),
(329,579,o),
(326,594,c),
(320,605,o),
(319,573,o),
(318,570,c),
(317,559,o),
(315,547,o),
(303,541,c),
(300,543,o),
(299,545,o),
(299,548,cs),
(299,560,o),
(319,578,o),
(306,584,c),
(297,583,o),
(301,564,o),
(296,559,c),
(294,556,o),
(289,547,o),
(288,543,c),
(286,539,o),
(291,534,o),
(293,530,c),
(299,528,o),
(289,523,o),
(296,523,c)
);
},
{
closed = 1;
nodes = (
(620,250,o),
(621,254,o),
(621,259,cs),
(621,281,o),
(600,305,o),
(592,325,c),
(573,355,o),
(570,406,o),
(533,411,c),
(563,360,o),
(594,300,o),
(619,246,c)
);
},
{
closed = 1;
nodes = (
(451,482,o),
(455,490,o),
(455,499,cs),
(455,505,o),
(452,512,o),
(447,516,c),
(435,519,o),
(430,496,o),
(427,487,c),
(428,481,o),
(435,481,o),
(444,481,c)
);
},
{
closed = 1;
nodes = (
(407,408,o),
(409,410,o),
(409,412,cs),
(409,417,o),
(398,424,o),
(398,431,c),
(399,438,o),
(399,443,o),
(399,447,cs),
(399,460,o),
(395,464,o),
(390,481,c),
(389,484,o),
(389,491,o),
(389,499,c),
(390,499,o),
(390,498,o),
(391,497,c),
(396,488,o),
(405,507,o),
(409,508,c),
(422,522,o),
(453,544,o),
(471,544,cs),
(480,544,o),
(486,539,o),
(486,526,cs),
(486,522,o),
(485,517,o),
(484,512,c),
(491,513,o),
(494,519,o),
(494,526,cs),
(494,531,o),
(492,536,o),
(491,540,c),
(493,546,o),
(499,563,o),
(504,563,cs),
(506,563,o),
(507,561,o),
(508,557,c),
(515,544,o),
(522,567,o),
(523,570,c),
(507,598,o),
(496,596,o),
(493,632,c),
(488,634,o),
(487,631,o),
(487,626,cs),
(487,622,o),
(488,616,o),
(488,609,cs),
(488,594,o),
(484,575,o),
(459,558,c),
(458,557,o),
(450,551,o),
(450,553,cs),
(450,553,o),
(450,554,o),
(450,554,c),
(457,560,o),
(460,574,o),
(460,588,cs),
(460,607,o),
(455,623,o),
(443,623,cs),
(440,623,o),
(437,622,o),
(432,618,c),
(425,578,o),
(373,571,o),
(359,531,c),
(373,528,o),
(394,556,o),
(406,564,c),
(410,571,o),
(423,574,o),
(432,574,cs),
(439,574,o),
(442,572,o),
(434,568,c),
(431,569,o),
(429,566,o),
(429,563,c),
(431,560,o),
(435,559,o),
(435,555,cs),
(435,553,o),
(435,552,o),
(434,550,c),
(440,551,o),
(442,551,o),
(442,550,cs),
(442,548,o),
(437,544,o),
(433,540,c),
(341,490,o),
(384,491,o),
(339,419,c),
(331,408,o),
(358,418,o),
(359,426,c),
(364,434,o),
(375,439,o),
(384,442,c),
(383,437,o),
(386,406,o),
(402,406,c)
);
},
{
closed = 1;
nodes = (
(594,361,o),
(579,388,o),
(581,389,c),
(578,388,o),
(576,385,o),
(576,380,cs),
(576,371,o),
(581,359,o),
(584,358,c)
);
},
{
closed = 1;
nodes = (
(525,443,o),
(522,453,o),
(522,462,cs),
(522,464,o),
(522,465,o),
(522,466,c),
(522,470,o),
(518,473,o),
(518,475,cs),
(518,476,o),
(518,477,o),
(520,478,c),
(526,483,o),
(519,483,o),
(518,487,c),
(521,486,o),
(521,491,o),
(521,496,cs),
(521,498,o),
(521,501,o),
(521,503,c),
(517,520,o),
(511,497,o),
(510,493,c),
(509,493,o),
(516,474,o),
(516,473,c),
(509,473,o),
(507,468,o),
(507,462,cs),
(507,449,o),
(517,431,o),
(526,434,c)
);
},
{
closed = 1;
nodes = (
(583,407,o),
(587,413,o),
(587,419,cs),
(587,436,o),
(567,461,o),
(557,468,c),
(560,448,o),
(572,424,o),
(574,406,c)
);
},
{
closed = 1;
nodes = (
(512,626,o),
(513,628,o),
(513,632,cs),
(513,641,o),
(503,654,o),
(499,661,c),
(497,669,o),
(489,673,o),
(481,673,cs),
(473,673,o),
(464,668,o),
(462,660,c),
(462,654,o),
(465,650,o),
(469,650,cs),
(472,650,o),
(474,651,o),
(476,654,c),
(480,657,o),
(483,658,o),
(485,658,cs),
(498,658,o),
(498,631,o),
(509,624,c)
);
}
);
width = 736;
},
{
layerId = "E9FB66CC-5D7A-47B2-9A25-A0E8EEF5BB81";
shapes = (
{
closed = 1;
nodes = (
(658,-7,o),
(673,3,o),
(673,4,c),
(677,30,o),
(716,35,o),
(713,63,c),
(721,78,o),
(740,100,o),
(735,121,c),
(734,133,o),
(733,128,o),
(723,141,c),
(702,161,o),
(702,184,o),
(695,210,c),
(678,257,o),
(658,300,o),
(632,343,cs),
(626,353,o),
(624,362,o),
(624,371,cs),
(624,378,o),
(625,386,o),
(625,394,cs),
(625,409,o),
(622,424,o),
(622,436,cs),
(622,444,o),
(623,450,o),
(628,450,cs),
(633,450,o),
(642,444,o),
(656,429,c),
(664,447,o),
(632,464,o),
(626,480,c),
(598,509,o),
(602,547,o),
(574,577,cs),
(559,593,o),
(552,599,o),
(552,606,cs),
(552,621,o),
(580,627,o),
(580,659,cs),
(580,665,o),
(579,671,o),
(577,679,cs),
(573,699,o),
(575,725,o),
(567,744,c),
(553,740,o),
(550,733,o),
(550,726,cs),
(550,721,o),
(551,716,o),
(551,710,cs),
(551,707,o),
(551,704,o),
(549,700,cs),
(539,686,o),
(540,676,o),
(534,661,cs),
(529,650,o),
(528,635,o),
(528,624,cs),
(528,605,o),
(532,595,o),
(534,595,cs),
(536,595,o),
(538,597,o),
(542,597,cs),
(546,597,o),
(550,595,o),
(557,589,c),
(555,568,o),
(584,545,o),
(578,522,c),
(583,521,o),
(590,520,o),
(592,512,c),
(593,513,o),
(589,506,o),
(589,502,cs),
(589,502,o),
(589,501,o),
(589,501,c),
(578,506,o),
(566,519,o),
(561,529,c),
(559,550,o),
(549,570,o),
(534,584,c),
(534,556,o),
(547,499,o),
(578,481,c),
(600,482,o),
(604,467,o),
(604,449,cs),
(604,439,o),
(603,428,o),
(603,417,cs),
(603,407,o),
(604,398,o),
(609,392,c),
(613,317,o),
(663,255,o),
(686,182,c),
(686,168,o),
(697,155,o),
(703,144,c),
(704,134,o),
(702,125,o),
(713,125,cs),
(715,125,o),
(716,125,o),
(717,125,c),
(718,122,o),
(719,118,o),
(719,114,cs),
(719,92,o),
(693,63,o),
(688,40,c),
(676,32,o),
(659,27,o),
(644,27,c),
(635,25,o),
(632,23,o),
(632,21,cs),
(632,19,o),
(654,16,o),
(662,12,c),
(666,7,o),
(657,5,o),
(645,5,cs),
(629,5,o),
(607,9,o),
(600,12,c),
(581,18,o),
(582,35,o),
(578,49,c),
(575,54,o),
(571,61,o),
(571,67,cs),
(571,69,o),
(571,71,o),
(572,73,c),
(574,76,o),
(600,53,o),
(596,41,c),
(597,38,o),
(610,20,o),
(617,20,cs),
(620,20,o),
(622,23,o),
(622,29,cs),
(622,31,o),
(622,31,o),
(622,32,c),
(599,52,o),
(609,54,o),
(598,80,c),
(594,87,o),
(587,91,o),
(581,91,cs),
(577,91,o),
(573,90,o),
(570,88,c),
(568,87,o),
(573,74,o),
(566,74,cs),
(566,74,o),
(564,74,o),
(563,75,c),
(560,75,o),
(558,90,o),
(558,99,cs),
(558,101,o),
(558,103,o),
(558,104,c),
(559,111,o),
(548,107,o),
(548,112,c),
(545,136,o),
(522,155,o),
(507,171,c),
(502,177,o),
(497,186,o),
(497,192,cs),
(497,195,o),
(498,197,o),
(502,197,cs),
(504,197,o),
(507,197,o),
(511,195,c),
(528,180,o),
(536,152,o),
(558,139,c),
(567,162,o),
(505,209,o),
(505,226,cs),
(505,230,o),
(508,232,o),
(515,233,c),
(518,237,o),
(520,240,o),
(520,242,cs),
(520,244,o),
(518,245,o),
(516,245,cs),
(510,245,o),
(499,239,o),
(498,234,c),
(487,228,o),
(476,222,o),
(471,211,c),
(466,199,o),
(442,196,o),
(443,188,c),
(413,182,o),
(374,215,o),
(353,238,c),
(352,245,o),
(352,250,o),
(351,254,c),
(335,259,o),
(331,282,o),
(325,294,c),
(324,301,o),
(320,306,o),
(319,306,cs),
(317,306,o),
(316,305,o),
(316,303,cs),
(316,301,o),
(316,299,o),
(318,295,c),
(315,289,o),
(312,287,o),
(310,287,cs),
(304,287,o),
(317,359,o),
(282,359,cs),
(264,359,o),
(255,339,o),
(255,320,cs),
(255,316,o),
(255,313,o),
(256,310,c),
(251,303,o),
(228,243,o),
(239,243,cs),
(242,243,o),
(245,245,o),
(251,251,c),
(255,267,o),
(268,270,o),
(278,277,c),
(282,279,o),
(282,268,o),
(283,267,c),
(285,262,o),
(285,258,o),
(285,256,cs),
(285,249,o),
(277,257,o),
(271,245,c),
(273,240,o),
(273,236,o),
(273,234,cs),
(273,228,o),
(268,231,o),
(268,227,cs),
(268,225,o),
(269,222,o),
(272,216,c),
(254,208,o),
(267,185,o),
(244,179,c),
(248,171,o),
(249,167,o),
(249,165,cs),
(249,163,o),
(247,162,o),
(245,162,c),
(244,162,o),
(242,161,o),
(242,159,cs),
(242,157,o),
(242,157,o),
(242,156,c),
(255,148,o),
(240,151,o),
(238,143,c),
(237,136,o),
(221,121,o),
(222,116,c),
(228,105,o),
(217,88,o),
(215,77,c),
(211,75,o),
(201,75,o),
(201,69,cs),
(201,67,o),
(201,67,o),
(201,66,c),
(201,61,o),
(204,50,o),
(204,46,cs),
(204,44,o),
(203,42,o),
(202,40,c),
(199,29,o),
(208,22,o),
(209,8,c),
(209,-1,o),
(218,-8,o),
(226,-8,cs),
(229,-8,o),
(229,-7,o),
(231,-7,c),
(235,-7,o),
(244,16,o),
(246,22,c),
(259,49,o),
(297,222,o),
(339,222,cs),
(345,222,o),
(350,219,o),
(356,212,c),
(382,196,o),
(398,176,o),
(426,172,c),
(430,173,o),
(434,173,o),
(438,173,cs),
(463,173,o),
(477,152,o),
(499,142,c),
(517,134,o),
(524,111,o),
(528,92,c),
(542,81,o),
(554,63,o),
(563,50,c),
(562,28,o),
(561,22,o),
(581,8,c),
(596,-17,o),
(627,-5,o),
(651,-14,c)
);
},
{
closed = 1;
nodes = (
(91,439,o),
(126,473,o),
(126,461,cs),
(126,459,o),
(125,455,o),
(121,448,c),
(116,443,o),
(117,426,o),
(107,426,c),
(105,427,o),
(98,422,o),
(96,422,cs),
(94,422,o),
(94,424,o),
(94,424,c)
);
},
{
closed = 1;
nodes = (
(658,63,o),
(658,71,o),
(658,80,cs),
(658,83,o),
(658,86,o),
(658,88,c),
(659,94,o),
(660,100,o),
(660,106,cs),
(660,120,o),
(656,132,o),
(643,132,cs),
(640,132,o),
(635,131,o),
(630,129,c),
(627,128,o),
(623,117,o),
(623,109,cs),
(623,104,o),
(624,100,o),
(628,98,c),
(633,94,o),
(636,82,o),
(644,82,cs),
(646,82,o),
(647,83,o),
(648,83,c),
(645,78,o),
(650,63,o),
(651,61,c)
);
},
{
closed = 1;
nodes = (
(643,91,o),
(639,100,o),
(639,106,cs),
(639,110,o),
(640,112,o),
(642,112,cs),
(644,112,o),
(646,112,o),
(647,111,c),
(645,107,o),
(652,98,o),
(652,94,cs),
(652,92,o),
(651,90,o),
(648,90,c)
);
},
{
closed = 1;
nodes = (
(72,278,o),
(71,302,o),
(75,319,c),
(86,341,o),
(88,377,o),
(98,398,c),
(104,410,o),
(108,415,o),
(111,415,cs),
(120,415,o),
(114,357,o),
(119,346,c),
(132,379,o),
(112,435,o),
(148,456,c),
(146,424,o),
(130,398,o),
(128,366,c),
(144,368,o),
(156,412,o),
(161,429,c),
(174,472,o),
(191,512,o),
(223,544,c),
(228,547,o),
(230,549,o),
(232,549,cs),
(233,549,o),
(233,549,o),
(233,548,cs),
(233,546,o),
(226,537,o),
(226,534,cs),
(226,532,o),
(226,531,o),
(227,530,c),
(228,531,o),
(248,546,o),
(247,547,c),
(267,587,o),
(320,616,o),
(363,629,c),
(364,626,o),
(361,617,o),
(369,609,c),
(371,604,o),
(358,592,o),
(358,586,cs),
(358,584,o),
(359,583,o),
(361,583,c),
(374,580,o),
(376,593,o),
(376,606,cs),
(376,613,o),
(376,621,o),
(376,626,c),
(376,638,o),
(394,675,o),
(402,663,c),
(401,655,o),
(390,628,o),
(390,609,cs),
(390,603,o),
(391,598,o),
(397,598,c),
(398,613,o),
(417,607,o),
(426,617,c),
(428,632,o),
(444,660,o),
(448,670,c),
(451,698,o),
(469,722,o),
(471,748,c),
(472,756,o),
(469,763,o),
(463,766,c),
(461,759,o),
(453,753,o),
(453,746,cs),
(453,744,o),
(454,742,o),
(456,739,c),
(436,726,o),
(427,706,o),
(409,689,c),
(397,707,o),
(383,659,o),
(372,644,c),
(373,653,o),
(371,656,o),
(367,656,cs),
(364,656,o),
(359,654,o),
(355,649,c),
(335,633,o),
(306,636,o),
(288,611,c),
(282,609,o),
(279,606,o),
(272,606,c),
(271,608,o),
(276,613,o),
(276,615,cs),
(276,617,o),
(277,616,o),
(275,616,cs),
(273,616,o),
(273,615,o),
(272,615,c),
(258,603,o),
(249,590,o),
(228,589,c),
(219,580,o),
(206,579,o),
(196,572,c),
(167,535,o),
(161,517,o),
(115,497,c),
(90,464,o),
(52,435,o),
(35,396,c),
(23,380,o),
(-12,368,o),
(-8,345,c),
(10,346,o),
(30,376,o),
(43,366,c),
(44,354,o),
(23,329,o),
(23,316,cs),
(23,313,o),
(25,310,o),
(29,309,c),
(48,323,o),
(41,346,o),
(56,361,c),
(63,367,o),
(61,377,o),
(65,384,c),
(71,392,o),
(78,401,o),
(82,412,c),
(91,419,o),
(87,411,o),
(81,400,c),
(64,363,o),
(62,314,o),
(49,275,c)
);
},
{
closed = 1;
nodes = (
(561,197,o),
(549,218,o),
(537,229,c),
(536,213,o),
(544,183,o),
(562,177,c)
);
},
{
closed = 1;
nodes = (
(521,268,o),
(524,276,o),
(524,280,c),
(513,298,o),
(502,327,o),
(489,341,c),
(484,346,o),
(491,329,o),
(492,328,c),
(492,328,o),
(492,313,o),
(492,313,c),
(483,327,o),
(485,349,o),
(472,359,c),
(455,358,o),
(489,313,o),
(483,297,c),
(484,282,o),
(489,276,o),
(494,276,cs),
(497,276,o),
(500,279,o),
(500,284,cs),
(500,288,o),
(498,293,o),
(495,299,c),
(493,309,o),
(501,302,o),
(504,300,c),
(508,290,o),
(504,268,o),
(517,265,c)
);
},
{
closed = 1;
nodes = (
(692,115,o),
(695,120,o),
(695,126,cs),
(695,145,o),
(670,175,o),
(667,191,c),
(665,203,o),
(636,267,o),
(636,253,cs),
(636,251,o),
(637,249,o),
(637,246,c),
(639,243,o),
(643,238,o),
(643,232,cs),
(643,230,o),
(643,227,o),
(642,225,c),
(653,206,o),
(664,183,o),
(667,159,c),
(668,157,o),
(672,152,o),
(676,143,c),
(679,137,o),
(678,115,o),
(684,112,c)
);
},
{
closed = 1;
nodes = (
(487,385,o),
(480,398,o),
(473,401,c),
(473,418,o),
(477,439,o),
(467,457,c),
(431,451,o),
(420,447,o),
(419,407,c),
(425,398,o),
(435,395,o),
(446,395,cs),
(452,395,o),
(459,396,o),
(465,397,c),
(472,397,o),
(468,384,o),
(476,384,c)
);
},
{
closed = 1;
nodes = (
(443,425,o),
(442,428,o),
(442,432,c),
(442,435,o),
(452,425,o),
(452,425,c),
(449,426,o),
(449,424,o),
(447,423,c)
);
},
{
closed = 1;
nodes = (
(336,519,o),
(332,558,o),
(342,585,c),
(341,593,o),
(359,602,o),
(359,607,cs),
(359,609,o),
(357,610,o),
(354,611,c),
(344,616,o),
(329,579,o),
(326,594,c),
(320,605,o),
(319,573,o),
(318,570,c),
(317,559,o),
(315,547,o),
(303,541,c),
(300,543,o),
(299,545,o),
(299,548,cs),
(299,560,o),
(319,578,o),
(306,584,c),
(297,583,o),
(301,564,o),
(296,559,c),
(294,556,o),
(289,547,o),
(288,543,c),
(286,539,o),
(291,534,o),
(293,530,c),
(299,528,o),
(289,523,o),
(296,523,c)
);
},
{
closed = 1;
nodes = (
(620,250,o),
(621,254,o),
(621,259,cs),
(621,281,o),
(600,305,o),
(592,325,c),
(573,355,o),
(570,406,o),
(533,411,c),
(563,360,o),
(594,300,o),
(619,246,c)
);
},
{
closed = 1;
nodes = (
(451,482,o),
(455,490,o),
(455,499,cs),
(455,505,o),
(452,512,o),
(447,516,c),
(435,519,o),
(430,496,o),
(427,487,c),
(428,481,o),
(435,481,o),
(444,481,c)
);
},
{
closed = 1;
nodes = (
(407,408,o),
(409,410,o),
(409,412,cs),
(409,417,o),
(398,424,o),
(398,431,c),
(399,438,o),
(399,443,o),
(399,447,cs),
(399,460,o),
(395,464,o),
(390,481,c),
(389,484,o),
(389,491,o),
(389,499,c),
(390,499,o),
(390,498,o),
(391,497,c),
(396,488,o),
(405,507,o),
(409,508,c),
(422,522,o),
(453,544,o),
(471,544,cs),
(480,544,o),
(486,539,o),
(486,526,cs),
(486,522,o),
(485,517,o),
(484,512,c),
(491,513,o),
(494,519,o),
(494,526,cs),
(494,531,o),
(492,536,o),
(491,540,c),
(493,546,o),
(499,563,o),
(504,563,cs),
(506,563,o),
(507,561,o),
(508,557,c),
(515,544,o),
(522,567,o),
(523,570,c),
(507,598,o),
(496,596,o),
(493,632,c),
(488,634,o),
(487,631,o),
(487,626,cs),
(487,622,o),
(488,616,o),
(488,609,cs),
(488,594,o),
(484,575,o),
(459,558,c),
(458,557,o),
(450,551,o),
(450,553,cs),
(450,553,o),
(450,554,o),
(450,554,c),
(457,560,o),
(460,574,o),
(460,588,cs),
(460,607,o),
(455,623,o),
(443,623,cs),
(440,623,o),
(437,622,o),
(432,618,c),
(425,578,o),
(373,571,o),
(359,531,c),
(373,528,o),
(394,556,o),
(406,564,c),
(410,571,o),
(423,574,o),
(432,574,cs),
(439,574,o),
(442,572,o),
(434,568,c),
(431,569,o),
(429,566,o),
(429,563,c),
(431,560,o),
(435,559,o),
(435,555,cs),
(435,553,o),
(435,552,o),
(434,550,c),
(440,551,o),
(442,551,o),
(442,550,cs),
(442,548,o),
(437,544,o),
(433,540,c),
(341,490,o),
(384,491,o),
(339,419,c),
(331,408,o),
(358,418,o),
(359,426,c),
(364,434,o),
(375,439,o),
(384,442,c),
(383,437,o),
(386,406,o),
(402,406,c)
);
},
{
closed = 1;
nodes = (
(594,361,o),
(579,388,o),
(581,389,c),
(578,388,o),
(576,385,o),
(576,380,cs),
(576,371,o),
(581,359,o),
(584,358,c)
);
},
{
closed = 1;
nodes = (
(525,443,o),
(522,453,o),
(522,462,cs),
(522,464,o),
(522,465,o),
(522,466,c),
(522,470,o),
(518,473,o),
(518,475,cs),
(518,476,o),
(518,477,o),
(520,478,c),
(526,483,o),
(519,483,o),
(518,487,c),
(521,486,o),
(521,491,o),
(521,496,cs),
(521,498,o),
(521,501,o),
(521,503,c),
(517,520,o),
(511,497,o),
(510,493,c),
(509,493,o),
(516,474,o),
(516,473,c),
(509,473,o),
(507,468,o),
(507,462,cs),
(507,449,o),
(517,431,o),
(526,434,c)
);
},
{
closed = 1;
nodes = (
(583,407,o),
(587,413,o),
(587,419,cs),
(587,436,o),
(567,461,o),
(557,468,c),
(560,448,o),
(572,424,o),
(574,406,c)
);
},
{
closed = 1;
nodes = (
(512,626,o),
(513,628,o),
(513,632,cs),
(513,641,o),
(503,654,o),
(499,661,c),
(497,669,o),
(489,673,o),
(481,673,cs),
(473,673,o),
(464,668,o),
(462,660,c),
(462,654,o),
(465,650,o),
(469,650,cs),
(472,650,o),
(474,651,o),
(476,654,c),
(480,657,o),
(483,658,o),
(485,658,cs),
(498,658,o),
(498,631,o),
(509,624,c)
);
}
);
width = 736;
},
{
associatedMasterId = m01;
layerId = "AF2B324A-037F-4A1E-9304-514A8C96CE63";
name = "6 mag 23, 14:39";
shapes = (
{
closed = 0;
nodes = (
(368,216,l),
(334,197,o),
(309,131,o),
(303,115,cs),
(300,107,o),
(306,99,o),
(301,93,cs),
(294,85,o),
(276,46,o),
(264,-2,cs),
(261,-14,o),
(243,-14,o),
(240,-2,cs),
(236,14,l)
);
}
);
width = 755;
}
);
},
{
glyphname = period;
layers = (
{
layerId = m01;
shapes = (
{
closed = 1;
nodes = (
(172,0,l),
(172,126,l),
(50,126,l),
(50,0,l)
);
}
);
width = 222;
},
{
layerId = "E9FB66CC-5D7A-47B2-9A25-A0E8EEF5BB81";
shapes = (
{
closed = 1;
nodes = (
(210,0,l),
(210,164,l),
(44,164,l),
(44,0,l)
);
}
);
width = 254;
}
);
metricRight = "=|";
unicode = 46;
userData = {
KernOnName = period;
KernOnSpecialSpacing = {
L = period;
R = period;
};
};
},
{
glyphname = comma;
layers = (
{
layerId = m01;
shapes = (
{
closed = 1;
nodes = (
(129,-127,o),
(174,-64,o),
(174,8,cs),
(174,126,l),
(52,126,l),
(52,0,l),
(116,0,l),
(116,-8,ls),
(116,-50,o),
(87,-84,o),
(42,-96,c),
(62,-146,l)
);
}
);
width = 224;
},
{
layerId = "E9FB66CC-5D7A-47B2-9A25-A0E8EEF5BB81";
shapes = (
{
closed = 1;
nodes = (
(150,-148,o),
(210,-76,o),
(210,12,cs),
(210,164,l),
(48,164,l),
(48,0,l),
(128,0,l),
(128,-4,ls),
(128,-53,o),
(95,-87,o),
(38,-96,c),
(62,-168,l)
);
}
);
width = 254;
}
);
metricRight = period;
unicode = 44;
userData = {
KernOnSpecialSpacing = {
L = period;
R = period;
};
};
},
{
glyphname = exclam;
layers = (
{
layerId = m01;
shapes = (
{
closed = 1;
nodes = (
(165,230,l),
(185,582,l),
(185,732,l),
(77,732,l),
(77,582,l),
(97,230,l)
);
},
{
pos = (20,0);
ref = period;
}
);
width = 262;
},
{
layerId = "E9FB66CC-5D7A-47B2-9A25-A0E8EEF5BB81";
shapes = (
{
closed = 1;
nodes = (
(191,236,l),
(225,572,l),
(225,744,l),
(69,744,l),
(69,572,l),
(103,236,l)
);
},
{
pos = (20,0);
ref = period;
}
);
width = 294;
}
);
metricLeft = l;
metricRight = l;
unicode = 33;
userData = {
KernOnSpecialSpacing = {
L = "spaced-off";
};
};
},
{
glyphname = question;
layers = (
{
layerId = m01;
shapes = (
{
closed = 1;
nodes = (
(276,230,l),
(276,240,ls),
(276,400,o),
(460,420,o),
(460,572,cs),
(460,675,o),
(374,746,o),
(248,746,cs),
(132,746,o),
(35,680,o),
(8,584,c),
(100,552,l),
(117,622,o),
(174,666,o),
(246,666,cs),
(316,666,o),
(360,626,o),
(360,564,cs),
(360,444,o),
(193,434,o),
(187,258,cs),
(186,230,l)
);
},
{
pos = (124,0);
ref = period;
}
);
width = 472;
},
{
layerId = "E9FB66CC-5D7A-47B2-9A25-A0E8EEF5BB81";
shapes = (
{
closed = 1;
nodes = (
(330,236,l),
(330,240,ls),
(330,388,o),
(512,392,o),
(512,560,cs),
(512,680,o),
(414,760,o),
(270,760,cs),
(134,760,o),
(28,684,o),
(4,564,c),
(136,524,l),
(144,600,o),
(193,648,o),
(262,648,cs),
(326,648,o),
(366,609,o),
(366,548,cs),
(366,429,o),
(209,440,o),
(194,260,cs),
(192,236,l)
);
},
{
pos = (142,0);
ref = period;
}
);
width = 524;
},
{
associatedMasterId = m01;
layerId = "B96ABFD7-997C-4285-9F30-8D85A0339D2D";
name = "15 apr 23, 18:21";
shapes = (
{
closed = 1;
nodes = (
(256,268,l),
(237,277,o),
(227,296,o),
(227,316,cs),
(227,408,o),
(440,414,o),
(440,573,cs),
(440,676,o),
(357,745,o),
(231,745,cs),
(112,745,o),
(14,678,o),
(-16,577,c),
(76,548,l),
(95,622,o),
(154,667,o),
(231,667,cs),
(298,667,o),
(340,633,o),
(340,577,cs),
(340,460,o),
(131,460,o),
(131,326,cs),
(131,276,o),
(160,232,o),
(206,209,c)
);
},
{
pos = (101,0);
ref = period;
}
);
width = 439;
}
);
unicode = 63;
userData = {
KernOnSpecialSpacing = {
L = "spaced-off";
};
};
},
{
glyphname = bullet;
layers = (
{
layerId = m01;
shapes = (
{
closed = 1;
nodes = (
(321,209,o),
(386,275,o),
(386,364,cs),
(386,453,o),
(321,519,o),
(233,519,cs),
(145,519,o),
(80,453,o),
(80,364,cs),
(80,275,o),
(145,209,o),
(233,209,cs)
);
}
);
width = 466;
},
{
layerId = "E9FB66CC-5D7A-47B2-9A25-A0E8EEF5BB81";
shapes = (
{
closed = 1;
nodes = (
(321,209,o),
(386,275,o),
(386,364,cs),
(386,453,o),
(321,519,o),
(233,519,cs),
(145,519,o),
(80,453,o),
(80,364,cs),
(80,275,o),
(145,209,o),
(233,209,cs)
);
}
);
width = 466;
}
);
metricRight = "=|";
unicode = 8226;
userData = {
KernOnSpecialSpacing = {
L = NoKerning;
R = NoKerning;
};
};
},
{
glyphname = asterisk;
layers = (
{
background = {
shapes = (
{
closed = 1;
nodes = (
(328,503,l),
(290,553,l),
(249,594,l),
(308,604,l),
(366,623,l),
(344,691,l),
(285,672,l),
(233,645,l),
(242,703,l),
(242,766,l),
(171,766,l),
(171,703,l),
(180,645,l),
(128,673,l),
(70,690,l),
(48,623,l),
(106,605,l),
(164,595,l),
(122,553,l),
(85,503,l),
(144,460,l),
(180,512,l),
(207,563,l),
(233,512,l),
(270,460,l)
);
}
);
};
layerId = m01;
name = Regular;
shapes = (
{
closed = 1;
nodes = (
(108,602,l),
(164,594,l),
(120,554,l),
(84,502,l),
(142,460,l),
(180,512,l),
(206,566,l),
(232,512,l),
(270,460,l),
(328,502,l),
(292,554,l),
(248,594,l),
(304,602,l),
(364,622,l),
(343,691,l),
(282,672,l),
(232,644,l),
(242,702,l),
(242,766,l),
(170,766,l),
(170,702,l),
(180,644,l),
(130,672,l),
(69,691,l),
(48,622,l)
);
}
);
width = 412;
},
{
layerId = "E9FB66CC-5D7A-47B2-9A25-A0E8EEF5BB81";
width = 519;
},
{
associatedMasterId = m01;
background = {
shapes = (
{
closed = 1;
nodes = (
(316,503,l),
(278,553,l),
(237,594,l),
(296,604,l),
(354,623,l),
(332,691,l),
(273,672,l),
(221,645,l),
(230,703,l),
(230,766,l),
(159,766,l),
(159,703,l),
(168,645,l),
(116,673,l),
(58,690,l),
(36,623,l),
(94,605,l),
(152,595,l),
(110,553,l),
(73,503,l),
(132,460,l),
(168,512,l),
(195,563,l),
(221,512,l),
(258,460,l)
);
}
);
};
layerId = "B917653A-9BE7-4628-89B3-6436212C65BF";
name = "30 apr 23, 10:40";
shapes = (
{
closed = 1;
nodes = (
(214,610,l),
(230,702,l),
(230,766,l),
(158,766,l),
(158,702,l),
(174,610,l)
);
},
{
closed = 1;
nodes = (
(200,590,l),
(292,603,l),
(353,623,l),
(331,691,l),
(270,672,l),
(188,628,l)
);
},
{
closed = 1;
nodes = (
(118,672,l),
(57,691,l),
(35,623,l),
(96,603,l),
(188,590,l),
(200,628,l)
);
},
{
closed = 1;
nodes = (
(180,595,l),
(220,511,l),
(258,460,l),
(316,502,l),
(279,554,l),
(212,618,l)
);
},
{
closed = 1;
nodes = (
(109,554,l),
(72,502,l),
(130,460,l),
(168,511,l),
(208,595,l),
(176,618,l)
);
}
);
width = 389;
}
);
metricRight = "=|";
unicode = 42;
userData = {
KernOnSpecialSpacing = {
L = quotes;
R = quotes;
};
};
},
{
glyphname = numbersign;
layers = (
{
layerId = m01;
shapes = (
{
closed = 1;
nodes = (
(421,0,l),
(572,732,l),
(495,732,l),
(344,0,l)
);
},
{
closed = 1;
nodes = (
(588,190,l),
(602,262,l),
(43,262,l),
(28,190,l)
);
},
{
closed = 1;
nodes = (
(177,0,l),
(331,732,l),
(254,732,l),
(99,0,l)
);
},
{
closed = 1;
nodes = (
(632,473,l),
(646,544,l),
(87,544,l),
(72,473,l)
);
}
);
width = 672;
},
{
layerId = "E9FB66CC-5D7A-47B2-9A25-A0E8EEF5BB81";
width = 655;
}
);
unicode = 35;
},
{
glyphname = slash;
layers = (
{
layerId = m01;
shapes = (
{
closed = 1;
nodes = (
(102,-120,l),
(440,744,l),
(350,744,l),
(12,-120,l)
);
}
);
width = 452;
},
{
layerId = "E9FB66CC-5D7A-47B2-9A25-A0E8EEF5BB81";
width = 544;
}
);
metricRight = "=|";
unicode = 47;
userData = {
KernOnSpecialSpacing = {
L = slash;
R = slash;
};
};
},
{
glyphname = hyphen;
layers = (
{
layerId = m01;
shapes = (
{
closed = 1;
nodes = (
(342,243,l),
(342,325,l),
(56,325,l),
(56,243,l)
);
}
);
width = 398;
},
{
layerId = "E9FB66CC-5D7A-47B2-9A25-A0E8EEF5BB81";
shapes = (
{
closed = 1;
nodes = (
(376,235,l),
(376,355,l),
(56,355,l),
(56,235,l)
);
}
);
width = 432;
}
);
metricRight = "=|";
unicode = 45;
userData = {
KernOnName = hyphen;
KernOnSpecialSpacing = {
L = hyphen;
R = hyphen;
};
};
},
{
glyphname = endash;
layers = (
{
layerId = m01;
shapes = (
{
closed = 1;
nodes = (
(444,246,l),
(444,324,l),
(56,324,l),
(56,246,l)
);
}
);
width = 500;
},
{
layerId = "E9FB66CC-5D7A-47B2-9A25-A0E8EEF5BB81";
shapes = (
{
closed = 1;
nodes = (
(444,240,l),
(444,352,l),
(56,352,l),
(56,240,l)
);
}
);
width = 500;
}
);
metricLeft = hyphen;
metricRight = hyphen;
unicode = 8211;
userData = {
KernOnSpecialSpacing = {
L = dashes;
R = dashes;
};
};
},
{
glyphname = emdash;
layers = (
{
layerId = m01;
shapes = (
{
closed = 1;
nodes = (
(1000,246,l),
(1000,324,l),
(0,324,l),
(0,246,l)
);
}
);
width = 1000;
},
{
layerId = "E9FB66CC-5D7A-47B2-9A25-A0E8EEF5BB81";
shapes = (
{
closed = 1;
nodes = (
(1000,240,l),
(1000,352,l),
(0,352,l),
(0,240,l)
);
}
);
width = 1000;
}
);
metricRight = "=|";
unicode = 8212;
userData = {
KernOnSpecialSpacing = {
L = dashes;
R = dashes;
};
};
},
{
glyphname = horizontalbar;
layers = (
{
layerId = m01;
shapes = (
{
closed = 1;
nodes = (
(944,246,l),
(944,324,l),
(56,324,l),
(56,246,l)
);
}
);
width = 1000;
},
{
layerId = "E9FB66CC-5D7A-47B2-9A25-A0E8EEF5BB81";
shapes = (
{
closed = 1;
nodes = (
(944,240,l),
(944,352,l),
(56,352,l),
(56,240,l)
);
}
);
width = 1000;
}
);
metricLeft = hyphen;
metricRight = hyphen;
unicode = 8213;
},
{
glyphname = underscore;
layers = (
{
layerId = m01;
shapes = (
{
closed = 1;
nodes = (
(558,-82,l),
(558,-8,l),
(34,-8,l),
(34,-82,l)
);
}
);
width = 592;
},
{
layerId = "E9FB66CC-5D7A-47B2-9A25-A0E8EEF5BB81";
shapes = (
{
closed = 1;
nodes = (
(556,-130,l),
(556,-16,l),
(32,-16,l),
(32,-130,l)
);
}
);
width = 588;
}
);
metricRight = "=|";
unicode = 95;
userData = {
KernOnSpecialSpacing = {
L = underscore;
R = underscore;
};
};
},
{
color = 9;
glyphname = parenleftinferior;
layers = (
{
layerId = m01;
shapes = (
{
closed = 1;
nodes = (
(193,-121,l),
(142,-43,o),
(117,53,o),
(117,149,cs),
(117,255,o),
(144,349,o),
(191,419,c),
(138,451,l),
(76,371,o),
(37,260,o),
(37,149,cs),
(37,44,o),
(74,-69,o),
(139,-153,c)
);
}
);
userData = {
RMXScaler = {
adjustSpace = 6;
height = 60;
verticalShift = -3;
weight = -16;
width = 62;
};
};
width = 194;
},
{
layerId = "E9FB66CC-5D7A-47B2-9A25-A0E8EEF5BB81";
shapes = (
{
closed = 1;
nodes = (
(211,-96,l),
(169,-23,o),
(151,64,o),
(151,154,cs),
(151,250,o),
(170,338,o),
(210,403,c),
(132,461,l),
(70,378,o),
(32,265,o),
(32,154,cs),
(32,46,o),
(69,-69,o),
(133,-154,c)
);
}
);
userData = {
RMXScaler = {
adjustSpace = 6;
height = 60;
verticalShift = -3;
weight = -28;
width = 60;
};
};
width = 212;
}
);
unicode = 8333;
userData = {
KernOnSpecialSpacing = {
R = parenthesis;
};
RMXScaler = {
source = parenleft;
};
};
},
{
color = 9;
glyphname = parenrightinferior;
layers = (
{
layerId = m01;
shapes = (
{
closed = 1;
nodes = (
(118,-71,o),
(157,41,o),
(157,149,cs),
(157,256,o),
(120,368,o),
(55,451,c),
(2,419,l),
(51,347,o),
(77,252,o),
(77,149,cs),
(77,53,o),
(52,-43,o),
(1,-121,c),
(54,-153,l)
);
}
);
userData = {
RMXScaler = {
adjustSpace = 6;
height = 60;
verticalShift = -3;
weight = -16;
width = 62;
};
};
width = 194;
},
{
layerId = "E9FB66CC-5D7A-47B2-9A25-A0E8EEF5BB81";
shapes = (
{
closed = 1;
nodes = (
(141,-72,o),
(180,42,o),
(180,154,cs),
(180,264,o),
(143,377,o),
(81,461,c),
(2,403,l),
(39,343,o),
(61,258,o),
(61,154,cs),
(61,62,o),
(42,-25,o),
(1,-96,c),
(80,-154,l)
);
}
);
userData = {
RMXScaler = {
adjustSpace = 6;
height = 60;
verticalShift = -3;
weight = -28;
width = 60;
};
};
width = 212;
}
);
unicode = 8334;
userData = {
KernOnSpecialSpacing = {
L = parenthesis;
};
RMXScaler = {
source = parenright;
};
};
},
{
glyphname = parenleft;
layers = (
{
layerId = m01;
shapes = (
{
closed = 1;
nodes = (
(280,-222,l),
(195,-90,o),
(148,77,o),
(148,249,cs),
(148,425,o),
(194,592,o),
(278,720,c),
(214,746,l),
(112,612,o),
(52,427,o),
(52,249,cs),
(52,73,o),
(113,-112,o),
(216,-248,c)
);
}
);
width = 272;
},
{
layerId = "E9FB66CC-5D7A-47B2-9A25-A0E8EEF5BB81";
shapes = (
{
closed = 1;
nodes = (
(312,-188,l),
(236,-64,o),
(196,91,o),
(196,255,cs),
(196,427,o),
(236,582,o),
(310,698,c),
(212,760,l),
(109,623,o),
(48,436,o),
(48,255,cs),
(48,76,o),
(110,-112,o),
(214,-250,c)
);
}
);
width = 304;
}
);
unicode = 40;
userData = {
KernOnSpecialSpacing = {
R = parenthesis;
};
};
},
{
glyphname = braceleft;
layers = (
{
layerId = m01;
shapes = (
{
closed = 1;
nodes = (
(298,-180,l),
(221,-194,o),
(182,-170,o),
(185,-104,cs),
(198,156,ls),
(201,212,o),
(169,250,o),
(110,254,c),
(110,246,l),
(169,250,o),
(201,289,o),
(198,346,cs),
(185,604,ls),
(182,670,o),
(221,694,o),
(298,680,c),
(306,738,l),
(163,773,o),
(87,726,o),
(97,604,cs),
(118,360,ls),
(122,315,o),
(104,288,o),
(64,288,cs),
(16,288,l),
(16,212,l),
(64,212,ls),
(104,212,o),
(122,185,o),
(118,140,cs),
(97,-104,ls),
(86,-228,o),
(163,-276,o),
(308,-240,c)
);
}
);
width = 310;
},
{
layerId = "E9FB66CC-5D7A-47B2-9A25-A0E8EEF5BB81";
width = 460;
},
{
associatedMasterId = m01;
layerId = "406D6BEA-E26C-4F52-AF6C-8A5C5C3F2CF3";
name = "15 apr 23, 19:03";
shapes = (
{
closed = 1;
nodes = (
(295,-161,l),
(213,-187,o),
(169,-163,o),
(178,-98,cs),
(207,132,ls),
(217,208,o),
(184,255,o),
(119,255,c),
(119,247,l),
(184,247,o),
(217,294,o),
(207,370,cs),
(178,598,ls),
(169,663,o),
(213,687,o),
(295,661,c),
(303,730,l),
(159,772,o),
(75,721,o),
(90,600,cs),
(119,366,ls),
(126,318,o),
(103,289,o),
(56,289,cs),
(27,289,l),
(27,209,l),
(56,209,ls),
(103,209,o),
(126,184,o),
(119,136,cs),
(90,-100,ls),
(75,-221,o),
(159,-274,o),
(303,-232,c)
);
}
);
width = 316;
}
);
unicode = 123;
userData = {
KernOnSpecialSpacing = {
R = parenthesis;
};
};
},
{
glyphname = bracketleft;
layers = (
{
layerId = m01;
shapes = (
{
closed = 1;
nodes = (
(306,-234,l),
(306,-156,l),
(154,-156,l),
(162,-164,l),
(162,663,l),
(154,655,l),
(306,655,l),
(306,732,l),
(70,732,l),
(70,-234,l)
);
}
);
width = 308;
},
{
layerId = "E9FB66CC-5D7A-47B2-9A25-A0E8EEF5BB81";
shapes = (
{
closed = 1;
nodes = (
(320,-234,l),
(320,-136,l),
(196,-136,l),
(204,-144,l),
(204,643,l),
(196,635,l),
(320,635,l),
(320,732,l),
(64,732,l),
(64,-234,l)
);
}
);
width = 328;
}
);
metricLeft = l;
unicode = 91;
userData = {
KernOnSpecialSpacing = {
L = NoKerning;
R = parenthesis;
};
};
},
{
color = 9;
glyphname = parenleft.case;
layers = (
{
background = {
shapes = (
{
closed = 1;
nodes = (
(248,-18,l),
(178,82,o),
(140,218,o),
(140,366,cs),
(140,515,o),
(178,651,o),
(246,750,c),
(178,780,l),
(89,664,o),
(36,510,o),
(36,366,cs),
(36,224,o),
(89,70,o),
(180,-48,c)
);
}
);
};
layerId = m01;
shapes = (
{
closed = 1;
nodes = (
(252,-21,l),
(183,85,o),
(144,220,o),
(144,364,cs),
(144,511,o),
(182,646,o),
(250,748,c),
(183,784,l),
(97,673,o),
(43,518,o),
(43,364,cs),
(43,216,o),
(95,59,o),
(185,-57,c)
);
}
);
userData = {
RMXScaler = {
height = 84;
verticalShift = 152;
weight = 4;
width = 86;
};
};
width = 245;
},
{
layerId = "E9FB66CC-5D7A-47B2-9A25-A0E8EEF5BB81";
shapes = (
{
closed = 1;
nodes = (
(282,11,l),
(220,113,o),
(190,238,o),
(190,369,cs),
(190,512,o),
(222,636,o),
(281,727,c),
(181,798,l),
(91,680,o),
(39,521,o),
(39,369,cs),
(39,219,o),
(92,59,o),
(183,-59,c)
);
}
);
userData = {
RMXScaler = {
height = 84;
verticalShift = 152;
weight = 2;
width = 86;
};
};
width = 275;
}
);
userData = {
KernOnSpecialSpacing = {
R = parenthesis;
};
RMXScaler = {
source = parenleft;
};
};
},
{
color = 9;
glyphname = parenright.case;
layers = (
{
background = {
shapes = (
{
closed = 1;
nodes = (
(203,70,o),
(256,224,o),
(256,366,cs),
(256,510,o),
(203,664,o),
(114,780,c),
(46,750,l),
(114,651,o),
(152,515,o),
(152,366,cs),
(152,218,o),
(114,82,o),
(44,-18,c),
(112,-48,l)
);
}
);
};
layerId = m01;
shapes = (
{
pos = (245,0);
ref = parenleft.case;
scale = (-1,1);
}
);
width = 245;
},
{
layerId = "E9FB66CC-5D7A-47B2-9A25-A0E8EEF5BB81";
shapes = (
{
pos = (275,0);
ref = parenleft.case;
scale = (-1,1);
}
);
width = 275;
}
);
metricLeft = "=|parenleft.case";
metricRight = "=|parenleft.case";
userData = {
KernOnSpecialSpacing = {
L = parenthesis;
};
};
},
{
glyphname = braceleft.case;
layers = (
{
layerId = m01;
shapes = (
{
closed = 1;
nodes = (
(268,14,l),
(206,4,o),
(173,26,o),
(176,80,cs),
(186,282,ls),
(188,331,o),
(162,366,o),
(114,369,c),
(114,361,l),
(162,364,o),
(188,399,o),
(186,448,cs),
(176,650,ls),
(173,704,o),
(206,726,o),
(268,716,c),
(280,776,l),
(157,806,o),
(88,762,o),
(96,656,cs),
(110,464,ls),
(113,427,o),
(96,404,o),
(62,404,cs),
(26,404,l),
(26,326,l),
(62,326,ls),
(96,326,o),
(113,303,o),
(110,266,cs),
(96,74,ls),
(88,-32,o),
(157,-76,o),
(280,-46,c)
);
}
);
width = 290;
},
{
layerId = "E9FB66CC-5D7A-47B2-9A25-A0E8EEF5BB81";
width = 460;
},
{
associatedMasterId = m01;
layerId = "406D6BEA-E26C-4F52-AF6C-8A5C5C3F2CF3";
name = "15 apr 23, 19:03";
shapes = (
{
closed = 1;
nodes = (
(295,-161,l),
(213,-187,o),
(169,-163,o),
(178,-98,cs),
(207,132,ls),
(217,208,o),
(184,255,o),
(119,255,c),
(119,247,l),
(184,247,o),
(217,294,o),
(207,370,cs),
(178,598,ls),
(169,663,o),
(213,687,o),
(295,661,c),
(303,730,l),
(159,772,o),
(75,721,o),
(90,600,cs),
(119,366,ls),
(126,318,o),
(103,289,o),
(56,289,cs),
(27,289,l),
(27,209,l),
(56,209,ls),
(103,209,o),
(126,184,o),
(119,136,cs),
(90,-100,ls),
(75,-221,o),
(159,-274,o),
(303,-232,c)
);
}
);
width = 316;
}
);
userData = {
KernOnSpecialSpacing = {
R = parenthesis;
};
};
},
{
glyphname = bracketleft.case;
layers = (
{
layerId = m01;
shapes = (
{
closed = 1;
nodes = (
(324,-34,l),
(324,46,l),
(172,46,l),
(180,38,l),
(180,695,l),
(172,687,l),
(324,687,l),
(324,766,l),
(88,766,l),
(88,-34,l)
);
}
);
width = 348;
},
{
layerId = "E9FB66CC-5D7A-47B2-9A25-A0E8EEF5BB81";
width = 561;
}
);
metricLeft = H;
userData = {
KernOnSpecialSpacing = {
L = NoKerning;
R = parenthesis;
};
};
},
{
glyphname = guillemetleft;
layers = (
{
layerId = m01;
shapes = (
{
closed = 1;
nodes = (
(292,149,l),
(83,280,l),
(83,268,l),
(290,395,l),
(290,490,l),
(28,316,l),
(28,232,l),
(292,54,l)
);
},
{
closed = 1;
nodes = (
(558,149,l),
(348,280,l),
(348,268,l),
(555,395,l),
(555,490,l),
(294,316,l),
(294,232,l),
(558,54,l)
);
}
);
width = 610;
},
{
layerId = "E9FB66CC-5D7A-47B2-9A25-A0E8EEF5BB81";
width = 624;
}
);
metricLeft = guilsinglleft;
metricRight = guilsinglleft;
unicode = 171;
userData = {
KernOnSpecialSpacing = {
L = quotes;
R = quotes;
};
};
},
{
glyphname = guilsinglleft;
layers = (
{
layerId = m01;
shapes = (
{
closed = 1;
nodes = (
(320,150,l),
(91,278,l),
(91,270,l),
(318,394,l),
(318,490,l),
(28,314,l),
(28,234,l),
(320,54,l)
);
}
);
width = 372;
},
{
layerId = "E9FB66CC-5D7A-47B2-9A25-A0E8EEF5BB81";
width = 506;
}
);
unicode = 8249;
userData = {
KernOnSpecialSpacing = {
L = quotes;
R = quotes;
};
};
},
{
glyphname = quotesingle;
layers = (
{
layerId = m01;
shapes = (
{
closed = 1;
nodes = (
(133,444,l),
(148,732,l),
(50,732,l),
(65,444,l)
);
}
);
width = 192;
},
{
layerId = "E9FB66CC-5D7A-47B2-9A25-A0E8EEF5BB81";
width = 418;
}
);
unicode = 39;
userData = {
KernOnSpecialSpacing = {
L = quotes;
R = quotes;
};
};
},
{
glyphname = florin;
layers = (
{
layerId = m01;
shapes = (
{
closed = 1;
nodes = (
(178,-36,o),
(280,15,o),
(302,150,cs),
(370,558,ls),
(384,640,o),
(454,656,o),
(547,627,c),
(564,706,l),
(406,751,o),
(300,709,o),
(278,574,cs),
(210,166,ls),
(196,83,o),
(130,59,o),
(33,97,c),
(16,18,l)
);
},
{
closed = 1;
nodes = (
(87,354,l),
(520,354,l),
(520,434,l),
(87,434,l)
);
}
);
width = 600;
},
{
layerId = "E9FB66CC-5D7A-47B2-9A25-A0E8EEF5BB81";
width = 628;
}
);
unicode = 402;
userData = {
KernOnSpecialSpacing = {
L = NoKerning;
R = NoKerning;
};
};
},
{
color = 3;
glyphname = at;
layers = (
{
layerId = m01;
shapes = (
{
closed = 1;
nodes = (
(632,-200,o),
(735,-173,o),
(800,-124,c),
(760,-67,l),
(698,-106,o),
(613,-128,o),
(514,-128,cs),
(283,-128,o),
(138,23,o),
(138,262,cs),
(138,514,o),
(290,674,o),
(528,674,cs),
(762,674,o),
(892,545,o),
(892,312,cs),
(892,185,o),
(844,104,o),
(763,104,cs),
(708,104,o),
(684,148,o),
(699,218,cs),
(765,526,l),
(681,526,l),
(654,401,l),
(662,401,l),
(666,481,o),
(606,536,o),
(518,536,cs),
(375,536,o),
(253,390,o),
(253,218,cs),
(253,102,o),
(317,34,o),
(419,34,cs),
(514,34,o),
(607,91,o),
(632,178,c),
(619,178,l),
(604,96,o),
(650,34,o),
(739,34,cs),
(881,34,o),
(976,151,o),
(976,326,cs),
(976,577,o),
(798,744,o),
(530,744,cs),
(244,744,o),
(54,550,o),
(54,260,cs),
(54,-16,o),
(239,-200,o),
(516,-200,cs)
);
},
{
closed = 1;
nodes = (
(387,104,o),
(345,148,o),
(345,226,cs),
(345,355,o),
(430,466,o),
(530,466,cs),
(595,466,o),
(636,421,o),
(636,345,cs),
(636,215,o),
(555,104,o),
(453,104,cs)
);
}
);
width = 1024;
},
{
layerId = "E9FB66CC-5D7A-47B2-9A25-A0E8EEF5BB81";
width = 811;
}
);
unicode = 64;
userData = {
KernOnSpecialSpacing = {
L = symbols;
R = symbols;
};
};
},
{
color = 2;
glyphname = ampersand;
layers = (
{
layerId = m01;
shapes = (
{
closed = 1;
nodes = (
(680,36,l),
(659,97,o),
(603,176,o),
(543,230,cs),
(394,363,o),
(196,432,o),
(196,568,cs),
(196,632,o),
(238,670,o),
(308,670,cs),
(387,670,o),
(440,622,o),
(451,541,c),
(544,570,l),
(527,678,o),
(436,746,o),
(310,746,cs),
(182,746,o),
(100,678,o),
(100,572,cs),
(100,500,o),
(138,435,o),
(195,389,cs),
(442,192,ls),
(517,132,o),
(575,54,o),
(592,-10,c)
);
},
{
closed = 1;
nodes = (
(487,-14,o),
(632,139,o),
(644,364,c),
(552,380,l),
(548,187,o),
(449,64,o),
(298,64,cs),
(197,64,o),
(132,117,o),
(132,200,cs),
(132,271,o),
(181,332,o),
(258,356,c),
(212,392,l),
(105,369,o),
(32,286,o),
(32,188,cs),
(32,68,o),
(135,-14,o),
(286,-14,cs)
);
}
);
width = 704;
},
{
layerId = "E9FB66CC-5D7A-47B2-9A25-A0E8EEF5BB81";
width = 667;
}
);
unicode = 38;
userData = {
KernOnSpecialSpacing = {
L = symbols;
R = symbols;
};
};
},
{
glyphname = paragraph;
layers = (
{
layerId = m01;
shapes = (
{
closed = 1;
nodes = (
(400,-234,l),
(400,732,l),
(280,732,ls),
(135,732,o),
(36,646,o),
(36,521,cs),
(36,396,o),
(137,310,o),
(284,310,cs),
(320,310,l),
(320,-234,l)
);
},
{
closed = 1;
nodes = (
(534,-234,l),
(534,732,l),
(456,732,l),
(456,-234,l)
);
}
);
width = 634;
},
{
layerId = "E9FB66CC-5D7A-47B2-9A25-A0E8EEF5BB81";
width = 626;
}
);
unicode = 182;
userData = {
KernOnSpecialSpacing = {
L = NoKerning;
R = NoKerning;
};
};
},
{
color = 1;
glyphname = section;
layers = (
{
layerId = m01;
shapes = (
{
closed = 1;
nodes = (
(505,-248,o),
(610,-175,o),
(610,-64,cs),
(610,7,o),
(567,67,o),
(496,92,c),
(496,92,l),
(563,111,o),
(606,163,o),
(606,234,cs),
(606,464,o),
(179,408,o),
(179,576,cs),
(179,636,o),
(232,674,o),
(320,674,cs),
(416,674,o),
(480,624,o),
(494,540,c),
(592,564,l),
(573,674,o),
(467,746,o),
(324,746,cs),
(177,746,o),
(81,677,o),
(81,570,cs),
(81,502,o),
(118,446,o),
(188,422,c),
(188,422,l),
(116,399,o),
(74,341,o),
(74,270,cs),
(74,40,o),
(508,110,o),
(508,-70,cs),
(508,-135,o),
(450,-174,o),
(352,-174,cs),
(236,-174,o),
(162,-117,o),
(152,-18,c),
(48,-36,l),
(64,-162,o),
(186,-248,o),
(350,-248,cs)
);
},
{
closed = 1;
nodes = (
(400,130,l),
(354,144,ls),
(258,173,o),
(174,204,o),
(174,280,cs),
(174,340,o),
(228,380,o),
(320,384,c),
(288,384,l),
(340,368,ls),
(430,340,o),
(506,309,o),
(506,234,cs),
(506,172,o),
(455,132,o),
(368,130,c)
);
}
);
width = 668;
},
{
layerId = "E9FB66CC-5D7A-47B2-9A25-A0E8EEF5BB81";
width = 632;
}
);
note = "Storto? Controlla attacchi interrotti";
unicode = 167;
userData = {
KernOnSpecialSpacing = {
R = symbols;
};
};
},
{
glyphname = copyright;
layers = (
{
layerId = m01;
shapes = (
{
closed = 1;
nodes = (
(648,-14,o),
(806,147,o),
(806,366,cs),
(806,585,o),
(648,746,o),
(432,746,cs),
(216,746,o),
(58,585,o),
(58,366,cs),
(58,147,o),
(216,-14,o),
(432,-14,cs)
);
},
{
closed = 1;
nodes = (
(249,46,o),
(124,176,o),
(124,366,cs),
(124,556,o),
(249,686,o),
(432,686,cs),
(615,686,o),
(740,556,o),
(740,366,cs),
(740,176,o),
(615,46,o),
(432,46,cs)
);
},
{
closed = 1;
nodes = (
(519,168,o),
(585,220,o),
(600,296,c),
(528,312,l),
(519,258,o),
(482,224,o),
(432,224,cs),
(368,224,o),
(328,279,o),
(328,366,cs),
(328,452,o),
(368,507,o),
(432,507,cs),
(480,507,o),
(516,475,o),
(524,424,c),
(592,440,l),
(580,513,o),
(515,562,o),
(434,562,cs),
(328,562,o),
(256,482,o),
(256,365,cs),
(256,248,o),
(329,168,o),
(436,168,cs)
);
}
);
width = 864;
},
{
layerId = "E9FB66CC-5D7A-47B2-9A25-A0E8EEF5BB81";
width = 751;
}
);
metricRight = "=|";
unicode = 169;
userData = {
KernOnSpecialSpacing = {
R = symbols;
};
};
},
{
glyphname = registered;
layers = (
{
layerId = m01;
shapes = (
{
closed = 1;
nodes = (
(358,176,l),
(358,508,l),
(350,500,l),
(444,500,ls),
(479,500,o),
(500,480,o),
(500,446,cs),
(500,411,o),
(478,391,o),
(442,391,cs),
(350,391,l),
(350,338,l),
(428,338,ls),
(448,338,o),
(464,328,o),
(472,310,cs),
(528,176,l),
(608,176,l),
(530,332,ls),
(520,352,o),
(499,364,o),
(476,364,c),
(476,356,l),
(534,360,o),
(570,396,o),
(570,450,cs),
(570,514,o),
(522,554,o),
(448,554,cs),
(290,554,l),
(290,176,l)
);
},
{
closed = 1;
nodes = (
(648,-14,o),
(806,147,o),
(806,366,cs),
(806,585,o),
(648,746,o),
(432,746,cs),
(216,746,o),
(58,585,o),
(58,366,cs),
(58,147,o),
(216,-14,o),
(432,-14,cs)
);
},
{
closed = 1;
nodes = (
(249,46,o),
(124,176,o),
(124,366,cs),
(124,556,o),
(249,686,o),
(432,686,cs),
(615,686,o),
(740,556,o),
(740,366,cs),
(740,176,o),
(615,46,o),
(432,46,cs)
);
}
);
width = 864;
},
{
layerId = "E9FB66CC-5D7A-47B2-9A25-A0E8EEF5BB81";
width = 751;
}
);
metricLeft = copyright;
metricRight = copyright;
unicode = 174;
userData = {
KernOnSpecialSpacing = {
L = superiors;
};
};
},
{
glyphname = published;
layers = (
{
layerId = m01;
shapes = (
{
closed = 1;
nodes = (
(384,176,l),
(384,508,l),
(376,500,l),
(464,500,ls),
(502,500,o),
(524,478,o),
(524,442,cs),
(524,404,o),
(501,382,o),
(462,382,cs),
(376,382,l),
(376,328,l),
(460,328,ls),
(542,328,o),
(594,372,o),
(594,442,cs),
(594,510,o),
(543,554,o),
(462,554,cs),
(316,554,l),
(316,176,l)
);
},
{
closed = 1;
nodes = (
(648,-14,o),
(806,147,o),
(806,366,cs),
(806,585,o),
(648,746,o),
(432,746,cs),
(216,746,o),
(58,585,o),
(58,366,cs),
(58,147,o),
(216,-14,o),
(432,-14,cs)
);
},
{
closed = 1;
nodes = (
(249,46,o),
(124,176,o),
(124,366,cs),
(124,556,o),
(249,686,o),
(432,686,cs),
(615,686,o),
(740,556,o),
(740,366,cs),
(740,176,o),
(615,46,o),
(432,46,cs)
);
}
);
width = 864;
},
{
layerId = "E9FB66CC-5D7A-47B2-9A25-A0E8EEF5BB81";
width = 751;
}
);
metricLeft = copyright;
metricRight = copyright;
unicode = 8471;
},
{
glyphname = trademark;
layers = (
{
layerId = m01;
shapes = (
{
closed = 1;
nodes = (
(220,352,l),
(220,676,l),
(140,676,l),
(140,352,l)
);
},
{
closed = 1;
nodes = (
(328,668,l),
(328,732,l),
(32,732,l),
(32,668,l)
);
},
{
closed = 1;
nodes = (
(434,352,l),
(434,626,l),
(528,352,l),
(586,352,l),
(678,628,l),
(678,352,l),
(754,352,l),
(754,732,l),
(652,732,l),
(556,438,l),
(564,438,l),
(464,732,l),
(366,732,l),
(366,352,l)
);
}
);
width = 816;
},
{
layerId = "E9FB66CC-5D7A-47B2-9A25-A0E8EEF5BB81";
shapes = (
{
closed = 1;
nodes = (
(209,366,l),
(209,651,l),
(96,651,l),
(96,366,l)
);
},
{
closed = 1;
nodes = (
(310,642,l),
(310,732,l),
(-4,732,l),
(-4,642,l)
);
},
{
closed = 1;
nodes = (
(444,366,l),
(444,590,l),
(525,366,l),
(579,366,l),
(657,594,l),
(657,366,l),
(766,366,l),
(766,732,l),
(632,732,l),
(561,531,l),
(485,732,l),
(343,732,l),
(343,366,l)
);
}
);
width = 803;
}
);
unicode = 8482;
userData = {
KernOnSpecialSpacing = {
L = superiors;
};
};
},
{
glyphname = degree;
layers = (
{
layerId = m01;
shapes = (
{
closed = 1;
nodes = (
(273,454,o),
(336,515,o),
(336,598,cs),
(336,681,o),
(273,742,o),
(187,742,cs),
(102,742,o),
(40,681,o),
(40,598,cs),
(40,515,o),
(102,454,o),
(187,454,cs)
);
},
{
closed = 1;
nodes = (
(138,515,o),
(104,549,o),
(104,598,cs),
(104,648,o),
(138,682,o),
(187,682,cs),
(238,682,o),
(272,648,o),
(272,598,cs),
(272,549,o),
(238,515,o),
(187,515,cs)
);
}
);
width = 376;
},
{
layerId = "E9FB66CC-5D7A-47B2-9A25-A0E8EEF5BB81";
width = 502;
}
);
metricRight = "=|";
unicode = 176;
userData = {
KernOnSpecialSpacing = {
L = superiors;
};
};
},
{
glyphname = minute;
layers = (
{
layerId = m01;
shapes = (
{
closed = 1;
nodes = (
(134,478,l),
(252,766,l),
(144,766,l),
(64,478,l)
);
}
);
width = 272;
},
{
layerId = "E9FB66CC-5D7A-47B2-9A25-A0E8EEF5BB81";
width = 628;
}
);
unicode = 8242;
},
{
glyphname = second;
layers = (
{
layerId = m01;
shapes = (
{
closed = 1;
nodes = (
(132,478,l),
(244,766,l),
(140,766,l),
(64,478,l)
);
},
{
closed = 1;
nodes = (
(272,478,l),
(392,766,l),
(286,766,l),
(203,478,l)
);
}
);
width = 412;
},
{
layerId = "E9FB66CC-5D7A-47B2-9A25-A0E8EEF5BB81";
width = 628;
}
);
metricLeft = minute;
metricRight = minute;
unicode = 8243;
},
{
glyphname = bar;
layers = (
{
layerId = m01;
shapes = (
{
closed = 1;
nodes = (
(172,-234,l),
(172,745,l),
(88,745,l),
(88,-234,l)
);
}
);
width = 260;
},
{
layerId = "E9FB66CC-5D7A-47B2-9A25-A0E8EEF5BB81";
width = 597;
}
);
metricLeft = H;
metricRight = H;
unicode = 124;
userData = {
KernOnSpecialSpacing = {
L = NoKerning;
R = NoKerning;
};
};
},
{
glyphname = brokenbar;
layers = (
{
layerId = m01;
shapes = (
{
closed = 1;
nodes = (
(172,-234,l),
(172,155,l),
(88,155,l),
(88,-234,l)
);
},
{
closed = 1;
nodes = (
(172,368,l),
(172,745,l),
(88,745,l),
(88,368,l)
);
}
);
width = 260;
},
{
layerId = "E9FB66CC-5D7A-47B2-9A25-A0E8EEF5BB81";
width = 597;
}
);
metricLeft = H;
metricRight = H;
unicode = 166;
},
{
glyphname = dagger;
layers = (
{
layerId = m01;
shapes = (
{
closed = 1;
nodes = (
(295,0,l),
(295,732,l),
(201,732,l),
(201,0,l)
);
},
{
closed = 1;
nodes = (
(462,470,l),
(462,550,l),
(34,550,l),
(34,470,l)
);
}
);
width = 496;
},
{
layerId = "E9FB66CC-5D7A-47B2-9A25-A0E8EEF5BB81";
width = 548;
}
);
metricRight = "=|";
unicode = 8224;
},
{
glyphname = daggerdbl;
layers = (
{
layerId = m01;
shapes = (
{
closed = 1;
nodes = (
(312,0,l),
(312,732,l),
(218,732,l),
(218,0,l)
);
},
{
closed = 1;
nodes = (
(472,492,l),
(472,572,l),
(58,572,l),
(58,492,l)
);
},
{
closed = 1;
nodes = (
(474,167,l),
(474,249,l),
(56,249,l),
(56,167,l)
);
}
);
width = 530;
},
{
layerId = "E9FB66CC-5D7A-47B2-9A25-A0E8EEF5BB81";
width = 554;
}
);
metricRight = "=|";
unicode = 8225;
},
{
glyphname = dagger.sups;
layers = (
{
layerId = m01;
shapes = (
{
closed = 1;
nodes = (
(180,468,l),
(180,766,l),
(112,766,l),
(112,468,l)
);
},
{
closed = 1;
nodes = (
(264,620,l),
(264,680,l),
(28,680,l),
(28,620,l)
);
}
);
width = 292;
},
{
layerId = "E9FB66CC-5D7A-47B2-9A25-A0E8EEF5BB81";
width = 470;
}
);
metricRight = "=|";
},
{
glyphname = daggerdbl.sups;
layers = (
{
layerId = m01;
shapes = (
{
closed = 1;
nodes = (
(205,468,l),
(205,766,l),
(137,766,l),
(137,468,l)
);
},
{
closed = 1;
nodes = (
(285,644,l),
(285,702,l),
(57,702,l),
(57,644,l)
);
},
{
closed = 1;
nodes = (
(286,530,l),
(286,587,l),
(56,587,l),
(56,530,l)
);
}
);
width = 342;
},
{
layerId = "E9FB66CC-5D7A-47B2-9A25-A0E8EEF5BB81";
width = 483;
}
);
metricRight = "=|";
},
{
glyphname = cent;
layers = (
{
layerId = m01;
shapes = (
{
alignment = -1;
pos = (2,77);
ref = c;
scale = (0.95,0.95);
},
{
closed = 1;
nodes = (
(312,-130,l),
(312,860,l),
(232,860,l),
(232,-130,l)
);
}
);
width = 535;
},
{
layerId = "E9FB66CC-5D7A-47B2-9A25-A0E8EEF5BB81";
width = 628;
}
);
metricLeft = c;
metricRight = c;
unicode = 162;
userData = {
KernOnSpecialSpacing = {
L = symbols;
R = symbols;
};
};
},
{
glyphname = dollar;
layers = (
{
layerId = m01;
shapes = (
{
alignment = -1;
ref = S;
},
{
closed = 1;
nodes = (
(363,-130,l),
(363,860,l),
(283,860,l),
(283,-130,l)
);
}
);
width = 637;
},
{
layerId = "E9FB66CC-5D7A-47B2-9A25-A0E8EEF5BB81";
width = 628;
}
);
metricLeft = S;
metricRight = S;
unicode = 36;
userData = {
KernOnSpecialSpacing = {
L = symbols;
R = symbols;
};
};
},
{
glyphname = euro;
layers = (
{
layerId = m01;
shapes = (
{
pos = (54,0);
ref = C;
scale = (0.95,1);
},
{
closed = 1;
nodes = (
(472,395,l),
(472,465,l),
(10,465,l),
(10,395,l)
);
},
{
closed = 1;
nodes = (
(468,275,l),
(468,345,l),
(8,345,l),
(8,275,l)
);
}
);
width = 736;
},
{
layerId = "E9FB66CC-5D7A-47B2-9A25-A0E8EEF5BB81";
shapes = (
{
pos = (49,0);
ref = C;
scale = (0.95,1);
},
{
closed = 1;
nodes = (
(459,392,l),
(459,476,l),
(10,476,l),
(10,392,l)
);
},
{
closed = 1;
nodes = (
(451,266,l),
(451,350,l),
(6,350,l),
(6,266,l)
);
}
);
width = 740;
}
);
metricRight = C;
unicode = 8364;
userData = {
KernOnSpecialSpacing = {
L = symbols;
R = symbols;
};
};
},
{
glyphname = sterling;
layers = (
{
layerId = m01;
shapes = (
{
closed = 1;
nodes = (
(220,154,o),
(247,241,o),
(247,306,cs),
(247,420,o),
(164,468,o),
(164,551,cs),
(164,619,o),
(220,666,o),
(300,666,cs),
(384,666,o),
(424,614,o),
(446,566,c),
(534,611,l),
(510,671,o),
(430,746,o),
(298,746,cs),
(163,746,o),
(71,671,o),
(71,555,cs),
(71,443,o),
(153,412,o),
(153,314,cs),
(153,261,o),
(129,195,o),
(44,69,c),
(44,0,l),
(550,0,l),
(550,80,l),
(102,80,l),
(123,27,l)
);
},
{
closed = 1;
nodes = (
(406,309,l),
(406,385,l),
(40,385,l),
(40,309,l)
);
}
);
width = 600;
},
{
layerId = "E9FB66CC-5D7A-47B2-9A25-A0E8EEF5BB81";
width = 628;
}
);
unicode = 163;
userData = {
KernOnSpecialSpacing = {
L = symbols;
R = symbols;
};
};
},
{
glyphname = yen;
layers = (
{
layerId = m01;
shapes = (
{
ref = Y;
},
{
closed = 1;
nodes = (
(549,295,l),
(549,365,l),
(86,365,l),
(86,295,l)
);
},
{
closed = 1;
nodes = (
(549,175,l),
(549,245,l),
(86,245,l),
(86,175,l)
);
}
);
width = 620;
},
{
layerId = "E9FB66CC-5D7A-47B2-9A25-A0E8EEF5BB81";
width = 628;
}
);
unicode = 165;
userData = {
KernOnSpecialSpacing = {
L = symbols;
R = symbols;
};
};
},
{
color = 9;
glyphname = equalinferior;
layers = (
{
layerId = m01;
shapes = (
{
closed = 1;
nodes = (
(343,62,l),
(343,125,l),
(40,125,l),
(40,62,l)
);
},
{
closed = 1;
nodes = (
(343,177,l),
(343,239,l),
(40,239,l),
(40,177,l)
);
}
);
userData = {
RMXScaler = {
adjustSpace = 6;
height = 66;
verticalShift = -52;
weight = 6;
width = 64;
};
};
width = 383;
},
{
layerId = "E9FB66CC-5D7A-47B2-9A25-A0E8EEF5BB81";
shapes = (
{
closed = 1;
nodes = (
(328,57,l),
(328,135,l),
(26,135,l),
(26,57,l)
);
},
{
closed = 1;
nodes = (
(328,164,l),
(328,242,l),
(26,242,l),
(26,164,l)
);
}
);
userData = {
RMXScaler = {
adjustSpace = 6;
height = 66;
verticalShift = -52;
weight = 4;
width = 62;
};
};
width = 354;
}
);
unicode = 8332;
userData = {
KernOnSpecialSpacing = {
L = math;
R = math;
};
RMXScaler = {
source = equal;
};
};
},
{
glyphname = equivalence;
layers = (
{
layerId = m01;
shapes = (
{
closed = 1;
nodes = (
(528,112,l),
(528,188,l),
(72,188,l),
(72,112,l)
);
},
{
closed = 1;
nodes = (
(528,269,l),
(528,344,l),
(72,344,l),
(72,269,l)
);
},
{
closed = 1;
nodes = (
(528,426,l),
(528,500,l),
(72,500,l),
(72,426,l)
);
}
);
width = 600;
},
{
layerId = "E9FB66CC-5D7A-47B2-9A25-A0E8EEF5BB81";
width = 617;
}
);
metricRight = "=|";
unicode = 8801;
},
{
color = 9;
glyphname = minusinferior;
layers = (
{
layerId = m01;
shapes = (
{
closed = 1;
nodes = (
(345,119,l),
(345,181,l),
(38,181,l),
(38,119,l)
);
}
);
userData = {
RMXScaler = {
adjustSpace = 6;
height = 66;
verticalShift = -52;
weight = 6;
width = 64;
};
};
width = 383;
},
{
layerId = "E9FB66CC-5D7A-47B2-9A25-A0E8EEF5BB81";
shapes = (
{
closed = 1;
nodes = (
(327,111,l),
(327,189,l),
(29,189,l),
(29,111,l)
);
}
);
userData = {
RMXScaler = {
adjustSpace = 6;
height = 66;
verticalShift = -52;
weight = 4;
width = 62;
};
};
width = 356;
}
);
unicode = 8331;
userData = {
KernOnSpecialSpacing = {
L = math;
R = math;
};
RMXScaler = {
source = minus;
};
};
},
{
glyphname = plus;
layers = (
{
layerId = m01;
shapes = (
{
closed = 1;
nodes = (
(340,76,l),
(340,540,l),
(260,540,l),
(260,76,l)
);
},
{
closed = 1;
nodes = (
(548,268,l),
(548,344,l),
(52,344,l),
(52,268,l)
);
}
);
width = 600;
},
{
layerId = "E9FB66CC-5D7A-47B2-9A25-A0E8EEF5BB81";
shapes = (
{
closed = 1;
nodes = (
(342,76,l),
(342,540,l),
(242,540,l),
(242,76,l)
);
},
{
closed = 1;
nodes = (
(540,260,l),
(540,352,l),
(44,352,l),
(44,260,l)
);
}
);
width = 584;
}
);
metricRight = "=|";
unicode = 43;
userData = {
KernOnSpecialSpacing = {
L = math;
R = math;
};
};
},
{
glyphname = minus;
layers = (
{
layerId = m01;
shapes = (
{
closed = 1;
nodes = (
(540,268,l),
(540,344,l),
(60,344,l),
(60,268,l)
);
}
);
width = 600;
},
{
layerId = "E9FB66CC-5D7A-47B2-9A25-A0E8EEF5BB81";
shapes = (
{
closed = 1;
nodes = (
(532,260,l),
(532,352,l),
(52,352,l),
(52,260,l)
);
}
);
width = 584;
}
);
metricRight = "=|";
unicode = 8722;
userData = {
KernOnSpecialSpacing = {
L = math;
R = math;
};
};
},
{
glyphname = multiply;
layers = (
{
layerId = m01;
shapes = (
{
closed = 1;
nodes = (
(522,464,l),
(472,518,l),
(76,152,l),
(126,98,l)
);
},
{
closed = 1;
nodes = (
(524,152,l),
(128,518,l),
(78,464,l),
(474,98,l)
);
}
);
width = 600;
},
{
layerId = "E9FB66CC-5D7A-47B2-9A25-A0E8EEF5BB81";
width = 617;
},
{
associatedMasterId = m01;
layerId = "052BAB60-9B61-40DA-A5CA-FAE40265ECDE";
name = "6 mag 23, 12:49";
shapes = (
{
closed = 1;
nodes = (
(487,142,l),
(117,513,l),
(58,452,l),
(428,83,l)
);
},
{
closed = 1;
nodes = (
(486,452,l),
(427,513,l),
(56,142,l),
(116,83,l)
);
}
);
width = 544;
}
);
unicode = 215;
userData = {
KernOnSpecialSpacing = {
L = math;
R = math;
};
};
},
{
glyphname = divide;
layers = (
{
layerId = m01;
shapes = (
{
closed = 1;
nodes = (
(350,426,l),
(350,528,l),
(252,528,l),
(252,426,l)
);
},
{
closed = 1;
nodes = (
(350,84,l),
(350,186,l),
(252,186,l),
(252,84,l)
);
},
{
ref = minus;
}
);
width = 600;
},
{
layerId = "E9FB66CC-5D7A-47B2-9A25-A0E8EEF5BB81";
width = 617;
}
);
metricLeft = minus;
metricRight = minus;
unicode = 247;
userData = {
KernOnSpecialSpacing = {
L = math;
R = math;
};
};
},
{
glyphname = equal;
layers = (
{
layerId = m01;
shapes = (
{
closed = 1;
nodes = (
(532,179,l),
(532,255,l),
(68,255,l),
(68,179,l)
);
},
{
closed = 1;
nodes = (
(532,362,l),
(532,437,l),
(68,437,l),
(68,362,l)
);
}
);
width = 600;
},
{
layerId = "E9FB66CC-5D7A-47B2-9A25-A0E8EEF5BB81";
shapes = (
{
closed = 1;
nodes = (
(528,174,l),
(528,266,l),
(56,266,l),
(56,174,l)
);
},
{
closed = 1;
nodes = (
(528,349,l),
(528,440,l),
(56,440,l),
(56,349,l)
);
}
);
width = 584;
}
);
metricRight = "=|";
unicode = 61;
userData = {
KernOnSpecialSpacing = {
L = math;
R = math;
};
};
},
{
glyphname = notequal;
layers = (
{
layerId = m01;
shapes = (
{
closed = 1;
nodes = (
(484,508,l),
(432,548,l),
(116,112,l),
(168,72,l)
);
},
{
ref = equal;
}
);
width = 600;
},
{
layerId = "E9FB66CC-5D7A-47B2-9A25-A0E8EEF5BB81";
width = 617;
}
);
metricLeft = equal;
metricRight = equal;
unicode = 8800;
},
{
glyphname = greater;
layers = (
{
layerId = m01;
shapes = (
{
closed = 1;
nodes = (
(552,244,l),
(552,316,l),
(56,558,l),
(56,465,l),
(448,280,l),
(56,96,l),
(56,2,l)
);
}
);
width = 600;
},
{
layerId = "E9FB66CC-5D7A-47B2-9A25-A0E8EEF5BB81";
width = 617;
}
);
unicode = 62;
userData = {
KernOnSpecialSpacing = {
L = math;
R = math;
};
};
},
{
glyphname = greaterequal;
layers = (
{
layerId = m01;
shapes = (
{
closed = 1;
nodes = (
(532,0,l),
(532,76,l),
(68,76,l),
(68,0,l)
);
},
{
closed = 1;
nodes = (
(532,330,l),
(532,398,l),
(69,584,l),
(69,499,l),
(432,364,l),
(69,226,l),
(69,140,l)
);
}
);
width = 600;
},
{
layerId = "E9FB66CC-5D7A-47B2-9A25-A0E8EEF5BB81";
width = 617;
},
{
associatedMasterId = m01;
layerId = "8B2B0265-CC96-4A6A-888E-C5CBD858D359";
name = "6 mag 23, 13:07";
shapes = (
{
closed = 1;
nodes = (
(609,29,l),
(609,111,l),
(103,111,l),
(103,29,l)
);
},
{
closed = 1;
nodes = (
(609,320,l),
(609,395,l),
(103,573,l),
(103,485,l),
(483,358,l),
(103,228,l),
(103,140,l)
);
}
);
width = 711;
}
);
metricLeft = equal;
metricRight = equal;
unicode = 8805;
},
{
glyphname = plusminus;
layers = (
{
layerId = m01;
shapes = (
{
closed = 1;
nodes = (
(532,0,l),
(532,76,l),
(68,76,l),
(68,0,l)
);
},
{
closed = 1;
nodes = (
(340,112,l),
(340,540,l),
(260,540,l),
(260,112,l)
);
},
{
closed = 1;
nodes = (
(532,287,l),
(532,362,l),
(68,362,l),
(68,287,l)
);
}
);
width = 600;
},
{
layerId = "E9FB66CC-5D7A-47B2-9A25-A0E8EEF5BB81";
width = 617;
}
);
metricLeft = equal;
metricRight = equal;
unicode = 177;
userData = {
KernOnSpecialSpacing = {
L = math;
R = math;
};
};
},
{
glyphname = approxequal;
layers = (
{
layerId = m01;
shapes = (
{
closed = 1;
nodes = (
(472,328,o),
(530,380,o),
(542,456,c),
(472,468,l),
(466,429,o),
(438,404,o),
(402,404,cs),
(342,404,o),
(282,472,o),
(200,472,cs),
(128,472,o),
(70,420,o),
(58,344,c),
(128,332,l),
(134,371,o),
(162,396,o),
(198,396,cs),
(258,396,o),
(318,328,o),
(400,328,cs)
);
},
{
closed = 1;
nodes = (
(472,136,o),
(530,188,o),
(542,264,c),
(472,276,l),
(466,237,o),
(438,212,o),
(402,212,cs),
(342,212,o),
(282,280,o),
(200,280,cs),
(128,280,o),
(70,228,o),
(58,152,c),
(128,140,l),
(134,179,o),
(162,204,o),
(198,204,cs),
(258,204,o),
(318,136,o),
(400,136,cs)
);
}
);
width = 600;
},
{
layerId = "E9FB66CC-5D7A-47B2-9A25-A0E8EEF5BB81";
width = 617;
},
{
associatedMasterId = m01;
layerId = "569C86E5-BE12-4F44-B9CA-7E4EBC71DDE1";
name = "6 mag 23, 13:54";
shapes = (
{
closed = 1;
nodes = (
(523,320,o),
(582,368,o),
(591,439,c),
(516,458,l),
(507,422,o),
(481,400,o),
(445,400,cs),
(378,400,o),
(332,471,o),
(231,471,cs),
(153,471,o),
(94,424,o),
(85,354,c),
(160,333,l),
(168,369,o),
(195,391,o),
(231,391,cs),
(298,391,o),
(344,320,o),
(445,320,cs)
);
},
{
closed = 1;
nodes = (
(523,123,o),
(582,172,o),
(591,243,c),
(516,262,l),
(507,225,o),
(481,203,o),
(445,203,cs),
(378,203,o),
(332,274,o),
(231,274,cs),
(153,274,o),
(94,227,o),
(85,157,c),
(160,136,l),
(168,173,o),
(195,195,o),
(231,195,cs),
(298,195,o),
(344,123,o),
(445,123,cs)
);
}
);
width = 676;
}
);
unicode = 8776;
userData = {
KernOnSpecialSpacing = {
L = math;
R = math;
};
};
},
{
glyphname = asciitilde;
layers = (
{
layerId = m01;
shapes = (
{
closed = 1;
nodes = (
(477,226,o),
(536,280,o),
(548,358,c),
(476,378,l),
(469,334,o),
(441,306,o),
(404,306,cs),
(340,306,o),
(284,386,o),
(196,386,cs),
(123,386,o),
(64,332,o),
(52,254,c),
(124,234,l),
(131,278,o),
(159,306,o),
(196,306,cs),
(260,306,o),
(316,226,o),
(404,226,cs)
);
}
);
width = 600;
},
{
layerId = "E9FB66CC-5D7A-47B2-9A25-A0E8EEF5BB81";
width = 617;
}
);
unicode = 126;
userData = {
KernOnSpecialSpacing = {
L = math;
R = math;
};
};
},
{
glyphname = logicalnot;
layers = (
{
layerId = m01;
shapes = (
{
closed = 1;
nodes = (
(536,154,l),
(536,344,l),
(60,344,l),
(60,268,l),
(464,268,l),
(456,276,l),
(456,154,l)
);
}
);
width = 600;
},
{
layerId = "E9FB66CC-5D7A-47B2-9A25-A0E8EEF5BB81";
width = 617;
}
);
metricLeft = minus;
unicode = 172;
},
